SplineFontDB: 3.0
FontName: Inder-Regular
FullName: Inder
FamilyName: Inder
Weight: Book
Copyright: Copyright (c) 2010 by Sorkin Type Co with Reserved Font Name Inder.
Version: 1.001
ItalicAngle: 0
UnderlinePosition: -36
UnderlineWidth: 152
Ascent: 1638
Descent: 410
LayerCount: 2
Layer: 0 1 "Back"  1
Layer: 1 1 "Fore"  0
XUID: [1021 631 1661839179 15482720]
FSType: 0
OS2Version: 3
OS2_WeightWidthSlopeOnly: 0
OS2_UseTypoMetrics: 1
CreationTime: 1323942720
ModificationTime: 1323929526
PfmFamily: 17
TTFWeight: 400
TTFWidth: 5
LineGap: 0
VLineGap: 0
Panose: 2 11 6 3 3 5 0 6 8 4
OS2TypoAscent: 402
OS2TypoAOffset: 1
OS2TypoDescent: -110
OS2TypoDOffset: 1
OS2TypoLinegap: 0
OS2WinAscent: 0
OS2WinAOffset: 1
OS2WinDescent: 0
OS2WinDOffset: 1
HheadAscent: 0
HheadAOffset: 1
HheadDescent: 0
HheadDOffset: 1
OS2SubXSize: 1434
OS2SubYSize: 1331
OS2SubXOff: 0
OS2SubYOff: 287
OS2SupXSize: 1434
OS2SupYSize: 1331
OS2SupXOff: 0
OS2SupYOff: 977
OS2StrikeYSize: 100
OS2StrikeYPos: 512
OS2Vendor: 'STC '
OS2CodePages: 20000093.00000000
OS2UnicodeRanges: a00000af.4000204a.00000000.00000000
DEI: 91125
TtTable: prep
PUSHW_1
 511
SCANCTRL
PUSHB_1
 4
SVTCA[y-axis]
EndTTInstrs
TtTable: fpgm
PUSHW_1
 0
FDEF
MPPEM
PUSHW_1
 9
LT
IF
PUSHB_2
 1
 1
INSTCTRL
EIF
PUSHW_1
 511
SCANCTRL
PUSHW_1
 68
SCVTCI
PUSHW_2
 9
 3
SDS
SDB
ENDF
PUSHW_1
 1
FDEF
DUP
DUP
RCVT
ROUND[Black]
WCVTP
PUSHB_1
 1
ADD
ENDF
PUSHW_1
 2
FDEF
PUSHW_1
 1
LOOPCALL
POP
ENDF
PUSHW_1
 3
FDEF
DUP
GC[cur]
PUSHB_1
 3
CINDEX
GC[cur]
GT
IF
SWAP
EIF
DUP
ROLL
DUP
ROLL
MD[grid]
ABS
ROLL
DUP
GC[cur]
DUP
ROUND[Grey]
SUB
ABS
PUSHB_1
 4
CINDEX
GC[cur]
DUP
ROUND[Grey]
SUB
ABS
GT
IF
SWAP
NEG
ROLL
EIF
MDAP[rnd]
DUP
PUSHB_1
 0
GTEQ
IF
ROUND[Black]
DUP
PUSHB_1
 0
EQ
IF
POP
PUSHB_1
 64
EIF
ELSE
ROUND[Black]
DUP
PUSHB_1
 0
EQ
IF
POP
PUSHB_1
 64
NEG
EIF
EIF
MSIRP[no-rp0]
ENDF
PUSHW_1
 4
FDEF
DUP
GC[cur]
PUSHB_1
 4
CINDEX
GC[cur]
GT
IF
SWAP
ROLL
EIF
DUP
GC[cur]
DUP
ROUND[White]
SUB
ABS
PUSHB_1
 4
CINDEX
GC[cur]
DUP
ROUND[White]
SUB
ABS
GT
IF
SWAP
ROLL
EIF

StartChar: E
Encoding: 69 69 4
Width: 1195
Flags: HW
LayerCount: 2
Fore
SplineSet
154 1392 m 1,0,-1
 1053 1392 l 1,1,-1
 1053 1218 l 1,2,-1
 354 1218 l 1,3,-1
 354 808 l 1,4,-1
 883 808 l 1,5,-1
 883 640 l 1,6,-1
 354 640 l 1,7,-1
 354 176 l 1,8,-1
 1053 176 l 1,9,-1
 1053 0 l 1,10,-1
 154 0 l 1,11,-1
 154 1392 l 1,0,-1
EndSplineSet
EndChar

StartChar: S
Encoding: 83 83 5
Width: 1195
Flags: HW
LayerCount: 2
Fore
SplineSet
765 18.5 m 128,-1,1
 654 -10 654 -10 493.278 -10 c 128,-1,2
 332.556 -10 332.556 -10 170 9 c 1,3,-1
 170 203 l 1,4,5
 316.143 170 316.143 170 464.071 170 c 128,-1,6
 612 170 612 170 686 186.5 c 128,-1,7
 760 203 760 203 805 230 c 0,8,9
 888 279.8 888 279.8 888 360 c 0,10,11
 888 422.091 888 422.091 856 455.545 c 0,12,13
 804.768 509.106 804.768 509.106 709 553 c 2,14,-1
 453 670 l 1,15,16
 321.039 731.582 321.039 731.582 265.52 785.291 c 0,17,18
 148 898.978 148 898.978 148 1049 c 0,19,20
 148 1203.41 148 1203.41 282 1298 c 0,21,22
 429.333 1402 429.333 1402 700 1402 c 0,23,24
 875.333 1402 875.333 1402 1020 1388 c 1,25,-1
 1020 1197 l 1,26,27
 896.8 1225 896.8 1225 745.4 1225 c 128,-1,28
 594 1225 594 1225 525.5 1209.5 c 128,-1,29
 457 1194 457 1194 417.5 1169.5 c 0,30,31
 347 1125.77 347 1125.77 347 1054 c 0,32,33
 347 984 347 984 392.5 938.5 c 0,34,35
 432.231 898.769 432.231 898.769 538 848 c 2,36,-1
 801 723 l 2,37,38
 931.961 661.226 931.961 661.226 984.481 606.113 c 128,-1,39
 1037 551 1037 551 1062 495.5 c 128,-1,40
 1087 440 1087 440 1087 362.5 c 128,-1,41
 1087 285 1087 285 1053 216.5 c 128,-1,42
 1019 148 1019 148 947.5 97.5 c 128,-1,0
 876 47 876 47 765 18.5 c 128,-1,1
EndSplineSet
EndChar

StartChar: I
Encoding: 73 73 6
Width: 512
Flags: HW
LayerCount: 2
Fore
SplineSet
156 1392 m 1,0,-1
 356 1392 l 1,1,-1
 356 0 l 1,2,-1
 156 0 l 1,3,-1
 156 1392 l 1,0,-1
EndSplineSet
EndChar

StartChar: O
Encoding: 79 79 7
Width: 1536
Flags: HW
LayerCount: 2
Fore
SplineSet
109 693.5 m 0,0,1
 109 857 109 857 158 989 c 128,-1,2
 207 1121 207 1121 294.5 1214 c 0,3,4
 477.027 1408 477.027 1408 769 1408 c 256,5,6
 1061.52 1408 1061.52 1408 1243 1214 c 0,7,8
 1427 1017.31 1427 1017.31 1427 694 c 0,9,10
 1427 371.132 1427 371.132 1243 175.5 c 0,11,12
 1062.89 -16 1062.89 -16 769 -16 c 256,13,14
 475.649 -16 475.649 -16 294.5 175.5 c 0,15,16
 109 371.6 109 371.6 109 693.5 c 0,0,1
309 695 m 256,17,18
 309 467.496 309 467.496 420.5 318.5 c 0,19,20
 545.099 152 545.099 152 769 152 c 256,21,22
 993.053 152 993.053 152 1117 318 c 0,23,24
 1227 465.321 1227 465.321 1227 693 c 256,25,26
 1227 922.714 1227 922.714 1117 1072 c 0,27,28
 993.211 1240 993.211 1240 769 1240 c 256,29,30
 544.395 1240 544.395 1240 419.5 1072 c 0,31,32
 309 923.363 309 923.363 309 695 c 256,17,18
EndSplineSet
EndChar

StartChar: N
Encoding: 78 78 8
Width: 1365
Flags: HW
LayerCount: 2
Fore
SplineSet
153 1392 m 1,0,-1
 297 1392 l 1,1,-1
 1024 365 l 1,2,-1
 1013 509 l 1,3,-1
 1013 1392 l 1,4,-1
 1211 1392 l 1,5,-1
 1211 0 l 1,6,-1
 1068 0 l 1,7,-1
 461 853 l 1,8,-1
 340 1027 l 1,9,-1
 351 853 l 1,10,-1
 351 0 l 1,11,-1
 153 0 l 1,12,-1
 153 1392 l 1,0,-1
EndSplineSet
EndChar

StartChar: d
Encoding: 100 100 9
Width: 1194
Flags: HW
LayerCount: 2
Fore
SplineSet
506.5 1017 m 128,-1,1
 615 1048 615 1048 696 1048 c 128,-1,2
 777 1048 777 1048 821 1044 c 1,3,-1
 821 1488 l 1,4,-1
 1020 1488 l 1,5,-1
 1020 0 l 1,6,-1
 841 0 l 1,7,-1
 833 119 l 1,8,9
 772.082 37.7755 772.082 37.7755 648 -1 c 0,10,11
 600 -16 600 -16 550.5 -16 c 128,-1,12
 501 -16 501 -16 453 -6 c 128,-1,13
 405 4 405 4 357.5 27.5 c 128,-1,14
 310 51 310 51 267 89.5 c 128,-1,15
 224 128 224 128 190.5 184.5 c 0,16,17
 118 306.776 118 306.776 118 474.888 c 128,-1,18
 118 643 118 643 171.5 747.5 c 128,-1,19
 225 852 225 852 311.5 919 c 128,-1,0
 398 986 398 986 506.5 1017 c 128,-1,1
353.5 676.5 m 128,-1,21
 326 601 326 601 326 493.5 c 128,-1,22
 326 386 326 386 352 316.5 c 128,-1,23
 378 247 378 247 417 207.5 c 0,24,25
 485.62 138 485.62 138 583 138 c 0,26,27
 708.5 138 708.5 138 790.5 230 c 0,28,29
 811 253 811 253 820 271 c 1,30,-1
 820 886 l 1,31,-1
 799.5 888.5 l 2,32,33
 753.667 894 753.667 894 690.333 894 c 128,-1,34
 627 894 627 894 555 871.5 c 128,-1,35
 483 849 483 849 432 800.5 c 128,-1,20
 381 752 381 752 353.5 676.5 c 128,-1,21
EndSplineSet
EndChar

StartChar: h
Encoding: 104 104 10
Width: 1194
Flags: HW
LayerCount: 2
Fore
SplineSet
619 876 m 0,0,1
 470.78 876 470.78 876 355 775 c 1,2,-1
 355 0 l 1,3,-1
 155 0 l 1,4,-1
 155 1488 l 1,5,-1
 355 1488 l 1,6,-1
 355 921 l 1,7,8
 517.169 1048 517.169 1048 690 1048 c 0,9,10
 874.522 1048 874.522 1048 961 937.5 c 0,11,12
 1051 822.5 1051 822.5 1051 564 c 2,13,-1
 1051 0 l 1,14,-1
 851 0 l 1,15,-1
 851 564 l 2,16,17
 851 811.837 851 811.837 716 860.5 c 0,18,19
 673 876 673 876 619 876 c 0,0,1
EndSplineSet
EndChar

StartChar: e
Encoding: 101 101 11
Width: 1025
Flags: HW
LayerCount: 2
Fore
SplineSet
637 -16 m 0,0,1
 71 -16 71 -16 71 537 c 0,2,3
 71 775.462 71 775.462 227.5 918.5 c 0,4,5
 369.188 1048 369.188 1048 550 1048 c 0,6,7
 747.382 1048 747.382 1048 857.5 916.5 c 0,8,9
 961 792.903 961 792.903 961 587 c 2,10,-1
 961 509 l 1,11,-1
 279 509 l 1,12,13
 279 226 279 226 510 163 c 0,14,15
 565 148 565 148 679.545 148 c 128,-1,16
 794.091 148 794.091 148 904 179 c 1,17,-1
 904 10 l 1,18,19
 794.222 -16 794.222 -16 637 -16 c 0,0,1
761 656 m 1,20,21
 761 751.855 761 751.855 707.5 818 c 0,22,23
 646.029 894 646.029 894 537 894 c 0,24,25
 422.394 894 422.394 894 350.5 821 c 0,26,27
 284 753.477 284 753.477 284 656 c 1,28,-1
 761 656 l 1,20,21
EndSplineSet
EndChar

StartChar: s
Encoding: 115 115 12
Width: 1024
Flags: HW
LayerCount: 2
Fore
SplineSet
407.818 -16 m 0,0,1
 282.636 -16 282.636 -16 155 2 c 1,2,-1
 155 179 l 1,3,4
 285.2 148 285.2 148 419 148 c 0,5,6
 687 148 687 148 687 261 c 0,7,8
 687 303.552 687 303.552 666 325.276 c 0,9,10
 634.71 357.645 634.71 357.645 568 391 c 1,11,-1
 422 458 l 1,12,13
 279.543 529.229 279.543 529.229 237.771 571.614 c 0,14,15
 159 651.544 159 651.544 159 762 c 0,16,17
 159 885.661 159 885.661 274.5 964 c 0,18,19
 398.346 1048 398.346 1048 622 1048 c 0,20,21
 734.8 1048 734.8 1048 850 1032 c 1,22,-1
 850 861 l 1,23,24
 723.5 884 723.5 884 630.25 884 c 128,-1,25
 537 884 537 884 485.5 872 c 128,-1,26
 434 860 434 860 408 842 c 0,27,28
 367 813.615 367 813.615 367 769.308 c 128,-1,29
 367 725 367 725 395.5 697.5 c 128,-1,30
 424 670 424 670 485 638 c 1,31,-1
 632 567 l 1,32,33
 776.451 492.367 776.451 492.367 817.226 452.183 c 0,34,35
 895 375.536 895 375.536 895 261 c 0,36,37
 895 138.213 895 138.213 771 63 c 0,38,39
 640.757 -16 640.757 -16 407.818 -16 c 0,0,1
EndSplineSet
EndChar

StartChar: i
Encoding: 105 105 13
Width: 513
Flags: HW
LayerCount: 2
Fore
SplineSet
350.5 1244.5 m 128,-1,1
 313 1214 313 1214 257 1214 c 128,-1,2
 201 1214 201 1214 164.5 1244.5 c 128,-1,3
 128 1275 128 1275 128 1332.5 c 128,-1,4
 128 1390 128 1390 164.5 1420 c 128,-1,5
 201 1450 201 1450 257 1450 c 128,-1,6
 313 1450 313 1450 350.5 1420 c 128,-1,7
 388 1390 388 1390 388 1332.5 c 128,-1,0
 388 1275 388 1275 350.5 1244.5 c 128,-1,1
154 1032 m 1,8,-1
 354 1032 l 1,9,-1
 354 0 l 1,10,-1
 154 0 l 1,11,-1
 154 1032 l 1,8,-1
EndSplineSet
EndChar

StartChar: o
Encoding: 111 111 14
Width: 1194
Flags: HW
LayerCount: 2
Fore
SplineSet
88 518 m 256,0,1
 88 761.366 88 761.366 243 912 c 0,2,3
 388.087 1053 388.087 1053 602 1053 c 0,4,5
 812 1053 812 1053 953 912 c 0,6,7
 1103 762 1103 762 1103 518 c 256,8,9
 1103 275.406 1103 275.406 952 125.5 c 0,10,11
 809.467 -16 809.467 -16 601 -16 c 0,12,13
 389.664 -16 389.664 -16 243 125.5 c 0,14,15
 88 275.042 88 275.042 88 518 c 256,0,1
296 518 m 256,16,17
 296 262.397 296 262.397 460 170.5 c 0,18,19
 518 138 518 138 599 138 c 128,-1,20
 680 138 680 138 736 170.5 c 128,-1,21
 792 203 792 203 827.5 256.5 c 0,22,23
 895 358.225 895 358.225 895 518 c 256,24,25
 895 771.928 895 771.928 733.5 866.5 c 0,26,27
 678 899 678 899 600 899 c 128,-1,28
 522 899 522 899 464.5 866.5 c 128,-1,29
 407 834 407 834 369.5 781 c 0,30,31
 296 677.12 296 677.12 296 518 c 256,16,17
EndSplineSet
EndChar

StartChar: n
Encoding: 110 110 15
Width: 1195
Flags: HW
LayerCount: 2
Fore
SplineSet
620 876 m 0,0,1
 470.78 876 470.78 876 355 775 c 1,2,-1
 355 0 l 1,3,-1
 155 0 l 1,4,-1
 155 1032 l 1,5,-1
 340 1032 l 1,6,-1
 354 920 l 1,7,8
 516.909 1048 516.909 1048 691 1048 c 0,9,10
 874.522 1048 874.522 1048 961 937.5 c 0,11,12
 1051 822.5 1051 822.5 1051 564 c 2,13,-1
 1051 0 l 1,14,-1
 851 0 l 1,15,-1
 851 564 l 2,16,17
 851 812.198 851 812.198 717 860.5 c 0,18,19
 674 876 674 876 620 876 c 0,0,1
EndSplineSet
EndChar

StartChar: a
Encoding: 97 97 16
Width: 1194
Flags: HW
LayerCount: 2
Fore
SplineSet
148.5 318 m 128,-1,1
 129 395 129 395 129 519 c 128,-1,2
 129 643 129 643 182.5 747.5 c 128,-1,3
 236 852 236 852 322.5 919 c 0,4,5
 489.045 1048 489.045 1048 737 1048 c 0,6,7
 865.833 1048 865.833 1048 931.917 1041.5 c 2,8,9
 1029 1032 l 1,10,-1
 1029 0 l 1,11,-1
 849 0 l 1,12,-1
 841 119 l 1,13,14
 780.69 38.5862 780.69 38.5862 658.5 0 c 0,15,16
 611 -15 611 -15 561.5 -15 c 128,-1,17
 512 -15 512 -15 464 -5 c 128,-1,18
 416 5 416 5 368.5 28 c 128,-1,19
 321 51 321 51 278 89.5 c 128,-1,20
 235 128 235 128 201.5 184.5 c 128,-1,0
 168 241 168 241 148.5 318 c 128,-1,1
829 885 m 1,21,22
 765 893 765 893 701.5 893 c 128,-1,23
 638 893 638 893 566 870.5 c 128,-1,24
 494 848 494 848 443 800 c 0,25,26
 337 700.235 337 700.235 337 495 c 0,27,28
 337 300.667 337 300.667 428 208.5 c 0,29,30
 496.62 139 496.62 139 594 139 c 0,31,32
 718.667 139 718.667 139 800 230.5 c 0,33,34
 820 253 820 253 829 271 c 1,35,-1
 829 885 l 1,21,22
EndSplineSet
EndChar

StartChar: period
Encoding: 46 46 17
Width: 511
Flags: HW
LayerCount: 2
Fore
SplineSet
156.5 7.5 m 128,-1,1
 117 40 117 40 117 101.5 c 128,-1,2
 117 163 117 163 156.5 196 c 128,-1,3
 196 229 196 229 256.5 229 c 128,-1,4
 317 229 317 229 357 196 c 128,-1,5
 397 163 397 163 397 101.5 c 128,-1,6
 397 40 397 40 357 7.5 c 128,-1,7
 317 -25 317 -25 256.5 -25 c 128,-1,0
 196 -25 196 -25 156.5 7.5 c 128,-1,1
EndSplineSet
EndChar

StartChar: q
Encoding: 113 113 18
Width: 1196
Flags: HW
LayerCount: 2
Fore
SplineSet
139.5 318 m 128,-1,1
 120 395 120 395 120 519 c 128,-1,2
 120 643 120 643 173.5 747.5 c 128,-1,3
 227 852 227 852 313.5 919 c 0,4,5
 480.045 1048 480.045 1048 728 1048 c 0,6,7
 856.833 1048 856.833 1048 922.917 1041.5 c 2,8,9
 1020 1032 l 1,10,-1
 1020 -400 l 1,11,-1
 820 -400 l 1,12,-1
 820 -126 l 1,13,-1
 833 119 l 1,14,15
 773 39 773 39 649.5 0 c 0,16,17
 602 -15 602 -15 552.5 -15 c 128,-1,18
 503 -15 503 -15 455 -5 c 128,-1,19
 407 5 407 5 359.5 28 c 128,-1,20
 312 51 312 51 269 89.5 c 128,-1,21
 226 128 226 128 192.5 184.5 c 128,-1,0
 159 241 159 241 139.5 318 c 128,-1,1
820 885 m 1,22,23
 756 893 756 893 692.5 893 c 128,-1,24
 629 893 629 893 557 870.5 c 128,-1,25
 485 848 485 848 434 800 c 0,26,27
 328 700.235 328 700.235 328 495 c 0,28,29
 328 300.667 328 300.667 419 208.5 c 0,30,31
 487.62 139 487.62 139 585 139 c 0,32,33
 709.667 139 709.667 139 791 230.5 c 0,34,35
 811 253 811 253 820 271 c 1,36,-1
 820 885 l 1,22,23
EndSplineSet
EndChar

StartChar: r
Encoding: 114 114 19
Width: 853
Flags: HW
LayerCount: 2
Fore
SplineSet
811 849 m 1,0,1
 755.889 865 755.889 865 679.444 865 c 128,-1,2
 603 865 603 865 554 849.5 c 128,-1,3
 505 834 505 834 468 812 c 0,4,5
 400.49 771.859 400.49 771.859 369 722 c 1,6,-1
 369 0 l 1,7,-1
 169 0 l 1,8,-1
 169 1032 l 1,9,-1
 361 1032 l 1,10,-1
 369 889 l 1,11,12
 443.909 982.636 443.909 982.636 587.5 1030.5 c 0,13,14
 640 1048 640 1048 706.929 1048 c 128,-1,15
 773.857 1048 773.857 1048 811 1038 c 1,16,-1
 811 849 l 1,0,1
EndSplineSet
EndChar

StartChar: c
Encoding: 99 99 20
Width: 1022
Flags: HW
LayerCount: 2
Fore
SplineSet
896 3 m 1,0,1
 835.833 -16 835.833 -16 687.917 -16 c 128,-1,2
 540 -16 540 -16 436.5 20 c 128,-1,3
 333 56 333 56 260.5 125.5 c 0,4,5
 109 270.731 109 270.731 109 528 c 0,6,7
 109 776.65 109 776.65 289.5 919.5 c 0,8,9
 451.868 1048 451.868 1048 688 1048 c 0,10,11
 833.714 1048 833.714 1048 888 1038 c 1,12,-1
 888 860 l 1,13,14
 804 887 804 887 696.5 887 c 128,-1,15
 589 887 589 887 518 857.5 c 128,-1,16
 447 828 447 828 402.5 778.5 c 0,17,18
 317 683.393 317 683.393 317 528 c 0,19,20
 317 265.57 317 265.57 505.5 179 c 0,21,22
 573 148 573 148 637 148 c 128,-1,23
 701 148 701 148 735.5 151 c 128,-1,24
 770 154 770 154 801 159 c 0,25,26
 867.276 169.69 867.276 169.69 896 182 c 1,27,-1
 896 3 l 1,0,1
EndSplineSet
EndChar

StartChar: u
Encoding: 117 117 21
Width: 1195
Flags: HW
LayerCount: 2
Fore
SplineSet
828 253 m 1,0,-1
 828 1032 l 1,1,-1
 1028 1032 l 1,2,-1
 1028 0 l 1,3,-1
 848 0 l 1,4,-1
 830 109 l 1,5,6
 682.273 -16 682.273 -16 503 -16 c 0,7,8
 313.188 -16 313.188 -16 233.5 89 c 0,9,10
 152 196.388 152 196.388 152 458 c 2,11,-1
 152 1032 l 1,12,-1
 352 1032 l 1,13,-1
 352 468 l 2,14,15
 352 283.222 352 283.222 405 215.5 c 0,16,17
 451.565 156 451.565 156 584.354 156 c 128,-1,18
 717.143 156 717.143 156 828 253 c 1,0,-1
EndSplineSet
EndChar

StartChar: p
Encoding: 112 112 22
Width: 1196
Flags: HW
LayerCount: 2
Fore
SplineSet
370 -400 m 1,0,-1
 170 -400 l 1,1,-1
 170 1032 l 1,2,-1
 350 1032 l 1,3,-1
 358 914 l 1,4,5
 418.245 994.327 418.245 994.327 542 1033 c 0,6,7
 590 1048 590 1048 639.5 1048 c 128,-1,8
 689 1048 689 1048 737 1037.5 c 128,-1,9
 785 1027 785 1027 832 1003.5 c 128,-1,10
 879 980 879 980 922 941.5 c 128,-1,11
 965 903 965 903 998 846.5 c 0,12,13
 1070 723.227 1070 723.227 1070 541 c 256,14,15
 1070 262.81 1070 262.81 878 115.5 c 0,16,17
 707.91 -15 707.91 -15 464 -15 c 2,18,-1
 414 -15 l 2,19,20
 390 -15 390 -15 370 -14 c 1,21,-1
 370 -400 l 1,0,-1
370 148 m 1,22,23
 398 140 398 140 480 140 c 128,-1,24
 562 140 562 140 634 163 c 128,-1,25
 706 186 706 186 756.5 234.5 c 0,26,27
 862 335.822 862 335.822 862 541 c 0,28,29
 862 734 862 734 770 826 c 0,30,31
 702 894 702 894 604 894 c 0,32,33
 480.609 894 480.609 894 399.5 803 c 0,34,35
 379 780 379 780 370 762 c 1,36,-1
 370 148 l 1,22,23
EndSplineSet
EndChar

StartChar: b
Encoding: 98 98 23
Width: 1192
Flags: HW
LayerCount: 2
Fore
SplineSet
682.5 16.5 m 128,-1,1
 574 -15 574 -15 448.5 -15 c 128,-1,2
 323 -15 323 -15 168 0 c 1,3,-1
 168 1488 l 1,4,-1
 368 1488 l 1,5,-1
 368 929 l 1,6,7
 434.338 1004.18 434.338 1004.18 551 1036 c 0,8,9
 595 1048 595 1048 641.5 1048 c 128,-1,10
 688 1048 688 1048 736 1038.5 c 128,-1,11
 784 1029 784 1029 831.5 1006 c 128,-1,12
 879 983 879 983 922 945 c 128,-1,13
 965 907 965 907 998.5 850.5 c 0,14,15
 1071 728.224 1071 728.224 1071 560.612 c 128,-1,16
 1071 393 1071 393 1017.5 288 c 128,-1,17
 964 183 964 183 877.5 115.5 c 128,-1,0
 791 48 791 48 682.5 16.5 c 128,-1,1
369 147 m 1,18,19
 397 139 397 139 479 139 c 128,-1,20
 561 139 561 139 633 162 c 128,-1,21
 705 185 705 185 756 234 c 0,22,23
 863 336.804 863 336.804 863 541 c 0,24,25
 863 790.421 863 790.421 717.5 867 c 0,26,27
 666.2 894 666.2 894 612.1 894 c 128,-1,28
 558 894 558 894 518 880 c 128,-1,29
 478 866 478 866 448 845.5 c 0,30,31
 391.418 806.835 391.418 806.835 369 762 c 1,32,-1
 369 147 l 1,18,19
EndSplineSet
EndChar

StartChar: l
Encoding: 108 108 24
Width: 683
Flags: HW
LayerCount: 2
Fore
SplineSet
198 1488 m 1,0,-1
 398 1488 l 1,1,-1
 398 391 l 2,2,3
 398 193.213 398 193.213 487.5 158 c 0,4,5
 518 146 518 146 552 146 c 128,-1,6
 586 146 586 146 613 154 c 1,7,-1
 613 0 l 1,8,-1
 576 -4 l 2,9,10
 558 -6 558 -6 541 -6 c 0,11,12
 349.08 -6 349.08 -6 264 120.5 c 0,13,14
 198 218.632 198 218.632 198 390 c 2,15,-1
 198 1488 l 1,0,-1
EndSplineSet
EndChar

StartChar: m
Encoding: 109 109 25
Width: 1878
Flags: HW
LayerCount: 2
Fore
SplineSet
359 775 m 1,0,-1
 360 0 l 1,1,-1
 160 0 l 1,2,-1
 160 1032 l 1,3,-1
 344 1032 l 1,4,-1
 358 919 l 1,5,6
 467.966 1010.64 467.966 1010.64 614.5 1039 c 0,7,8
 661 1048 661 1048 706 1048 c 0,9,10
 892.795 1048 892.795 1048 988 890 c 1,11,12
 1162.12 1048 1162.12 1048 1352 1048 c 0,13,14
 1540.27 1048 1540.27 1048 1625.5 935 c 0,15,16
 1712 820.315 1712 820.315 1712 555 c 2,17,-1
 1712 0 l 1,18,-1
 1512 0 l 1,19,-1
 1512 548 l 2,20,21
 1512 808.405 1512 808.405 1387 859 c 0,22,23
 1345 876 1345 876 1289 876 c 0,24,25
 1154.63 876 1154.63 876 1043 780 c 1,26,-1
 1043 0 l 1,27,-1
 843 0 l 1,28,-1
 843 556 l 2,29,30
 843 733.545 843 733.545 789.5 806.5 c 0,31,32
 738.533 876 738.533 876 607.24 876 c 128,-1,33
 475.947 876 475.947 876 359 775 c 1,0,-1
EndSplineSet
EndChar

StartChar: f
Encoding: 102 102 26
Width: 684
Flags: HW
LayerCount: 2
Fore
SplineSet
679 1338 m 1,0,1
 643 1350 643 1350 579 1350 c 128,-1,2
 515 1350 515 1350 477.5 1338 c 128,-1,3
 440 1326 440 1326 418.5 1303 c 0,4,5
 380 1261.81 380 1261.81 380 1169 c 2,6,-1
 380 1032 l 1,7,-1
 638 1032 l 1,8,-1
 638 879 l 1,9,-1
 380 879 l 1,10,-1
 380 0 l 1,11,-1
 180 0 l 1,12,-1
 180 879 l 1,13,-1
 56 879 l 1,14,-1
 56 973 l 1,15,-1
 180 1032 l 1,16,-1
 180 1142 l 2,17,18
 180 1247.29 180 1247.29 198.5 1300.14 c 128,-1,19
 217 1353 217 1353 243 1388 c 128,-1,20
 269 1423 269 1423 313 1449 c 0,21,22
 406.077 1504 406.077 1504 574 1504 c 0,23,24
 643.8 1504 643.8 1504 679 1496 c 1,25,-1
 679 1338 l 1,0,1
EndSplineSet
EndChar

StartChar: t
Encoding: 116 116 27
Width: 853
Flags: HW
LayerCount: 2
Fore
SplineSet
526 158 m 0,0,1
 559 146 559 146 626.1 146 c 128,-1,2
 693.2 146 693.2 146 738 162 c 1,3,-1
 738 2 l 1,4,5
 717.048 -3.2381 717.048 -3.2381 676.524 -4.11905 c 2,6,-1
 614.5 -5.5 l 2,7,8
 593 -6 593 -6 582 -6 c 0,9,10
 388.796 -6 388.796 -6 297 120.5 c 0,11,12
 223 222.476 223 222.476 223 390 c 2,13,-1
 223 879 l 1,14,-1
 75 879 l 1,15,-1
 75 973 l 1,16,-1
 223 1032 l 1,17,-1
 271 1288 l 1,18,-1
 423 1288 l 1,19,-1
 423 1032 l 1,20,-1
 743 1032 l 1,21,-1
 743 879 l 1,22,-1
 423 879 l 1,23,-1
 423 391 l 2,24,25
 423 195.455 423 195.455 526 158 c 0,0,1
EndSplineSet
EndChar

StartChar: g
Encoding: 103 103 28
Width: 1194
Flags: HW
LayerCount: 2
Fore
SplineSet
740.5 -394 m 0,0,1
 653 -416 653 -416 516.667 -416 c 128,-1,2
 380.333 -416 380.333 -416 317 -396 c 1,3,-1
 317 -218 l 1,4,5
 396.333 -252 396.333 -252 510.667 -252.5 c 128,-1,6
 625 -253 625 -253 679 -237 c 128,-1,7
 733 -221 733 -221 764 -185 c 0,8,9
 820 -119.968 820 -119.968 820 50 c 2,10,-1
 820 103 l 1,11,12
 744.24 27.24 744.24 27.24 619.5 -3 c 0,13,14
 570 -15 570 -15 520 -15 c 128,-1,15
 470 -15 470 -15 422.5 -4 c 128,-1,16
 375 7 375 7 328 31.5 c 128,-1,17
 281 56 281 56 238 95.5 c 128,-1,18
 195 135 195 135 161.5 193.5 c 0,19,20
 88 321.851 88 321.851 88 509 c 1,21,22
 86.1176 682.184 86.1176 682.184 187.5 813 c 0,23,24
 275.501 926.549 275.501 926.549 430.5 990.5 c 0,25,26
 569.864 1048 569.864 1048 732.932 1048 c 128,-1,27
 896 1048 896 1048 1020 1032 c 1,28,-1
 1020 50 l 2,29,30
 1020 -323.726 1020 -323.726 740.5 -394 c 0,0,1
820 886 m 1,31,32
 756 894 756 894 694 894 c 128,-1,33
 632 894 632 894 555 871 c 128,-1,34
 478 848 478 848 420 801 c 0,35,36
 293 698.086 293 698.086 293 509 c 0,37,38
 293 304.318 293 304.318 392.5 209.5 c 0,39,40
 466.481 139 466.481 139 573 139 c 0,41,42
 702.067 139 702.067 139 789.5 230.5 c 0,43,44
 811 253 811 253 820 271 c 1,45,-1
 820 886 l 1,31,32
EndSplineSet
EndChar

StartChar: j
Encoding: 106 106 29
Width: 512
Flags: HW
LayerCount: 2
Fore
SplineSet
350.5 1245.5 m 128,-1,1
 313 1215 313 1215 257 1215 c 128,-1,2
 201 1215 201 1215 164.5 1245.5 c 128,-1,3
 128 1276 128 1276 128 1333.5 c 128,-1,4
 128 1391 128 1391 164.5 1421 c 128,-1,5
 201 1451 201 1451 257 1451 c 128,-1,6
 313 1451 313 1451 350.5 1421 c 128,-1,7
 388 1391 388 1391 388 1333.5 c 128,-1,0
 388 1276 388 1276 350.5 1245.5 c 128,-1,1
156 1032 m 1,8,-1
 356 1032 l 1,9,-1
 356 -20 l 2,10,11
 356 -291.263 356 -291.263 185.5 -381 c 0,12,13
 119 -416 119 -416 13 -416 c 0,14,15
 -4 -416 -4 -416 -22 -414 c 2,16,-1
 -59 -410 l 1,17,-1
 -59 -256 l 1,18,19
 -32 -264 -32 -264 2 -264 c 128,-1,20
 36 -264 36 -264 66.5 -252 c 128,-1,21
 97 -240 97 -240 117 -211.5 c 0,22,23
 156 -155.925 156 -155.925 156 -19 c 2,24,-1
 156 1032 l 1,8,-1
EndSplineSet
EndChar

StartChar: M
Encoding: 77 77 30
Width: 1536
Flags: HW
LayerCount: 2
Fore
SplineSet
145 1392 m 1,0,-1
 273 1392 l 1,1,-1
 769 822 l 1,2,-1
 1263 1392 l 1,3,-1
 1391 1392 l 1,4,-1
 1391 0 l 1,5,-1
 1191 0 l 1,6,-1
 1191 1060 l 1,7,-1
 1132 980 l 1,8,-1
 769 557 l 1,9,-1
 406 979 l 1,10,-1
 345 1059 l 1,11,-1
 345 0 l 1,12,-1
 145 0 l 1,13,-1
 145 1392 l 1,0,-1
EndSplineSet
EndChar

StartChar: V
Encoding: 86 86 31
Width: 1200
Flags: HW
LayerCount: 2
Fore
SplineSet
-44 1392 m 1,0,-1
 164 1392 l 1,1,-1
 601 248 l 1,2,-1
 1036 1392 l 1,3,-1
 1244 1392 l 1,4,-1
 696 0 l 1,5,-1
 504 0 l 1,6,-1
 -44 1392 l 1,0,-1
EndSplineSet
EndChar

StartChar: v
Encoding: 118 118 32
Width: 1021
Flags: HW
LayerCount: 2
Fore
SplineSet
14 1032 m 1,0,-1
 229 1032 l 1,1,-1
 510 195 l 1,2,-1
 792 1032 l 1,3,-1
 1006 1032 l 1,4,-1
 611 0 l 1,5,-1
 410 0 l 1,6,-1
 14 1032 l 1,0,-1
EndSplineSet
EndChar

StartChar: w
Encoding: 119 119 33
Width: 1707
Flags: HW
LayerCount: 2
Fore
SplineSet
16 1032 m 1,0,-1
 229 1032 l 1,1,-1
 494 212 l 1,2,-1
 762 1032 l 1,3,-1
 970 1032 l 1,4,-1
 1241 215 l 1,5,-1
 1493 1032 l 1,6,-1
 1691 1032 l 1,7,-1
 1344 0 l 1,8,-1
 1138 0 l 1,9,-1
 860 782 l 1,10,-1
 597 0 l 1,11,-1
 391 0 l 1,12,-1
 16 1032 l 1,0,-1
EndSplineSet
EndChar

StartChar: H
Encoding: 72 72 34
Width: 1366
Flags: HW
LayerCount: 2
Fore
SplineSet
154 1392 m 1,0,-1
 354 1392 l 1,1,-1
 354 842 l 1,2,-1
 1012 842 l 1,3,-1
 1012 1392 l 1,4,-1
 1212 1392 l 1,5,-1
 1212 0 l 1,6,-1
 1012 0 l 1,7,-1
 1012 666 l 1,8,-1
 354 666 l 1,9,-1
 354 0 l 1,10,-1
 154 0 l 1,11,-1
 154 1392 l 1,0,-1
EndSplineSet
EndChar

StartChar: A
Encoding: 65 65 35
Width: 1365
Flags: HW
LayerCount: 2
Fore
SplineSet
614 1392 m 1,0,-1
 751 1392 l 1,1,-1
 1338 0 l 1,2,-1
 1130 0 l 1,3,-1
 989 350 l 1,4,-1
 371 350 l 1,5,-1
 231 0 l 1,6,-1
 27 0 l 1,7,-1
 614 1392 l 1,0,-1
925 510 m 1,8,-1
 681 1120 l 1,9,-1
 436 510 l 1,10,-1
 925 510 l 1,8,-1
EndSplineSet
EndChar

StartChar: D
Encoding: 68 68 36
Width: 1366
Flags: HW
LayerCount: 2
Fore
SplineSet
154 1391 m 1,0,-1
 492 1391 l 2,1,2
 834.468 1391 834.468 1391 1034.5 1222.5 c 0,3,4
 1250 1040.97 1250 1040.97 1250 694 c 256,5,6
 1250 346.824 1250 346.824 1039.5 167 c 0,7,8
 844.012 1.3313e-05 844.012 1.3313e-05 502 0 c 2,9,-1
 154 0 l 1,10,-1
 154 1391 l 1,0,-1
1045 693 m 0,11,12
 1045 1230 1045 1230 479 1230 c 2,13,-1
 354 1230 l 1,14,-1
 354 160 l 1,15,-1
 490 160 l 2,16,17
 921.909 160 921.909 160 1015.5 472.5 c 0,18,19
 1045 571 1045 571 1045 693 c 0,11,12
EndSplineSet
EndChar

StartChar: F
Encoding: 70 70 37
Width: 1195
Flags: HW
LayerCount: 2
Fore
SplineSet
154 1392 m 1,0,-1
 1101 1392 l 1,1,-1
 1101 1218 l 1,2,-1
 354 1218 l 1,3,-1
 354 808 l 1,4,-1
 931 808 l 1,5,-1
 931 640 l 1,6,-1
 354 640 l 1,7,-1
 354 0 l 1,8,-1
 154 0 l 1,9,-1
 154 1392 l 1,0,-1
EndSplineSet
EndChar

StartChar: B
Encoding: 66 66 38
Width: 1195
Flags: HW
LayerCount: 2
Fore
SplineSet
170 1392 m 1,0,-1
 521 1392 l 2,1,2
 866 1392 866 1392 965.5 1193 c 0,3,4
 1003 1118 1003 1118 1003 1044 c 128,-1,5
 1003 970 1003 970 987.5 926.5 c 128,-1,6
 972 883 972 883 946 847 c 0,7,8
 897.01 779.168 897.01 779.168 816 731 c 1,9,-1
 816 727 l 1,10,11
 965.596 684.258 965.596 684.258 1037 576 c 0,12,13
 1091 494.129 1091 494.129 1091 394.065 c 128,-1,14
 1091 294 1091 294 1051.5 221 c 128,-1,15
 1012 148 1012 148 941.5 99 c 0,16,17
 799.061 -4.08545e-06 799.061 -4.08545e-06 560 0 c 2,18,-1
 170 0 l 1,19,-1
 170 1392 l 1,0,-1
559 785 m 2,20,21
 719.629 785 719.629 785 775.5 912.5 c 0,22,23
 795 957 795 957 795 1012.5 c 128,-1,24
 795 1068 795 1068 781 1108.5 c 128,-1,25
 767 1149 767 1149 736 1178 c 0,26,27
 669.724 1240 669.724 1240 537 1240 c 2,28,-1
 370 1240 l 1,29,-1
 370 785 l 1,30,-1
 559 785 l 2,20,21
883 390 m 0,31,32
 883 633 883 633 591 633 c 2,33,-1
 370 633 l 1,34,-1
 370 152 l 1,35,-1
 560 152 l 2,36,37
 780.156 152 780.156 152 857 285 c 0,38,39
 883 330 883 330 883 390 c 0,31,32
EndSplineSet
EndChar

StartChar: C
Encoding: 67 67 39
Width: 1195
Flags: HW
LayerCount: 2
Fore
SplineSet
1100 8 m 1,0,1
 1001 -10 1001 -10 833.5 -10 c 128,-1,2
 666 -10 666 -10 531.5 36 c 128,-1,3
 397 82 397 82 299.5 172.5 c 0,4,5
 92 365.103 92 365.103 92 710 c 0,6,7
 92 935.22 92 935.22 199 1100 c 0,8,9
 343.584 1322.66 343.584 1322.66 644.5 1383.5 c 0,10,11
 736 1402 736 1402 863.5 1402 c 128,-1,12
 991 1402 991 1402 1068 1388 c 1,13,-1
 1068 1197 l 1,14,15
 997.6 1219 997.6 1219 851.3 1219 c 128,-1,16
 705 1219 705 1219 603 1183 c 128,-1,17
 501 1147 501 1147 433.5 1080.5 c 0,18,19
 300 948.978 300 948.978 300 710 c 0,20,21
 300 469.366 300 469.366 432 328.5 c 0,22,23
 574.902 176 574.902 176 843 176 c 0,24,25
 1000 176 1000 176 1100 200 c 1,26,-1
 1100 8 l 1,0,1
EndSplineSet
EndChar

StartChar: x
Encoding: 120 120 40
Width: 1025
Flags: HW
LayerCount: 2
Fore
SplineSet
399 518 m 1,0,-1
 44 1032 l 1,1,-1
 271 1032 l 1,2,-1
 517 659 l 1,3,-1
 780 1032 l 1,4,-1
 1004 1032 l 1,5,-1
 620 519 l 1,6,-1
 995 0 l 1,7,-1
 769 0 l 1,8,-1
 506 376 l 1,9,-1
 248 0 l 1,10,-1
 21 0 l 1,11,-1
 399 518 l 1,0,-1
EndSplineSet
EndChar

StartChar: k
Encoding: 107 107 41
Width: 1024
Flags: HW
LayerCount: 2
Fore
SplineSet
170 1487 m 1,0,-1
 370 1487 l 1,1,-1
 370 570 l 1,2,-1
 788 1032 l 1,3,-1
 1026 1032 l 1,4,-1
 581 564 l 1,5,-1
 1049 0 l 1,6,-1
 805 0 l 1,7,-1
 370 526 l 1,8,-1
 370 0 l 1,9,-1
 170 0 l 1,10,-1
 170 1487 l 1,0,-1
EndSplineSet
EndChar

StartChar: P
Encoding: 80 80 42
Width: 1195
Flags: HW
LayerCount: 2
Fore
SplineSet
170 1392 m 1,0,-1
 565 1392 l 2,1,2
 959.876 1392 959.876 1392 1073.5 1157.5 c 0,3,4
 1115 1071.85 1115 1071.85 1115 953.926 c 128,-1,5
 1115 836 1115 836 1073 752 c 128,-1,6
 1031 668 1031 668 959.5 614 c 0,7,8
 821.796 510 821.796 510 591 510 c 2,9,-1
 370 510 l 1,10,-1
 370 0 l 1,11,-1
 170 0 l 1,12,-1
 170 1392 l 1,0,-1
552 670 m 2,13,14
 733 670 733 670 820 740 c 128,-1,15
 907 810 907 810 907 958 c 0,16,17
 907 1154.81 907 1154.81 724 1212 c 0,18,19
 660 1232 660 1232 569 1232 c 2,20,-1
 370 1232 l 1,21,-1
 370 670 l 1,22,-1
 552 670 l 2,13,14
EndSplineSet
EndChar

StartChar: z
Encoding: 122 122 43
Width: 1025
Flags: HW
LayerCount: 2
Fore
SplineSet
89 116 m 1,0,-1
 689 872 l 1,1,-1
 126 872 l 1,2,-1
 126 1032 l 1,3,-1
 945 1032 l 1,4,-1
 945 916 l 1,5,-1
 336 160 l 1,6,-1
 967 160 l 1,7,-1
 967 0 l 1,8,-1
 89 0 l 1,9,-1
 89 116 l 1,0,-1
EndSplineSet
EndChar

StartChar: Q
Encoding: 81 81 44
Width: 1536
Flags: HW
LayerCount: 2
Fore
SplineSet
1328 -383 m 1,0,1
 1314.5 -386 1314.5 -386 1244.25 -386 c 128,-1,2
 1174 -386 1174 -386 1085 -358.5 c 128,-1,3
 996 -331 996 -331 924.5 -282 c 0,4,5
 792.024 -191.212 792.024 -191.212 701 -20 c 1,6,-1
 706 -13 l 1,7,8
 437.804 7.3179 437.804 7.3179 275.5 196.5 c 0,9,10
 109 390.573 109 390.573 109 694 c 0,11,12
 109 1016.84 109 1016.84 294.5 1214 c 0,13,14
 477.027 1408 477.027 1408 769 1408 c 256,15,16
 1061.52 1408 1061.52 1408 1243 1214 c 0,17,18
 1427 1017.31 1427 1017.31 1427 694 c 0,19,20
 1427 409.712 1427 409.712 1280.5 220 c 0,21,22
 1138.18 35.7028 1138.18 35.7028 896 -5 c 1,23,-1
 899 -8 l 1,24,25
 1036.02 -192 1036.02 -192 1284 -192 c 2,26,27
 1308 -192 l 2,28,29
 1318 -192 1318 -192 1328 -190 c 1,30,-1
 1328 -383 l 1,0,1
309 695 m 256,31,32
 309 467.496 309 467.496 420.5 318.5 c 0,33,34
 545.099 152 545.099 152 769 152 c 256,35,36
 993.053 152 993.053 152 1117 318 c 0,37,38
 1227 465.321 1227 465.321 1227 693 c 256,39,40
 1227 922.714 1227 922.714 1117 1072 c 0,41,42
 993.211 1240 993.211 1240 769 1240 c 256,43,44
 544.395 1240 544.395 1240 419.5 1072 c 0,45,46
 309 923.363 309 923.363 309 695 c 256,31,32
EndSplineSet
EndChar

StartChar: G
Encoding: 71 71 45
Width: 1366
Flags: HW
LayerCount: 2
Fore
SplineSet
1198 14 m 1,0,1
 1083 -16 1083 -16 894.5 -16 c 128,-1,2
 706 -16 706 -16 571.5 31 c 128,-1,3
 437 78 437 78 339.5 169.5 c 0,4,5
 132 364.231 132 364.231 132 710 c 0,6,7
 132 936.089 132 936.089 239.5 1100 c 0,8,9
 385.887 1323.2 385.887 1323.2 689 1383.5 c 0,10,11
 782 1402 782 1402 917.25 1402 c 128,-1,12
 1052.5 1402 1052.5 1402 1150 1389 c 1,13,-1
 1150 1197 l 1,14,15
 1064.2 1219 1064.2 1219 904.6 1219 c 128,-1,16
 745 1219 745 1219 643 1183 c 128,-1,17
 541 1147 541 1147 473.5 1080.5 c 0,18,19
 340 948.978 340 948.978 340 710 c 0,20,21
 340 466.791 340 466.791 472 321 c 0,22,23
 615.959 162 615.959 162 883 162 c 0,24,25
 944.667 162 944.667 162 998 167 c 1,26,-1
 998 680 l 1,27,-1
 1198 680 l 1,28,-1
 1198 14 l 1,0,1
EndSplineSet
EndChar

StartChar: W
Encoding: 87 87 46
Width: 1877
Flags: HW
LayerCount: 2
Fore
SplineSet
2 1392 m 1,0,-1
 210 1392 l 1,1,-1
 479 410 l 1,2,-1
 518 237 l 1,3,-1
 562 410 l 1,4,-1
 844 1392 l 1,5,-1
 1036 1392 l 1,6,-1
 1315 410 l 1,7,-1
 1360 230 l 1,8,-1
 1403 410 l 1,9,-1
 1674 1392 l 1,10,-1
 1874 1392 l 1,11,-1
 1452 0 l 1,12,-1
 1260 0 l 1,13,-1
 967 980 l 1,14,-1
 934 1105 l 1,15,-1
 902 980 l 1,16,-1
 612 0 l 1,17,-1
 420 0 l 1,18,-1
 2 1392 l 1,0,-1
EndSplineSet
EndChar

StartChar: J
Encoding: 74 74 47
Width: 1024
Flags: HW
LayerCount: 2
Fore
SplineSet
246 -10 m 0,0,1
 204 -10 204 -10 129 -5 c 1,2,-1
 129 188 l 1,3,4
 169 176 169 176 273.5 176 c 128,-1,5
 378 176 378 176 449.5 205 c 128,-1,6
 521 234 521 234 569 297 c 0,7,8
 666 424.312 666 424.312 666 704 c 2,9,-1
 666 1215 l 1,10,-1
 153 1215 l 1,11,-1
 153 1392 l 1,12,-1
 866 1392 l 1,13,-1
 866 704 l 2,14,15
 866 162.239 866 162.239 525 34 c 0,16,17
 408 -10 408 -10 246 -10 c 0,0,1
EndSplineSet
EndChar

StartChar: K
Encoding: 75 75 48
Width: 1195
Flags: HW
LayerCount: 2
Fore
SplineSet
154 1392 m 1,0,-1
 353 1392 l 1,1,-1
 353 740 l 1,2,-1
 889 1392 l 1,3,-1
 1139 1392 l 1,4,-1
 568 722 l 1,5,-1
 1183 0 l 1,6,-1
 935 0 l 1,7,-1
 353 694 l 1,8,-1
 353 0 l 1,9,-1
 154 0 l 1,10,-1
 154 1392 l 1,0,-1
EndSplineSet
EndChar

StartChar: L
Encoding: 76 76 49
Width: 1026
Flags: HW
LayerCount: 2
Fore
SplineSet
154 1392 m 1,0,-1
 354 1392 l 1,1,-1
 354 176 l 1,2,-1
 950 176 l 1,3,-1
 950 0 l 1,4,-1
 154 0 l 1,5,-1
 154 1392 l 1,0,-1
EndSplineSet
EndChar

StartChar: X
Encoding: 88 88 50
Width: 1195
Flags: HW
LayerCount: 2
Fore
SplineSet
485 705 m 1,0,-1
 45 1392 l 1,1,-1
 268 1392 l 1,2,-1
 597 859 l 1,3,-1
 933 1392 l 1,4,-1
 1143 1392 l 1,5,-1
 695 718 l 1,6,-1
 1182 0 l 1,7,-1
 960 0 l 1,8,-1
 586 570 l 1,9,-1
 239 0 l 1,10,-1
 20 0 l 1,11,-1
 485 705 l 1,0,-1
EndSplineSet
EndChar

StartChar: Y
Encoding: 89 89 51
Width: 1200
Flags: HW
LayerCount: 2
Fore
SplineSet
497 606 m 1,0,-1
 0 1392 l 1,1,-1
 216 1392 l 1,2,-1
 604 770 l 1,3,-1
 984 1392 l 1,4,-1
 1200 1392 l 1,5,-1
 705 608 l 1,6,-1
 705 0 l 1,7,-1
 497 0 l 1,8,-1
 497 606 l 1,0,-1
EndSplineSet
EndChar

StartChar: Z
Encoding: 90 90 52
Width: 1195
Flags: HW
LayerCount: 2
Fore
SplineSet
91 90 m 1,0,-1
 812 1223 l 1,1,-1
 671 1218 l 1,2,-1
 125 1218 l 1,3,-1
 125 1392 l 1,4,-1
 1085 1392 l 1,5,-1
 1085 1302 l 1,6,-1
 362 172 l 1,7,-1
 515 176 l 1,8,-1
 1085 176 l 1,9,-1
 1085 0 l 1,10,-1
 91 0 l 1,11,-1
 91 90 l 1,0,-1
EndSplineSet
EndChar

StartChar: U
Encoding: 85 85 53
Width: 1365
Flags: HW
LayerCount: 2
Fore
SplineSet
683 156 m 256,0,1
 1011 156 1011 156 1011 559 c 2,2,-1
 1011 1392 l 1,3,-1
 1211 1392 l 1,4,-1
 1211 559 l 2,5,6
 1211 263.871 1211 263.871 1062 117 c 0,7,8
 927.072 -16 927.072 -16 683 -16 c 0,9,10
 306.202 -16 306.202 -16 193.5 295 c 0,11,12
 154 404 154 404 154 559 c 2,13,-1
 154 1392 l 1,14,-1
 354 1392 l 1,15,-1
 354 559 l 2,16,17
 354 156 354 156 683 156 c 256,0,1
EndSplineSet
EndChar

StartChar: T
Encoding: 84 84 54
Width: 1195
Flags: HW
LayerCount: 2
Fore
SplineSet
495 1216 m 1,0,-1
 76 1216 l 1,1,-1
 76 1392 l 1,2,-1
 1114 1392 l 1,3,-1
 1114 1216 l 1,4,-1
 695 1216 l 1,5,-1
 695 0 l 1,6,-1
 495 0 l 1,7,-1
 495 1216 l 1,0,-1
EndSplineSet
EndChar

StartChar: y
Encoding: 121 121 55
Width: 1025
Flags: HW
LayerCount: 2
Fore
SplineSet
112 -256 m 1,0,1
 139 -264 139 -264 185.5 -264 c 128,-1,2
 232 -264 232 -264 281 -245.5 c 128,-1,3
 330 -227 330 -227 366 -194.5 c 0,4,5
 426.225 -140.13 426.225 -140.13 475 -24 c 1,6,-1
 51 1032 l 1,7,-1
 264 1032 l 1,8,-1
 562 210 l 1,9,-1
 829 1032 l 1,10,-1
 1040 1032 l 1,11,-1
 616 -127 l 2,12,13
 567.974 -256.671 567.974 -256.671 483 -325.5 c 0,14,15
 371.272 -416 371.272 -416 184 -416 c 0,16,17
 167 -416 167 -416 149 -414 c 2,18,-1
 112 -410 l 1,19,-1
 112 -256 l 1,0,1
EndSplineSet
EndChar

StartChar: exclam
Encoding: 33 33 56
Width: 512
Flags: HW
LayerCount: 2
Fore
SplineSet
156 1450 m 1,0,-1
 356 1450 l 1,1,-1
 340 414 l 1,2,-1
 172 414 l 1,3,-1
 156 1450 l 1,0,-1
156.5 7.5 m 128,-1,5
 117 40 117 40 117 101.5 c 128,-1,6
 117 163 117 163 156.5 196 c 128,-1,7
 196 229 196 229 256.5 229 c 128,-1,8
 317 229 317 229 357 196 c 128,-1,9
 397 163 397 163 397 101.5 c 128,-1,10
 397 40 397 40 357 7.5 c 128,-1,11
 317 -25 317 -25 256.5 -25 c 128,-1,4
 196 -25 196 -25 156.5 7.5 c 128,-1,5
EndSplineSet
EndChar

StartChar: exclamdown
Encoding: 161 161 57
Width: 512
Flags: HW
LayerCount: 2
Fore
SplineSet
357.5 856 m 128,-1,1
 318 823 318 823 257.5 823 c 128,-1,2
 197 823 197 823 157 856 c 128,-1,3
 117 889 117 889 117 950.5 c 128,-1,4
 117 1012 117 1012 157 1044.5 c 128,-1,5
 197 1077 197 1077 257.5 1077 c 128,-1,6
 318 1077 318 1077 357.5 1044.5 c 128,-1,7
 397 1012 397 1012 397 950.5 c 128,-1,0
 397 889 397 889 357.5 856 c 128,-1,1
174 638 m 1,8,-1
 342 638 l 1,9,-1
 358 -398 l 1,10,-1
 158 -398 l 1,11,-1
 174 638 l 1,8,-1
EndSplineSet
EndChar

StartChar: comma
Encoding: 44 44 58
Width: 512
Flags: HW
LayerCount: 2
Fore
SplineSet
180 186 m 1,0,-1
 373 186 l 1,1,-1
 373 0 l 2,2,3
 373 -194.222 373 -194.222 297.5 -286.5 c 0,4,5
 214.455 -388 214.455 -388 24 -388 c 1,6,-1
 24 -223 l 1,7,8
 150.179 -223 150.179 -223 172.5 -98 c 0,9,10
 180 -56 180 -56 180 0 c 2,11,-1
 180 186 l 1,0,-1
EndSplineSet
EndChar

StartChar: periodcentered
Encoding: 183 183 61
Width: 512
Flags: HW
LayerCount: 2
Fore
SplineSet
357 628.5 m 128,-1,1
 317 596 317 596 256.5 596 c 128,-1,2
 196 596 196 596 156.5 628.5 c 128,-1,3
 117 661 117 661 117 722.5 c 128,-1,4
 117 784 117 784 156.5 817 c 128,-1,5
 196 850 196 850 256.5 850 c 128,-1,6
 317 850 317 850 357 817 c 128,-1,7
 397 784 397 784 397 722.5 c 128,-1,0
 397 661 397 661 357 628.5 c 128,-1,1
EndSplineSet
EndChar

StartChar: bullet
Encoding: 8226 8226 62
Width: 853
Flags: HW
LayerCount: 2
Fore
SplineSet
425 342 m 256,0,1
 300 342 300 342 209.5 432.5 c 0,2,3
 120 522 120 522 120 647 c 0,4,5
 120 773.422 120 773.422 209.5 864 c 0,6,7
 298.429 954 298.429 954 425 954 c 256,8,9
 552.571 954 552.571 954 641.5 864 c 0,10,11
 732 772.41 732 772.41 732 647 c 0,12,13
 732 523 732 523 641.5 432.5 c 128,-1,14
 551 342 551 342 425 342 c 256,0,1
EndSplineSet
EndChar

StartChar: question
Encoding: 63 63 63
Width: 1023
Flags: HW
LayerCount: 2
Fore
SplineSet
440 619 m 0,0,1
 709 619 709 619 709 850 c 0,2,3
 709 1094.54 709 1094.54 428 1176.5 c 0,4,5
 313.753 1209.82 313.753 1209.82 170 1212 c 1,6,-1
 170 1400 l 1,7,8
 526.441 1400 526.441 1400 727.5 1233 c 0,9,10
 909 1082.25 909 1082.25 909 850 c 0,11,12
 909 613.219 909 613.219 705.5 509.5 c 0,13,14
 628 470 628 470 509 464 c 1,15,-1
 509 341 l 1,16,-1
 339 341 l 1,17,-1
 339 623 l 1,18,19
 379 619 379 619 440 619 c 0,0,1
293 96 m 256,20,21
 293 154 293 154 330 185 c 128,-1,22
 367 216 367 216 424 216 c 256,23,24
 481 216 481 216 519 185 c 128,-1,25
 557 154 557 154 557 96 c 256,26,27
 557 38 557 38 519 7 c 128,-1,28
 481 -24 481 -24 424 -24 c 256,29,30
 367 -24 367 -24 330 7 c 128,-1,31
 293 38 293 38 293 96 c 256,20,21
EndSplineSet
EndChar

StartChar: parenleft
Encoding: 40 40 64
Width: 683
Flags: HW
LayerCount: 2
Fore
SplineSet
480 -170 m 1,0,1
 188.555 68.1999 188.555 68.1999 128 439.5 c 0,2,3
 109 556 109 556 109 680 c 256,4,5
 109 1081.11 109 1081.11 305 1347.5 c 0,6,7
 376 1444 376 1444 480 1530 c 1,8,-1
 688 1530 l 1,9,10
 406.848 1311.33 406.848 1311.33 323 940 c 0,11,12
 295 816 295 816 295 679.5 c 128,-1,13
 295 543 295 543 323 419.5 c 128,-1,14
 351 296 351 296 402 188 c 0,15,16
 503.171 -26.2439 503.171 -26.2439 688 -170 c 1,17,-1
 480 -170 l 1,0,1
EndSplineSet
EndChar

StartChar: braceleft
Encoding: 123 123 66
Width: 1023
Flags: HW
LayerCount: 2
Fore
SplineSet
966 -171 m 1,0,1
 930.8 -179 930.8 -179 851.9 -179 c 128,-1,2
 773 -179 773 -179 714 -164.5 c 128,-1,3
 655 -150 655 -150 616.5 -124 c 128,-1,4
 578 -98 578 -98 556.5 -63 c 128,-1,5
 535 -28 535 -28 524.5 12 c 0,6,7
 510 67.2381 510 67.2381 510 183 c 2,8,-1
 510 244 l 2,9,10
 510 471.545 510 471.545 446 553 c 0,11,12
 389.429 625 389.429 625 243 625 c 2,13,-1
 172 625 l 1,14,-1
 172 770 l 1,15,-1
 243 770 l 2,16,17
 389.659 770 389.659 770 446 840 c 0,18,19
 510 919.515 510 919.515 510 1147 c 2,20,-1
 510 1208 l 2,21,22
 510 1323.76 510 1323.76 522.5 1371.38 c 128,-1,23
 535 1419 535 1419 556.5 1454 c 128,-1,24
 578 1489 578 1489 616.5 1515 c 0,25,26
 697.942 1570 697.942 1570 859 1570 c 0,27,28
 930.8 1570 930.8 1570 966 1562 c 1,29,-1
 966 1420 l 1,30,31
 930 1432 930 1432 861 1432 c 128,-1,32
 792 1432 792 1432 758 1419 c 128,-1,33
 724 1406 724 1406 707 1381 c 0,34,35
 680 1341.29 680 1341.29 680 1243 c 2,36,-1
 680 1139 l 2,37,38
 680 946 680 946 632 850 c 0,39,40
 586.912 759.824 586.912 759.824 469 709 c 1,41,-1
 469 690 l 1,42,43
 585.547 639.764 585.547 639.764 632 545 c 0,44,45
 680 447.08 680 447.08 680 252 c 2,46,-1
 680 148 l 2,47,48
 680 49.7059 680 49.7059 702 17.3529 c 0,49,50
 741.68 -41 741.68 -41 835.84 -41 c 128,-1,51
 930 -41 930 -41 966 -29 c 1,52,-1
 966 -171 l 1,0,1
EndSplineSet
EndChar

StartChar: bracketright
Encoding: 93 93 68
Width: 684
Flags: HW
LayerCount: 2
Fore
SplineSet
341 -34 m 1,0,-1
 341 1424 l 1,1,-1
 81 1424 l 1,2,-1
 81 1562 l 1,3,-1
 522 1562 l 1,4,-1
 522 -172 l 1,5,-1
 79 -172 l 1,6,-1
 79 -34 l 1,7,-1
 341 -34 l 1,0,-1
EndSplineSet
EndChar

StartChar: quoteleft
Encoding: 8216 8216 70
Width: 512
Flags: HW
LayerCount: 2
Fore
SplineSet
109 1142 m 2,0,1
 109 1336.22 109 1336.22 184.5 1428.5 c 0,2,3
 267.545 1530 267.545 1530 458 1530 c 1,4,-1
 458 1370 l 1,5,6
 332.353 1370 332.353 1370 309.5 1240.5 c 0,7,8
 302 1198 302 1198 302 1142 c 2,9,-1
 302 1020 l 1,10,-1
 109 1020 l 1,11,-1
 109 1142 l 2,0,1
EndSplineSet
EndChar

StartChar: quotesingle
Encoding: 39 39 74
Width: 512
Flags: HW
LayerCount: 2
Fore
SplineSet
153 1530 m 1,0,-1
 359 1530 l 1,1,-1
 333 988 l 1,2,-1
 179 988 l 1,3,-1
 153 1530 l 1,0,-1
EndSplineSet
EndChar

StartChar: endash
Encoding: 8211 8211 79
Width: 1195
Flags: HW
LayerCount: 2
Fore
SplineSet
170 671 m 1,0,-1
 1020 671 l 1,1,-1
 1020 519 l 1,2,-1
 170 519 l 1,3,-1
 170 671 l 1,0,-1
EndSplineSet
EndChar

StartChar: emdash
Encoding: 8212 8212 80
Width: 1880
Flags: HW
LayerCount: 2
Fore
SplineSet
170 671 m 1,0,-1
 1700 671 l 1,1,-1
 1700 519 l 1,2,-1
 170 519 l 1,3,-1
 170 671 l 1,0,-1
EndSplineSet
EndChar

StartChar: ampersand
Encoding: 38 38 81
Width: 1364
Flags: HW
LayerCount: 2
Fore
SplineSet
394 1022 m 0,0,1
 394 827 394 827 680 827 c 2,2,-1
 1292 827 l 1,3,-1
 1292 657 l 1,4,-1
 1168 657 l 1,5,-1
 1168 0 l 1,6,-1
 995 0 l 1,7,-1
 988 127 l 1,8,9
 881.079 29.7995 881.079 29.7995 705.5 -5 c 0,10,11
 650 -16 650 -16 574.5 -16 c 128,-1,12
 499 -16 499 -16 416.5 8.5 c 128,-1,13
 334 33 334 33 274.5 83.5 c 0,14,15
 149 190.017 149 190.017 149 390 c 0,16,17
 149 537.146 149 537.146 282.5 652.5 c 0,18,19
 334 697 334 697 414 730 c 1,20,-1
 414 733 l 1,21,22
 309 775 309 775 250.5 851 c 128,-1,23
 192 927 192 927 192 1007 c 128,-1,24
 192 1087 192 1087 217.5 1153 c 128,-1,25
 243 1219 243 1219 306.5 1272 c 0,26,27
 450.274 1392 450.274 1392 746 1392 c 0,28,29
 915.667 1392 915.667 1392 1022 1381 c 1,30,-1
 1022 1201 l 1,31,32
 900.1 1224 900.1 1224 778.55 1224 c 128,-1,33
 657 1224 657 1224 590.5 1209.5 c 128,-1,34
 524 1195 524 1195 480.5 1168.5 c 0,35,36
 394 1115.8 394 1115.8 394 1022 c 0,0,1
632 144 m 0,37,38
 846.732 144 846.732 144 976 271 c 1,39,-1
 976 658 l 1,40,-1
 679 657 l 2,41,42
 522.092 657 522.092 657 431.5 572 c 0,43,44
 351 496.469 351 496.469 351 387 c 0,45,46
 351 206.308 351 206.308 515 159 c 0,47,48
 567 144 567 144 632 144 c 0,37,38
EndSplineSet
EndChar

StartChar: less
Encoding: 60 60 82
Width: 1190
Flags: HW
LayerCount: 2
Fore
SplineSet
71 642 m 1,0,-1
 1074 1074 l 1,1,-1
 1074 891 l 1,2,-1
 330 590 l 1,3,-1
 1074 290 l 1,4,-1
 1074 107 l 1,5,-1
 71 539 l 1,6,-1
 71 642 l 1,0,-1
EndSplineSet
EndChar

StartChar: guilsinglleft
Encoding: 8249 8249 84
Width: 1024
Flags: HW
LayerCount: 2
Fore
SplineSet
170 593 m 1,0,-1
 781 995 l 1,1,-1
 781 799 l 1,2,-1
 352 533 l 1,3,-1
 781 260 l 1,4,-1
 781 64 l 1,5,-1
 170 475 l 1,6,-1
 170 593 l 1,0,-1
EndSplineSet
EndChar

StartChar: guillemotleft
Encoding: 171 171 86
Width: 1706
Flags: HW
LayerCount: 2
Fore
SplineSet
835 593 m 1,0,-1
 1446 995 l 1,1,-1
 1446 799 l 1,2,-1
 1026 533 l 1,3,-1
 1446 260 l 1,4,-1
 1446 64 l 1,5,-1
 835 475 l 1,6,-1
 835 593 l 1,0,-1
221 593 m 1,7,-1
 832 995 l 1,8,-1
 832 799 l 1,9,-1
 412 533 l 1,10,-1
 832 260 l 1,11,-1
 832 64 l 1,12,-1
 221 475 l 1,13,-1
 221 593 l 1,7,-1
EndSplineSet
EndChar

StartChar: plus
Encoding: 43 43 88
Width: 1194
Flags: HW
LayerCount: 2
Fore
SplineSet
519 519 m 1,0,-1
 97 519 l 1,1,-1
 97 671 l 1,2,-1
 519 671 l 1,3,-1
 519 1092 l 1,4,-1
 671 1092 l 1,5,-1
 671 671 l 1,6,-1
 1100 671 l 1,7,-1
 1100 519 l 1,8,-1
 671 519 l 1,9,-1
 671 90 l 1,10,-1
 519 90 l 1,11,-1
 519 519 l 1,0,-1
EndSplineSet
EndChar

StartChar: hyphen
Encoding: 45 45 90
Width: 1022
Flags: HW
LayerCount: 2
Fore
SplineSet
170 672 m 1,0,-1
 850 672 l 1,1,-1
 850 518 l 1,2,-1
 170 518 l 1,3,-1
 170 672 l 1,0,-1
EndSplineSet
EndChar

StartChar: equal
Encoding: 61 61 91
Width: 1194
Flags: HW
LayerCount: 2
Fore
SplineSet
97 849 m 1,0,-1
 1100 849 l 1,1,-1
 1100 695 l 1,2,-1
 97 695 l 1,3,-1
 97 849 l 1,0,-1
97 494 m 1,4,-1
 1100 494 l 1,5,-1
 1100 340 l 1,6,-1
 97 340 l 1,7,-1
 97 494 l 1,4,-1
EndSplineSet
EndChar

StartChar: multiply
Encoding: 215 215 92
Width: 1194
Flags: HW
LayerCount: 2
Fore
SplineSet
484 587 m 1,0,-1
 147 924 l 1,1,-1
 258 1035 l 1,2,-1
 595 698 l 1,3,-1
 932 1035 l 1,4,-1
 1043 924 l 1,5,-1
 706 587 l 1,6,-1
 1043 250 l 1,7,-1
 932 139 l 1,8,-1
 595 476 l 1,9,-1
 258 139 l 1,10,-1
 147 250 l 1,11,-1
 484 587 l 1,0,-1
EndSplineSet
EndChar

StartChar: logicalnot
Encoding: 172 172 94
Width: 1194
Flags: HW
LayerCount: 2
Fore
SplineSet
97 850 m 1,0,-1
 1020 850 l 1,1,-1
 1020 340 l 1,2,-1
 866 340 l 1,3,-1
 866 686 l 1,4,-1
 97 686 l 1,5,-1
 97 850 l 1,0,-1
EndSplineSet
EndChar

StartChar: slash
Encoding: 47 47 95
Width: 854
Flags: HW
LayerCount: 2
Fore
SplineSet
660 1360 m 1,0,-1
 838 1360 l 1,1,-1
 190 -170 l 1,2,-1
 12 -170 l 1,3,-1
 660 1360 l 1,0,-1
EndSplineSet
EndChar

StartChar: bar
Encoding: 124 124 97
Width: 511
Flags: HW
LayerCount: 2
Fore
SplineSet
165 1360 m 1,0,-1
 345 1360 l 1,1,-1
 345 -170 l 1,2,-1
 165 -170 l 1,3,-1
 165 1360 l 1,0,-1
EndSplineSet
EndChar

StartChar: brokenbar
Encoding: 166 166 98
Width: 511
Flags: HW
LayerCount: 2
Fore
SplineSet
165 1360 m 1,0,-1
 345 1360 l 1,1,-1
 345 690 l 1,2,-1
 165 690 l 1,3,-1
 165 1360 l 1,0,-1
165 499 m 1,4,-1
 345 499 l 1,5,-1
 345 -170 l 1,6,-1
 165 -170 l 1,7,-1
 165 499 l 1,4,-1
EndSplineSet
EndChar

StartChar: asterisk
Encoding: 42 42 99
Width: 1195
Flags: HW
LayerCount: 2
Fore
SplineSet
259 764 m 1,0,-1
 506 1047 l 1,1,-1
 140 1135 l 1,2,-1
 193 1302 l 1,3,-1
 541 1153 l 1,4,-1
 507 1530 l 1,5,-1
 684 1530 l 1,6,-1
 651 1152 l 1,7,-1
 997 1309 l 1,8,-1
 1051 1141 l 1,9,-1
 685 1052 l 1,10,-1
 932 770 l 1,11,-1
 789 667 l 1,12,-1
 596 982 l 1,13,-1
 401 661 l 1,14,-1
 259 764 l 1,0,-1
EndSplineSet
EndChar

StartChar: acute
Encoding: 180 180 100
Width: 1192
Flags: HW
LayerCount: 2
Fore
SplineSet
741 1621 m 1,0,-1
 975 1621 l 1,1,-1
 687 1254 l 1,2,-1
 509 1254 l 1,3,-1
 741 1621 l 1,0,-1
EndSplineSet
EndChar

StartChar: grave
Encoding: 96 96 101
Width: 681
Flags: HW
LayerCount: 2
Fore
SplineSet
92 1621 m 1,0,-1
 326 1621 l 1,1,-1
 558 1254 l 1,2,-1
 380 1254 l 1,3,-1
 92 1621 l 1,0,-1
EndSplineSet
EndChar

StartChar: paragraph
Encoding: 182 182 102
Width: 1196
Flags: HW
LayerCount: 2
Fore
SplineSet
500 510 m 1,0,1
 324 510 324 510 199.5 634.5 c 128,-1,2
 75 759 75 759 75 935 c 256,3,4
 75 1111 75 1111 199.5 1235.5 c 128,-1,5
 324 1360 324 1360 500 1360 c 2,6,-1
 656 1360 l 1,7,-1
 656 1359 l 1,8,-1
 874 1359 l 1,9,-1
 874 1360 l 1,10,-1
 1030 1360 l 1,11,-1
 1030 -340 l 1,12,-1
 874 -340 l 1,13,-1
 874 1213 l 1,14,-1
 656 1213 l 1,15,-1
 656 -340 l 1,16,-1
 500 -340 l 1,17,-1
 500 510 l 1,0,1
EndSplineSet
EndChar

StartChar: tilde
Encoding: 732 732 103
Width: 1021
Flags: HW
LayerCount: 2
Fore
SplineSet
94 1263 m 1,0,1
 94 1376.11 94 1376.11 163 1450.5 c 0,2,3
 231.174 1524 231.174 1524 330 1524 c 0,4,5
 410.179 1524 410.179 1524 498 1455.5 c 1,6,-1
 582 1391.5 l 2,7,8
 642.8 1344 642.8 1344 683.9 1344 c 128,-1,9
 725 1344 725 1344 749.5 1371 c 128,-1,10
 774 1398 774 1398 774 1451 c 1,11,-1
 926 1451 l 1,12,13
 926 1337.89 926 1337.89 857 1263.5 c 0,14,15
 788.826 1190 788.826 1190 690 1190 c 0,16,17
 598.588 1190 598.588 1190 480 1286 c 2,18,-1
 438.5 1319.5 l 1,19,20
 378.226 1370 378.226 1370 336.613 1370 c 128,-1,21
 295 1370 295 1370 270.5 1343 c 128,-1,22
 246 1316 246 1316 246 1263 c 1,23,-1
 94 1263 l 1,0,1
EndSplineSet
EndChar

StartChar: circumflex
Encoding: 710 710 104
Width: 1021
Flags: HW
LayerCount: 2
Fore
SplineSet
186 1414 m 1,0,-1
 510 1644 l 1,1,-1
 834 1414 l 1,2,-1
 834 1222 l 1,3,-1
 510 1436 l 1,4,-1
 186 1222 l 1,5,-1
 186 1414 l 1,0,-1
EndSplineSet
EndChar

StartChar: at
Encoding: 64 64 105
Width: 2044
Flags: HW
LayerCount: 2
Fore
SplineSet
977 849 m 0,0,1
 1040 861 1040 861 1143.25 861 c 128,-1,2
 1246.5 861 1246.5 861 1374 844 c 1,3,-1
 1374 344 l 2,4,5
 1374 249.711 1374 249.711 1418.5 179.5 c 0,6,7
 1469.52 99 1469.52 99 1558 99 c 0,8,9
 1702.37 99 1702.37 99 1749 303 c 0,10,11
 1765 373 1765 373 1765 492 c 128,-1,12
 1765 611 1765 611 1718.5 740.5 c 128,-1,13
 1672 870 1672 870 1580 969 c 0,14,15
 1378.34 1186 1378.34 1186 1033 1186 c 0,16,17
 828.4 1186 828.4 1186 652 1081 c 0,18,19
 388.211 923.982 388.211 923.982 305 623.5 c 0,20,21
 278 526 278 526 278 394.5 c 128,-1,22
 278 263 278 263 334 124.5 c 128,-1,23
 390 -14 390 -14 494 -117.5 c 0,24,25
 718.58 -341 718.58 -341 1080 -341 c 0,26,27
 1223.4 -341 1223.4 -341 1353 -305 c 0,28,29
 1389 -295 1389 -295 1407 -286 c 1,30,-1
 1396 -448 l 1,31,32
 1257.33 -500 1257.33 -500 1095.17 -500 c 128,-1,33
 933 -500 933 -500 804 -466.5 c 128,-1,34
 675 -433 675 -433 567 -372.5 c 128,-1,35
 459 -312 459 -312 374 -227 c 128,-1,36
 289 -142 289 -142 230 -40 c 0,37,38
 109 169.186 109 169.186 109 421 c 256,39,40
 109 666.595 109 666.595 236.5 880.5 c 0,41,42
 358.354 1084.93 358.354 1084.93 569.5 1207.5 c 0,43,44
 783.975 1332 783.975 1332 1033 1332 c 0,45,46
 1311.1 1332 1311.1 1332 1522.5 1210 c 0,47,48
 1718.71 1096.77 1718.71 1096.77 1828.5 896 c 0,49,50
 1934 703.086 1934 703.086 1934 469 c 0,51,52
 1934 266.779 1934 266.779 1838.5 118 c 0,53,54
 1731.95 -48 1731.95 -48 1557 -48 c 0,55,56
 1485.09 -48 1485.09 -48 1424.04 -14.5 c 0,57,58
 1307.91 49.2304 1307.91 49.2304 1275 137 c 1,59,60
 1211.72 31.5351 1211.72 31.5351 1087.5 -15.5 c 0,61,62
 1036 -35 1036 -35 968 -35 c 128,-1,63
 900 -35 900 -35 830 -12 c 128,-1,64
 760 11 760 11 704.5 61 c 0,65,66
 579 174.063 579 174.063 579 383 c 0,67,68
 579 621.04 579 621.04 747.5 749.5 c 0,69,70
 845.044 823.866 845.044 823.866 977 849 c 0,0,1
1190 695 m 1,71,72
 1154 704 1154 704 1085 704 c 128,-1,73
 1016 704 1016 704 958 685.5 c 128,-1,74
 900 667 900 667 858.5 628 c 0,75,76
 771 545.771 771 545.771 771 384 c 0,77,78
 771 241.231 771 241.231 848.5 168.5 c 0,79,80
 906.574 114 906.574 114 967.787 114 c 128,-1,81
 1029 114 1029 114 1063 129.5 c 128,-1,82
 1097 145 1097 145 1122 167.5 c 0,83,84
 1164.27 205.545 1164.27 205.545 1190 257 c 1,85,-1
 1190 695 l 1,71,72
EndSplineSet
EndChar

StartChar: hungarumlaut
Encoding: 733 733 106
Width: 1192
Flags: HW
LayerCount: 2
Fore
SplineSet
886 1621 m 1,0,-1
 1112 1621 l 1,1,-1
 824 1254 l 1,2,-1
 654 1254 l 1,3,-1
 886 1621 l 1,0,-1
460 1621 m 1,4,-1
 686 1621 l 1,5,-1
 398 1254 l 1,6,-1
 228 1254 l 1,7,-1
 460 1621 l 1,4,-1
EndSplineSet
EndChar

StartChar: caron
Encoding: 711 711 107
Width: 1021
Flags: HW
LayerCount: 2
Fore
SplineSet
186 1452 m 1,0,-1
 186 1644 l 1,1,-1
 510 1430 l 1,2,-1
 834 1644 l 1,3,-1
 834 1452 l 1,4,-1
 510 1222 l 1,5,-1
 186 1452 l 1,0,-1
EndSplineSet
EndChar

StartChar: breve
Encoding: 728 728 108
Width: 1191
Flags: HW
LayerCount: 2
Fore
SplineSet
510 1200 m 256,0,1
 371.146 1200 371.146 1200 273.5 1295.5 c 0,2,3
 175 1391.84 175 1391.84 175 1527 c 1,4,-1
 335 1527 l 1,5,6
 335 1446 335 1446 386 1395 c 128,-1,7
 437 1344 437 1344 510 1344 c 256,8,9
 583 1344 583 1344 634 1395 c 128,-1,10
 685 1446 685 1446 685 1527 c 1,11,-1
 845 1527 l 1,12,13
 845 1391.84 845 1391.84 746.5 1295.5 c 0,14,15
 648.854 1200 648.854 1200 510 1200 c 256,0,1
EndSplineSet
EndChar

StartChar: macron
Encoding: 175 175 109
Width: 681
Flags: HW
LayerCount: 2
Fore
SplineSet
69 1392 m 1,0,-1
 611 1392 l 1,1,-1
 611 1240 l 1,2,-1
 69 1240 l 1,3,-1
 69 1392 l 1,0,-1
EndSplineSet
EndChar

StartChar: ring
Encoding: 730 730 110
Width: 851
Flags: HW
LayerCount: 2
Fore
SplineSet
423.5 1221 m 0,0,1
 366 1221 366 1221 316 1242 c 128,-1,2
 266 1263 266 1263 228.5 1299 c 0,3,4
 148 1376.28 148 1376.28 148 1489 c 256,5,6
 148 1601.15 148 1601.15 228.5 1679.5 c 128,-1,7
 309.151 1758 309.151 1758 424 1758 c 128,-1,8
 538.849 1758 538.849 1758 619.5 1679.5 c 0,9,10
 701 1600.17 701 1600.17 701 1489 c 256,11,12
 701 1377.24 701 1377.24 619.5 1299 c 0,13,14
 538.25 1221 538.25 1221 423.5 1221 c 0,0,1
424 1342 m 256,15,16
 482.179 1342 482.179 1342 522.5 1384.5 c 128,-1,17
 563 1427.19 563 1427.19 563 1472.59 c 128,-1,18
 563 1518 563 1518 552 1545 c 128,-1,19
 541 1572 541 1572 522.5 1592 c 0,20,21
 482.725 1635 482.725 1635 424 1635 c 256,22,23
 366.85 1635 366.85 1635 326 1592 c 0,24,25
 286 1549.89 286 1549.89 286 1503.45 c 128,-1,26
 286 1457 286 1457 296.5 1430.5 c 128,-1,27
 307 1404 307 1404 326 1384.5 c 0,28,29
 367.41 1342 367.41 1342 424 1342 c 256,15,16
EndSplineSet
EndChar

StartChar: dieresis
Encoding: 168 168 111
Width: 850
Flags: HW
LayerCount: 2
Fore
SplineSet
746 1243 m 128,-1,1
 710 1214 710 1214 657 1214 c 128,-1,2
 604 1214 604 1214 569.5 1243 c 128,-1,3
 535 1272 535 1272 535 1327 c 128,-1,4
 535 1382 535 1382 569.5 1410 c 128,-1,5
 604 1438 604 1438 657 1438 c 128,-1,6
 710 1438 710 1438 746 1410 c 128,-1,7
 782 1382 782 1382 782 1327 c 128,-1,0
 782 1272 782 1272 746 1243 c 128,-1,1
281 1243 m 128,-1,9
 245 1214 245 1214 192 1214 c 128,-1,10
 139 1214 139 1214 104.5 1243 c 128,-1,11
 70 1272 70 1272 70 1327 c 128,-1,12
 70 1382 70 1382 104.5 1410 c 128,-1,13
 139 1438 139 1438 192 1438 c 128,-1,14
 245 1438 245 1438 281 1410 c 128,-1,15
 317 1382 317 1382 317 1327 c 128,-1,8
 317 1272 317 1272 281 1243 c 128,-1,9
EndSplineSet
EndChar

StartChar: dotaccent
Encoding: 729 729 112
Width: 511
Flags: HW
LayerCount: 2
Fore
SplineSet
346 1243 m 128,-1,1
 310 1214 310 1214 257 1214 c 128,-1,2
 204 1214 204 1214 169.5 1243 c 128,-1,3
 135 1272 135 1272 135 1327 c 128,-1,4
 135 1382 135 1382 169.5 1410 c 128,-1,5
 204 1438 204 1438 257 1438 c 128,-1,6
 310 1438 310 1438 346 1410 c 128,-1,7
 382 1382 382 1382 382 1327 c 128,-1,0
 382 1272 382 1272 346 1243 c 128,-1,1
EndSplineSet
EndChar

StartChar: ellipsis
Encoding: 8230 8230 113
Width: 1533
Flags: HW
LayerCount: 2
Fore
SplineSet
1178.5 7.5 m 128,-1,1
 1139 40 1139 40 1139 101.5 c 128,-1,2
 1139 163 1139 163 1178.5 196 c 128,-1,3
 1218 229 1218 229 1278.5 229 c 128,-1,4
 1339 229 1339 229 1379 196 c 128,-1,5
 1419 163 1419 163 1419 101.5 c 128,-1,6
 1419 40 1419 40 1379 7.5 c 128,-1,7
 1339 -25 1339 -25 1278.5 -25 c 128,-1,0
 1218 -25 1218 -25 1178.5 7.5 c 128,-1,1
667.5 7.5 m 128,-1,9
 628 40 628 40 628 101.5 c 128,-1,10
 628 163 628 163 667.5 196 c 128,-1,11
 707 229 707 229 767.5 229 c 128,-1,12
 828 229 828 229 868 196 c 128,-1,13
 908 163 908 163 908 101.5 c 128,-1,14
 908 40 908 40 868 7.5 c 128,-1,15
 828 -25 828 -25 767.5 -25 c 128,-1,8
 707 -25 707 -25 667.5 7.5 c 128,-1,9
156.5 7.5 m 128,-1,17
 117 40 117 40 117 101.5 c 128,-1,18
 117 163 117 163 156.5 196 c 128,-1,19
 196 229 196 229 256.5 229 c 128,-1,20
 317 229 317 229 357 196 c 128,-1,21
 397 163 397 163 397 101.5 c 128,-1,22
 397 40 397 40 357 7.5 c 128,-1,23
 317 -25 317 -25 256.5 -25 c 128,-1,16
 196 -25 196 -25 156.5 7.5 c 128,-1,17
EndSplineSet
EndChar

StartChar: dotlessi
Encoding: 305 305 114
Width: 509
Flags: HW
LayerCount: 2
Fore
SplineSet
154 1032 m 1,0,-1
 354 1032 l 1,1,-1
 354 0 l 1,2,-1
 154 0 l 1,3,-1
 154 1032 l 1,0,-1
EndSplineSet
EndChar

StartChar: dotlessj
Encoding: 567 567 115
Width: 512
Flags: HW
LayerCount: 2
Fore
SplineSet
156 1032 m 1,0,-1
 356 1032 l 1,1,-1
 356 -22 l 2,2,3
 356 -293.263 356 -293.263 185.5 -383 c 0,4,5
 119 -418 119 -418 13 -418 c 0,6,7
 -4 -418 -4 -418 -22 -416 c 2,8,9
 -59 -412 l 1,10,-1
 -59 -258 l 1,11,12
 -32 -266 -32 -266 2 -266 c 128,-1,13
 36 -266 36 -266 66.5 -254 c 128,-1,14
 97 -242 97 -242 117 -213.5 c 0,15,16
 156 -157.925 156 -157.925 156 -21 c 2,17,-1
 156 1032 l 1,0,-1
EndSplineSet
EndChar

StartChar: lessequal
Encoding: 8804 8804 116
Width: 1190
Flags: HW
LayerCount: 2
Fore
SplineSet
71 817 m 1,0,-1
 1074 1249 l 1,1,-1
 1074 1066 l 1,2,-1
 330 765 l 1,3,-1
 1074 465 l 1,4,-1
 1074 282 l 1,5,-1
 71 714 l 1,6,-1
 71 817 l 1,0,-1
70 155 m 1,7,-1
 1073 155 l 1,8,-1
 1073 1 l 1,9,-1
 70 1 l 1,10,-1
 70 155 l 1,7,-1
EndSplineSet
EndChar

StartChar: minus
Encoding: 8722 8722 117
Width: 1195
Flags: HW
LayerCount: 2
Fore
SplineSet
127 673 m 1,0,-1
 1070 673 l 1,1,-1
 1070 519 l 1,2,-1
 127 519 l 1,3,-1
 127 673 l 1,0,-1
EndSplineSet
EndChar

StartChar: cedilla
Encoding: 184 184 118
Width: 1021
Flags: HW
LayerCount: 2
Fore
SplineSet
734 -275 m 0,0,1
 734 -219 734 -219 622 -219 c 2,2,-1
 502 -219 l 1,3,-1
 502 84 l 1,4,-1
 646 84 l 1,5,-1
 646 -91 l 1,6,-1
 680 -91 l 2,7,8
 835.412 -91 835.412 -91 882 -190 c 0,9,10
 898 -224 898 -224 898 -274 c 128,-1,11
 898 -324 898 -324 873 -368.5 c 128,-1,12
 848 -413 848 -413 805.5 -444 c 0,13,14
 716.387 -509 716.387 -509 587 -509 c 0,15,16
 519.6 -509 519.6 -509 486 -501 c 1,17,-1
 486 -362 l 1,18,19
 531 -371 531 -371 573 -371 c 0,20,21
 734 -371 734 -371 734 -275 c 0,0,1
EndSplineSet
EndChar

StartChar: commaaccent
Encoding: 65539 -1 119
Width: 510
Flags: HW
LayerCount: 2
Fore
SplineSet
340 -103 m 1,0,-1
 340 -217 l 2,1,2
 340 -388.348 340 -388.348 274.5 -451 c 0,3,4
 212.818 -510 212.818 -510 51 -510 c 1,5,-1
 51 -377 l 1,6,7
 110.432 -377 110.432 -377 132.216 -351 c 0,8,9
 170 -305.903 170 -305.903 170 -217 c 2,10,-1
 170 -103 l 1,11,-1
 340 -103 l 1,0,-1
EndSplineSet
EndChar

StartChar: percent
Encoding: 37 37 120
Width: 1706
Flags: HW
LayerCount: 2
Fore
SplineSet
430.5 680 m 0,0,1
 361 680 361 680 303 702.5 c 128,-1,2
 245 725 245 725 203.5 768.5 c 0,3,4
 116 860.217 116 860.217 116 1019 c 0,5,6
 116 1175.23 116 1175.23 203.5 1268 c 0,7,8
 289.33 1359 289.33 1359 431 1359 c 0,9,10
 570.205 1359 570.205 1359 655 1268 c 0,11,12
 741 1175.71 741 1175.71 741 1019 c 0,13,14
 741 859.744 741 859.744 655 768.5 c 0,15,16
 571.586 680 571.586 680 430.5 680 c 0,0,1
317 863 m 128,-1,18
 358 808 358 808 430 808 c 128,-1,19
 502 808 502 808 541.5 863 c 128,-1,20
 581 918 581 918 581 1017.5 c 128,-1,21
 581 1117 581 1117 541.5 1174 c 128,-1,22
 502 1231 502 1231 430 1231 c 128,-1,23
 358 1231 358 1231 317 1174 c 128,-1,24
 276 1117 276 1117 276 1017.5 c 128,-1,17
 276 918 276 918 317 863 c 128,-1,18
963 339 m 0,25,26
 963 419 963 419 986 482 c 128,-1,27
 1009 545 1009 545 1050.5 589 c 0,28,29
 1136.33 680 1136.33 680 1278 680 c 0,30,31
 1417.2 680 1417.2 680 1502 589 c 0,32,33
 1588 496.707 1588 496.707 1588 340 c 0,34,35
 1588 180.744 1588 180.744 1502 89.5 c 0,36,37
 1418.59 0.999976 1418.59 0.999976 1278 1 c 0,38,39
 1134.93 1 1134.93 1 1050.5 89.5 c 0,40,41
 963 181.217 963 181.217 963 339 c 0,25,26
1164 495 m 128,-1,43
 1123 438 1123 438 1123 338.5 c 128,-1,44
 1123 239 1123 239 1164 184 c 128,-1,45
 1205 129 1205 129 1277 129 c 128,-1,46
 1349 129 1349 129 1388.5 184 c 128,-1,47
 1428 239 1428 239 1428 338.5 c 128,-1,48
 1428 438 1428 438 1388.5 495 c 128,-1,49
 1349 552 1349 552 1277 552 c 128,-1,42
 1205 552 1205 552 1164 495 c 128,-1,43
1153 1360 m 1,50,-1
 1320 1360 l 1,51,-1
 533 0 l 1,52,-1
 366 0 l 1,53,-1
 1153 1360 l 1,50,-1
EndSplineSet
EndChar

StartChar: mu
Encoding: 181 181 121
AltUni2: 0003bc.ffffffff.0
Width: 1195
Flags: HW
LayerCount: 2
Fore
SplineSet
576 0 m 0,0,1
 434.837 0 434.837 0 331 95 c 1,2,-1
 353 -340 l 1,3,-1
 167 -340 l 1,4,-1
 167 1032 l 1,5,-1
 353 1032 l 1,6,-1
 353 456 l 2,7,8
 353 294.319 353 294.319 434.5 214 c 0,9,10
 494.368 155 494.368 155 568.684 155 c 128,-1,11
 643 155 643 155 688.5 172 c 128,-1,12
 734 189 734 189 766 214.5 c 0,13,14
 824.282 260.944 824.282 260.944 847 319 c 1,15,-1
 847 1032 l 1,16,-1
 1033 1032 l 1,17,-1
 1033 0 l 1,18,-1
 867 0 l 1,19,-1
 880 170 l 1,20,-1
 876 170 l 1,21,22
 792.904 49.9726 792.904 49.9726 660 12 c 0,23,24
 618 0 618 0 576 0 c 0,0,1
EndSplineSet
EndChar

StartChar: perthousand
Encoding: 8240 8240 123
Width: 2391
Flags: HW
LayerCount: 2
Fore
SplineSet
430.5 680 m 0,0,1
 361 680 361 680 303 702.5 c 128,-1,2
 245 725 245 725 203.5 768.5 c 0,3,4
 116 860.217 116 860.217 116 1019 c 0,5,6
 116 1175.23 116 1175.23 203.5 1268 c 0,7,8
 289.33 1359 289.33 1359 431 1359 c 0,9,10
 570.205 1359 570.205 1359 655 1268 c 0,11,12
 741 1175.71 741 1175.71 741 1019 c 0,13,14
 741 859.744 741 859.744 655 768.5 c 0,15,16
 571.586 680 571.586 680 430.5 680 c 0,0,1
317 863 m 128,-1,18
 358 808 358 808 430 808 c 128,-1,19
 502 808 502 808 541.5 863 c 128,-1,20
 581 918 581 918 581 1017.5 c 128,-1,21
 581 1117 581 1117 541.5 1174 c 128,-1,22
 502 1231 502 1231 430 1231 c 128,-1,23
 358 1231 358 1231 317 1174 c 128,-1,24
 276 1117 276 1117 276 1017.5 c 128,-1,17
 276 918 276 918 317 863 c 128,-1,18
1663 339 m 0,25,26
 1663 419 1663 419 1686 482 c 128,-1,27
 1709 545 1709 545 1750.5 589 c 0,28,29
 1836.33 680 1836.33 680 1978 680 c 0,30,31
 2117.2 680 2117.2 680 2202 589 c 0,32,33
 2288 496.707 2288 496.707 2288 340 c 0,34,35
 2288 180.744 2288 180.744 2202 89.5 c 0,36,37
 2118.59 0.999976 2118.59 0.999976 1978 1 c 0,38,39
 1834.93 1 1834.93 1 1750.5 89.5 c 0,40,41
 1663 181.217 1663 181.217 1663 339 c 0,25,26
939 339 m 0,42,43
 939 419 939 419 962 482 c 128,-1,44
 985 545 985 545 1026.5 589 c 0,45,46
 1112.33 680 1112.33 680 1254 680 c 0,47,48
 1393.2 680 1393.2 680 1478 589 c 0,49,50
 1564 496.707 1564 496.707 1564 340 c 0,51,52
 1564 180.744 1564 180.744 1478 89.5 c 0,53,54
 1394.59 0.999976 1394.59 0.999976 1254 1 c 0,55,56
 1110.93 1 1110.93 1 1026.5 89.5 c 0,57,58
 939 181.217 939 181.217 939 339 c 0,42,43
1864 495 m 128,-1,60
 1823 438 1823 438 1823 338.5 c 128,-1,61
 1823 239 1823 239 1864 184 c 128,-1,62
 1905 129 1905 129 1977 129 c 128,-1,63
 2049 129 2049 129 2088.5 184 c 128,-1,64
 2128 239 2128 239 2128 338.5 c 128,-1,65
 2128 438 2128 438 2088.5 495 c 128,-1,66
 2049 552 2049 552 1977 552 c 128,-1,59
 1905 552 1905 552 1864 495 c 128,-1,60
1140 495 m 128,-1,68
 1099 438 1099 438 1099 338.5 c 128,-1,69
 1099 239 1099 239 1140 184 c 128,-1,70
 1181 129 1181 129 1253 129 c 128,-1,71
 1325 129 1325 129 1364.5 184 c 128,-1,72
 1404 239 1404 239 1404 338.5 c 128,-1,73
 1404 438 1404 438 1364.5 495 c 128,-1,74
 1325 552 1325 552 1253 552 c 128,-1,67
 1181 552 1181 552 1140 495 c 128,-1,68
1155 1360 m 1,75,-1
 1322 1360 l 1,76,-1
 535 0 l 1,77,-1
 368 0 l 1,78,-1
 1155 1360 l 1,75,-1
EndSplineSet
EndChar

StartChar: fraction
Encoding: 8260 8260 124
Width: 1024
Flags: HW
LayerCount: 2
Fore
SplineSet
822 1360 m 1,0,-1
 989 1360 l 1,1,-1
 202 0 l 1,2,-1
 35 0 l 1,3,-1
 822 1360 l 1,0,-1
EndSplineSet
EndChar

StartChar: zero
Encoding: 48 48 125
Width: 1365
Flags: HW
LayerCount: 2
Fore
SplineSet
124 670 m 256,0,1
 124 997.865 124 997.865 278 1181 c 0,2,3
 428.523 1360 428.523 1360 690 1360 c 0,4,5
 947.028 1360 947.028 1360 1094.5 1181 c 0,6,7
 1246 997.11 1246 997.11 1246 670 c 256,8,9
 1246 342.8 1246 342.8 1094.5 161 c 0,10,11
 947 -16 947 -16 690 -16 c 0,12,13
 428.552 -16 428.552 -16 278 161 c 0,14,15
 124 342.054 124 342.054 124 670 c 256,0,1
688.5 136 m 0,16,17
 791 136 791 136 858 178 c 128,-1,18
 925 220 925 220 964.5 292.5 c 0,19,20
 1036 423.734 1036 423.734 1036 669 c 0,21,22
 1036 1052.59 1036 1052.59 858 1165.5 c 0,23,24
 791 1208 791 1208 690 1208 c 256,25,26
 500.993 1208 500.993 1208 411.5 1049.5 c 0,27,28
 334 912.241 334 912.241 334 671 c 0,29,30
 334 136 334 136 688.5 136 c 0,16,17
EndSplineSet
EndChar

StartChar: one
Encoding: 49 49 126
Width: 852
Flags: HW
LayerCount: 2
Fore
SplineSet
487 1085 m 1,0,-1
 128 840 l 1,1,-1
 128 1042 l 1,2,-1
 575 1360 l 1,3,-1
 686 1360 l 1,4,-1
 686 0 l 1,5,-1
 487 0 l 1,6,-1
 487 1085 l 1,0,-1
EndSplineSet
EndChar

StartChar: two
Encoding: 50 50 127
Width: 1195
Flags: HW
LayerCount: 2
Fore
SplineSet
170 1332 m 1,0,1
 345 1360 345 1360 476.5 1360 c 128,-1,2
 608 1360 608 1360 699.5 1341 c 128,-1,3
 791 1322 791 1322 854.5 1290.5 c 128,-1,4
 918 1259 918 1259 957 1219 c 128,-1,5
 996 1179 996 1179 1017 1136.5 c 0,6,7
 1052 1065.67 1052 1065.67 1052 989.833 c 128,-1,8
 1052 914 1052 914 1029.5 851.5 c 128,-1,9
 1007 789 1007 789 965 725 c 128,-1,10
 923 661 923 661 862.5 592 c 1,11,-1
 726 442 l 1,12,-1
 466 176 l 1,13,-1
 1051 176 l 1,14,-1
 1051 0 l 1,15,-1
 136 0 l 1,16,-1
 136 92 l 1,17,-1
 559 521 l 1,18,-1
 693.5 664 l 1,19,20
 806.739 788.461 806.739 788.461 836 873.5 c 0,21,22
 852 920 852 920 852 961.5 c 128,-1,23
 852 1003 852 1003 840 1040 c 128,-1,24
 828 1077 828 1077 789 1108.5 c 0,25,26
 698 1182 698 1182 501.2 1182 c 128,-1,27
 304.4 1182 304.4 1182 170 1140 c 1,28,-1
 170 1332 l 1,0,1
EndSplineSet
EndChar

StartChar: three
Encoding: 51 51 128
Width: 1195
Flags: HW
LayerCount: 2
Fore
SplineSet
768 23.5 m 128,-1,1
 656 -9 656 -9 452.667 -9 c 128,-1,2
 249.333 -9 249.333 -9 141 17 c 1,3,-1
 141 206 l 1,4,5
 260.429 168 260.429 168 477.214 168 c 128,-1,6
 694 168 694 168 785.5 230.5 c 128,-1,7
 877 293 877 293 877 405 c 128,-1,8
 877 517.028 877 517.028 778.5 569.5 c 0,9,10
 670.561 627 670.561 627 416 627 c 2,11,-1
 316 627 l 1,12,-1
 316 707 l 1,13,-1
 715 1184 l 1,14,-1
 170 1184 l 1,15,-1
 170 1360 l 1,16,-1
 1039 1360 l 1,17,-1
 1039 1280 l 1,18,-1
 620 798 l 1,19,-1
 620 795 l 1,20,21
 1025.04 769.146 1025.04 769.146 1077.5 494.5 c 0,22,23
 1086 450 1086 450 1086 384.5 c 128,-1,24
 1086 319 1086 319 1053.5 244 c 128,-1,25
 1021 169 1021 169 950.5 112.5 c 128,-1,0
 880 56 880 56 768 23.5 c 128,-1,1
EndSplineSet
EndChar

StartChar: four
Encoding: 52 52 129
Width: 1195
Flags: HW
LayerCount: 2
Fore
SplineSet
57 408 m 1,0,-1
 612 1360 l 1,1,-1
 848 1360 l 1,2,-1
 340 509 l 1,3,-1
 819 509 l 1,4,-1
 819 787 l 1,5,-1
 1021 787 l 1,6,-1
 1021 509 l 1,7,-1
 1135 509 l 1,8,-1
 1135 333 l 1,9,-1
 1021 333 l 1,10,-1
 1021 0 l 1,11,-1
 819 0 l 1,12,-1
 819 333 l 1,13,-1
 57 333 l 1,14,-1
 57 408 l 1,0,-1
EndSplineSet
EndChar

StartChar: five
Encoding: 53 53 130
Width: 1195
Flags: HW
LayerCount: 2
Fore
SplineSet
141 211 m 1,0,1
 276.714 173 276.714 173 470.857 173 c 128,-1,2
 665 173 665 173 764.5 235.5 c 128,-1,3
 864 298 864 298 864 435 c 0,4,5
 864 559.538 864 559.538 780.5 617 c 0,6,7
 683.141 684 683.141 684 457 684 c 2,8,-1
 178 684 l 1,9,-1
 178 1356 l 1,10,-1
 999 1356 l 1,11,-1
 999 1168 l 1,12,-1
 370 1168 l 1,13,-1
 370 852 l 1,14,-1
 487 852 l 2,15,16
 789.647 852 789.647 852 928 754 c 0,17,18
 1070 653.417 1070 653.417 1070 431 c 0,19,20
 1070 235.628 1070 235.628 928.5 119.5 c 0,21,22
 771.924 -9 771.924 -9 470 -9 c 0,23,24
 249.333 -9 249.333 -9 141 17 c 1,25,-1
 141 211 l 1,0,1
EndSplineSet
EndChar

StartChar: six
Encoding: 54 54 131
Width: 1365
Flags: HW
LayerCount: 2
Fore
SplineSet
1094 1155 m 1,0,1
 998 1185 998 1185 861 1185 c 128,-1,2
 724 1185 724 1185 630 1150.5 c 128,-1,3
 536 1116 536 1116 474 1054.5 c 0,4,5
 352 933.484 352 933.484 352 724 c 1,6,7
 467.709 809.08 467.709 809.08 628.5 839.5 c 0,8,9
 684 850 684 850 766 850 c 128,-1,10
 848 850 848 850 935.5 822.5 c 128,-1,11
 1023 795 1023 795 1085.5 741.5 c 0,12,13
 1217 628.936 1217 628.936 1217 424 c 0,14,15
 1217 211.24 1217 211.24 1050 91 c 0,16,17
 901.389 -16 901.389 -16 694 -16 c 0,18,19
 429.293 -16 429.293 -16 288 157.5 c 0,20,21
 152 324.5 152 324.5 152 620 c 2,22,-1
 152 681 l 2,23,24
 152 988.88 152 988.88 346 1175.5 c 0,25,26
 537.797 1360 537.797 1360 853 1360 c 2,27,-1
 914 1360 l 2,28,29
 1033.5 1360 1033.5 1360 1094 1349 c 1,30,-1
 1094 1155 l 1,0,1
354 573 m 1,31,32
 354 273.159 354 273.159 543 171.5 c 0,33,34
 609 136 609 136 689 136 c 128,-1,35
 769 136 769 136 827.5 154.5 c 128,-1,36
 886 173 886 173 929.5 208.5 c 0,37,38
 1023 284.805 1023 284.805 1023 414 c 128,-1,39
 1023 543.024 1023 543.024 935 619.5 c 128,-1,40
 846.973 696 846.973 696 697 696 c 0,41,42
 542.302 696 542.302 696 408 613.5 c 0,43,44
 373 592 373 592 354 573 c 1,31,32
EndSplineSet
EndChar

StartChar: seven
Encoding: 55 55 132
Width: 1195
Flags: HW
LayerCount: 2
Fore
SplineSet
862 1183 m 1,0,-1
 105 1183 l 1,1,-1
 105 1359 l 1,2,-1
 1127 1359 l 1,3,-1
 1127 1279 l 1,4,-1
 471 0 l 1,5,-1
 241 0 l 1,6,-1
 862 1183 l 1,0,-1
EndSplineSet
EndChar

StartChar: eight
Encoding: 56 56 134
Width: 1365
Flags: HW
LayerCount: 2
Fore
SplineSet
194.5 214 m 128,-1,1
 159 286 159 286 159 349 c 128,-1,2
 159 412 159 412 172.5 456.5 c 128,-1,3
 186 501 186 501 214.5 546 c 0,4,5
 279.139 648.062 279.139 648.062 396 700 c 1,6,-1
 396 703 l 1,7,8
 263.143 772.75 263.143 772.75 214 912.5 c 0,9,10
 198 958 198 958 198 1000 c 128,-1,11
 198 1042 198 1042 209 1084 c 128,-1,12
 220 1126 220 1126 243.5 1166 c 128,-1,13
 267 1206 267 1206 305 1243 c 128,-1,14
 343 1280 343 1280 396.5 1308 c 0,15,16
 513.054 1369 513.054 1369 681 1369 c 0,17,18
 1005.28 1369 1005.28 1369 1122 1166 c 0,19,20
 1166 1089.48 1166 1089.48 1166 1023.74 c 128,-1,21
 1166 958 1166 958 1150 912.5 c 128,-1,22
 1134 867 1134 867 1107 827.5 c 0,23,24
 1052.07 747.135 1052.07 747.135 968 703 c 1,25,-1
 968 700 l 1,26,27
 1084.86 648.062 1084.86 648.062 1149.5 546 c 0,28,29
 1205 458.368 1205 458.368 1205 372.184 c 128,-1,30
 1205 286 1205 286 1169.5 214 c 128,-1,31
 1134 142 1134 142 1066.5 91 c 0,32,33
 924.882 -16 924.882 -16 682 -16 c 256,34,35
 439.118 -16 439.118 -16 297.5 91 c 0,36,0
 230 142 230 142 194.5 214 c 128,-1,1
681.5 770 m 0,37,38
 744 770 744 770 796.5 788.5 c 128,-1,39
 849 807 849 807 886 838.5 c 0,40,41
 964 904.905 964 904.905 964 1005 c 0,42,43
 964 1145.36 964 1145.36 813.5 1196 c 0,44,45
 760 1214 760 1214 683 1214 c 256,46,47
 538.881 1214 538.881 1214 464.5 1148.5 c 0,48,49
 401 1092.58 401 1092.58 401 1005 c 0,50,51
 401 904.905 401 904.905 479 838.5 c 0,52,53
 559.46 770 559.46 770 681.5 770 c 0,37,38
361 367 m 0,54,55
 361 313 361 313 388.5 268 c 128,-1,56
 416 223 416 223 461 193.5 c 0,57,58
 551.763 134 551.763 134 681 134 c 0,59,60
 893.611 134 893.611 134 975.5 268 c 0,61,62
 1003 313 1003 313 1003 367 c 128,-1,63
 1003 421 1003 421 985 464.5 c 128,-1,64
 967 508 967 508 928 542 c 0,65,66
 843.118 616 843.118 616 682 616 c 128,-1,67
 520.882 616 520.882 616 436 542 c 0,68,69
 361 476.615 361 476.615 361 367 c 0,54,55
EndSplineSet
EndChar

StartChar: R
Encoding: 82 82 135
Width: 1195
Flags: HW
LayerCount: 2
Fore
SplineSet
170 1392 m 1,0,-1
 565 1392 l 2,1,2
 959.876 1392 959.876 1392 1073.5 1157.5 c 0,3,4
 1115 1071.85 1115 1071.85 1115 964.426 c 128,-1,5
 1115 857 1115 857 1086.5 783 c 128,-1,6
 1058 709 1058 709 1007 656 c 0,7,8
 908.643 553.786 908.643 553.786 737 522 c 1,9,10
 807.714 303.122 807.714 303.122 978 219.5 c 0,11,12
 1034 192 1034 192 1071.5 190.5 c 0,13,14
 1135.7 187.932 1135.7 187.932 1162 194 c 1,15,-1
 1162 0 l 1,16,-1
 1117 0 l 2,17,18
 892.385 0 892.385 0 734 159.5 c 0,19,20
 595.318 299.159 595.318 299.159 547 510 c 1,21,-1
 370 510 l 1,22,-1
 370 0 l 1,23,-1
 170 0 l 1,24,-1
 170 1392 l 1,0,-1
552 670 m 2,25,26
 733 670 733 670 820 740 c 128,-1,27
 907 810 907 810 907 958 c 0,28,29
 907 1154.81 907 1154.81 724 1212 c 0,30,31
 660 1232 660 1232 569 1232 c 2,32,-1
 370 1232 l 1,33,-1
 370 670 l 1,34,-1
 552 670 l 2,25,26
EndSplineSet
EndChar

StartChar: ordfeminine
Encoding: 170 170 136
Width: 1023
Flags: HW
LayerCount: 2
Fore
SplineSet
540 515.5 m 0,0,1
 499 503 499 503 446.5 503 c 128,-1,2
 394 503 394 503 334.5 524 c 128,-1,3
 275 545 275 545 225 592 c 0,4,5
 109 701.04 109 701.04 109 903 c 0,6,7
 109 1132.78 109 1132.78 266 1259.5 c 0,8,9
 401.664 1369 401.664 1369 596 1369 c 0,10,11
 716 1369 716 1369 769 1363 c 2,12,-1
 850 1354 l 1,13,-1
 850 510 l 1,14,-1
 699 510 l 1,15,-1
 692 621 l 1,16,17
 640.543 546.153 640.543 546.153 540 515.5 c 0,0,1
679 1217 m 1,18,19
 641.667 1225 641.667 1225 580.833 1225 c 128,-1,20
 520 1225 520 1225 465.5 1206.5 c 128,-1,21
 411 1188 411 1188 371.5 1148.5 c 0,22,23
 289 1066 289 1066 289 903 c 0,24,25
 289 761 289 761 358 692 c 0,26,27
 411 639 411 639 487 639 c 0,28,29
 614.412 639 614.412 639 679 761 c 1,30,-1
 679 1217 l 1,18,19
EndSplineSet
EndChar

StartChar: ordmasculine
Encoding: 186 186 137
Width: 1025
Flags: HW
LayerCount: 2
Fore
SplineSet
510.5 503 m 0,0,1
 426 503 426 503 351.5 531 c 128,-1,2
 277 559 277 559 222 613.5 c 0,3,4
 103 731.418 103 731.418 103 935 c 0,5,6
 103 1139 103 1139 222 1258 c 0,7,8
 333 1369 333 1369 510 1369 c 0,9,10
 686.491 1369 686.491 1369 798.5 1258 c 0,11,12
 918 1139.58 918 1139.58 918 935 c 0,13,14
 918 730.847 918 730.847 798.5 613.5 c 0,15,16
 685.972 503 685.972 503 510.5 503 c 0,0,1
404.5 665.5 m 0,17,18
 448 641 448 641 510.5 641 c 128,-1,19
 573 641 573 641 616.5 665.5 c 128,-1,20
 660 690 660 690 687.5 730.5 c 0,21,22
 740 807.818 740 807.818 740 935 c 256,23,24
 740 1134.14 740 1134.14 613 1206.5 c 0,25,26
 570 1231 570 1231 509 1231 c 128,-1,27
 448 1231 448 1231 404.5 1206.5 c 128,-1,28
 361 1182 361 1182 333.5 1141.5 c 0,29,30
 281 1064.18 281 1064.18 281 935 c 256,31,32
 281 735.057 281 735.057 404.5 665.5 c 0,17,18
EndSplineSet
EndChar

StartChar: notequal
Encoding: 8800 8800 138
Width: 1194
Flags: HW
LayerCount: 2
Fore
SplineSet
360 346 m 1,0,-1
 125 346 l 1,1,-1
 125 500 l 1,2,-1
 449 500 l 1,3,-1
 560 692 l 1,4,-1
 125 692 l 1,5,-1
 125 846 l 1,6,-1
 649 846 l 1,7,-1
 849 1190 l 1,8,-1
 1011 1190 l 1,9,-1
 811 846 l 1,10,-1
 1068 846 l 1,11,-1
 1068 692 l 1,12,-1
 722 692 l 1,13,-1
 611 500 l 1,14,-1
 1068 500 l 1,15,-1
 1068 346 l 1,16,-1
 522 346 l 1,17,-1
 322 0 l 1,18,-1
 160 0 l 1,19,-1
 360 346 l 1,0,-1
EndSplineSet
EndChar

StartChar: numbersign
Encoding: 35 35 139
Width: 1534
Flags: HW
LayerCount: 2
Fore
SplineSet
356 340 m 1,0,-1
 122 340 l 1,1,-1
 122 488 l 1,2,-1
 384 488 l 1,3,-1
 456 872 l 1,4,-1
 210 872 l 1,5,-1
 210 1020 l 1,6,-1
 484 1020 l 1,7,-1
 548 1360 l 1,8,-1
 710 1360 l 1,9,-1
 646 1020 l 1,10,-1
 992 1020 l 1,11,-1
 1056 1360 l 1,12,-1
 1218 1360 l 1,13,-1
 1153 1020 l 1,14,-1
 1386 1020 l 1,15,-1
 1386 872 l 1,16,-1
 1125 872 l 1,17,-1
 1053 488 l 1,18,-1
 1300 488 l 1,19,-1
 1300 340 l 1,20,-1
 1025 340 l 1,21,-1
 961 0 l 1,22,-1
 799 0 l 1,23,-1
 863 340 l 1,24,-1
 518 340 l 1,25,-1
 454 0 l 1,26,-1
 292 0 l 1,27,-1
 356 340 l 1,0,-1
891 488 m 1,28,-1
 964 872 l 1,29,-1
 618 872 l 1,30,-1
 546 488 l 1,31,-1
 891 488 l 1,28,-1
EndSplineSet
EndChar

StartChar: acute.cap
Encoding: 65540 -1 140
Width: 682
Flags: HW
LayerCount: 2
Fore
SplineSet
353 1897 m 1,0,-1
 587 1897 l 1,1,-1
 299 1530 l 1,2,-1
 121 1530 l 1,3,-1
 353 1897 l 1,0,-1
EndSplineSet
EndChar

StartChar: circumflex.cap
Encoding: 65541 -1 168
Width: 682
Flags: HW
LayerCount: 2
Fore
SplineSet
16 1745 m 1,0,-1
 340 1975 l 1,1,-1
 664 1745 l 1,2,-1
 664 1553 l 1,3,-1
 340 1767 l 1,4,-1
 16 1553 l 1,5,-1
 16 1745 l 1,0,-1
EndSplineSet
EndChar

StartChar: dieresis.cap
Encoding: 65542 -1 169
Width: 853
Flags: HW
LayerCount: 2
Fore
SplineSet
746 1587 m 128,-1,1
 710 1558 710 1558 657 1558 c 128,-1,2
 604 1558 604 1558 569.5 1587 c 128,-1,3
 535 1616 535 1616 535 1671 c 128,-1,4
 535 1726 535 1726 569.5 1754 c 128,-1,5
 604 1782 604 1782 657 1782 c 128,-1,6
 710 1782 710 1782 746 1754 c 128,-1,7
 782 1726 782 1726 782 1671 c 128,-1,0
 782 1616 782 1616 746 1587 c 128,-1,1
281 1587 m 128,-1,9
 245 1558 245 1558 192 1558 c 128,-1,10
 139 1558 139 1558 104.5 1587 c 128,-1,11
 70 1616 70 1616 70 1671 c 128,-1,12
 70 1726 70 1726 104.5 1754 c 128,-1,13
 139 1782 139 1782 192 1782 c 128,-1,14
 245 1782 245 1782 281 1754 c 128,-1,15
 317 1726 317 1726 317 1671 c 128,-1,8
 317 1616 317 1616 281 1587 c 128,-1,9
EndSplineSet
EndChar

StartChar: caron.cap
Encoding: 65543 -1 170
Width: 682
Flags: HW
LayerCount: 2
Fore
SplineSet
16 1783 m 1,0,-1
 16 1975 l 1,1,-1
 340 1761 l 1,2,-1
 664 1975 l 1,3,-1
 664 1783 l 1,4,-1
 340 1553 l 1,5,-1
 16 1783 l 1,0,-1
EndSplineSet
EndChar

StartChar: ring.cap
Encoding: 65544 -1 171
Width: 682
Flags: HW
LayerCount: 2
Fore
SplineSet
340.5 1503 m 0,0,1
 283 1503 283 1503 233 1524 c 128,-1,2
 183 1545 183 1545 145.5 1581 c 0,3,4
 65 1658.28 65 1658.28 65 1771 c 256,5,6
 65 1883.15 65 1883.15 145.5 1961.5 c 128,-1,7
 226.151 2040 226.151 2040 341 2040 c 128,-1,8
 455.849 2040 455.849 2040 536.5 1961.5 c 0,9,10
 618 1882.17 618 1882.17 618 1771 c 256,11,12
 618 1659.24 618 1659.24 536.5 1581 c 0,13,14
 455.25 1503 455.25 1503 340.5 1503 c 0,0,1
341 1615 m 256,15,16
 402.571 1615 402.571 1615 446.5 1660 c 0,17,18
 490 1704.56 490 1704.56 490 1771 c 256,19,20
 490 1873.37 490 1873.37 399 1915.5 c 0,21,22
 372 1928 372 1928 341 1928 c 256,23,24
 279.81 1928 279.81 1928 236 1882 c 0,25,26
 193 1836.85 193 1836.85 193 1771 c 256,27,28
 193 1705.15 193 1705.15 236 1660 c 128,-1,29
 278.857 1615 278.857 1615 341 1615 c 256,15,16
EndSplineSet
EndChar

StartChar: tilde.cap
Encoding: 65545 -1 172
Width: 682
Flags: HW
LayerCount: 2
Fore
SplineSet
-75 1602 m 1,0,1
 -75 1715.11 -75 1715.11 -6 1789.5 c 0,2,3
 62.1739 1863 62.1739 1863 161 1863 c 0,4,5
 241.179 1863 241.179 1863 329 1794.5 c 1,6,-1
 413 1730.5 l 2,7,8
 473.8 1683 473.8 1683 514.9 1683 c 128,-1,9
 556 1683 556 1683 580.5 1710 c 128,-1,10
 605 1737 605 1737 605 1790 c 1,11,-1
 757 1790 l 1,12,13
 757 1676.89 757 1676.89 688 1602.5 c 0,14,15
 619.826 1529 619.826 1529 521 1529 c 0,16,17
 429.588 1529 429.588 1529 311 1625 c 2,18,-1
 269.5 1658.5 l 1,19,20
 209.226 1709 209.226 1709 167.613 1709 c 128,-1,21
 126 1709 126 1709 101.5 1682 c 128,-1,22
 77 1655 77 1655 77 1602 c 1,23,-1
 -75 1602 l 1,0,1
EndSplineSet
EndChar

StartChar: macron.cap
Encoding: 65546 -1 173
Width: 682
Flags: HW
LayerCount: 2
Fore
SplineSet
70 1682 m 1,0,-1
 612 1682 l 1,1,-1
 612 1530 l 1,2,-1
 70 1530 l 1,3,-1
 70 1682 l 1,0,-1
EndSplineSet
EndChar

StartChar: hungarumlaut.cap
Encoding: 65547 -1 174
Width: 682
Flags: HW
LayerCount: 2
Fore
SplineSet
683 1897 m 1,0,-1
 909 1897 l 1,1,-1
 621 1530 l 1,2,-1
 451 1530 l 1,3,-1
 683 1897 l 1,0,-1
257 1897 m 1,4,-1
 483 1897 l 1,5,-1
 195 1530 l 1,6,-1
 25 1530 l 1,7,-1
 257 1897 l 1,4,-1
EndSplineSet
EndChar

StartChar: breve.cap
Encoding: 65548 -1 175
Width: 682
Flags: HW
LayerCount: 2
Fore
SplineSet
340 1530 m 256,0,1
 201.146 1530 201.146 1530 103.5 1625.5 c 0,2,3
 5 1721.84 5 1721.84 5 1857 c 1,4,-1
 165 1857 l 1,5,6
 165 1776 165 1776 216 1725 c 128,-1,7
 267 1674 267 1674 340 1674 c 256,8,9
 413 1674 413 1674 464 1725 c 128,-1,10
 515 1776 515 1776 515 1857 c 1,11,-1
 675 1857 l 1,12,13
 675 1721.84 675 1721.84 576.5 1625.5 c 0,14,15
 478.854 1530 478.854 1530 340 1530 c 256,0,1
EndSplineSet
EndChar

StartChar: dotaccent.cap
Encoding: 65549 -1 176
Width: 512
Flags: HW
LayerCount: 2
Fore
SplineSet
429 1587 m 128,-1,1
 393 1558 393 1558 340 1558 c 128,-1,2
 287 1558 287 1558 252.5 1587 c 128,-1,3
 218 1616 218 1616 218 1671 c 128,-1,4
 218 1726 218 1726 252.5 1754 c 128,-1,5
 287 1782 287 1782 340 1782 c 128,-1,6
 393 1782 393 1782 429 1754 c 128,-1,7
 465 1726 465 1726 465 1671 c 128,-1,0
 465 1616 465 1616 429 1587 c 128,-1,1
EndSplineSet
EndChar

StartChar: currency
Encoding: 164 164 182
Width: 1195
Flags: HW
LayerCount: 2
Fore
SplineSet
594 179 m 256,0,1
 481.407 179 481.407 179 386 235 c 1,2,-1
 151 0 l 1,3,-1
 20 131 l 1,4,-1
 252 362 l 1,5,6
 183 466.545 183 466.545 183 594 c 128,-1,7
 183 721.455 183 721.455 252 826 c 1,8,-1
 21 1058 l 1,9,-1
 152 1190 l 1,10,-1
 388 954 l 1,11,12
 484.923 1010 484.923 1010 594 1010 c 256,13,14
 704.889 1010 704.889 1010 802 953 c 1,15,-1
 1039 1189 l 1,16,-1
 1170 1059 l 1,17,-1
 938 825 l 1,18,19
 1007 717.188 1007 717.188 1007 593.624 c 128,-1,20
 1007 470.061 1007 470.061 937 364 c 1,21,-1
 1170 132 l 1,22,-1
 1038 1 l 1,23,-1
 802 235 l 1,24,25
 706.593 179 706.593 179 594 179 c 256,0,1
326 594.5 m 0,26,27
 326 540 326 540 347.5 492 c 128,-1,28
 369 444 369 444 405.5 408 c 0,29,30
 483.569 331 483.569 331 595 331 c 0,31,32
 705.861 331 705.861 331 785 408 c 128,-1,33
 864 484.865 864 484.865 864 595 c 256,34,35
 864 705.703 864 705.703 785 781.5 c 0,36,37
 705.268 858 705.268 858 595 858 c 0,38,39
 484.139 858 484.139 858 405 781 c 128,-1,40
 326 704.135 326 704.135 326 594.5 c 0,26,27
EndSplineSet
EndChar

StartChar: dollar
Encoding: 36 36 183
Width: 1195
Flags: HW
LayerCount: 2
Fore
SplineSet
519 0 m 1,0,1
 292.667 0 292.667 0 170 16 c 1,2,-1
 170 210 l 1,3,4
 296 175 296 175 533 175 c 0,5,6
 850 175 850 175 850 321 c 0,7,8
 850 380.656 850 380.656 788.5 423 c 0,9,10
 740.389 456.126 740.389 456.126 606 509 c 2,11,-1
 484 557 l 2,12,13
 332.024 615.976 332.024 615.976 261 687 c 0,14,15
 171 777 171 777 171 917 c 0,16,17
 171 1092.18 171 1092.18 362.5 1175.5 c 0,18,19
 428 1204 428 1204 519 1216 c 1,20,-1
 519 1530 l 1,21,-1
 671 1530 l 1,22,-1
 671 1224 l 1,23,24
 801.875 1222.77 801.875 1222.77 993 1206 c 1,25,-1
 993 1012 l 1,26,27
 815.4 1049 815.4 1049 688.2 1049 c 128,-1,28
 561 1049 561 1049 508 1036.5 c 128,-1,29
 455 1024 455 1024 424.5 1003.5 c 0,30,31
 370 966.869 370 966.869 370 911.434 c 128,-1,32
 370 856 370 856 415 816 c 128,-1,33
 460 776 460 776 561 735 c 2,34,-1
 698 679 l 2,35,36
 872.623 608.207 872.623 608.207 933.812 554.103 c 128,-1,37
 995 500 995 500 1022 443.5 c 128,-1,38
 1049 387 1049 387 1049 321.5 c 128,-1,39
 1049 256 1049 256 1027 206.5 c 128,-1,40
 1005 157 1005 157 959 117 c 0,41,42
 859.995 30.9084 859.995 30.9084 671 8 c 1,43,-1
 671 -340 l 1,44,-1
 519 -340 l 1,45,-1
 519 0 l 1,0,1
EndSplineSet
EndChar

StartChar: cent
Encoding: 162 162 184
Width: 1024
Flags: HW
LayerCount: 2
Fore
SplineSet
932 18 m 1,0,1
 857 2.68221e-07 857 2.68221e-07 680 0 c 2,2,-1
 679 0 l 1,3,-1
 679 -340 l 1,4,-1
 527 -340 l 1,5,-1
 527 12 l 1,6,7
 215.492 67.5163 215.492 67.5163 128 331.5 c 0,8,9
 99 419 99 419 99 524.5 c 128,-1,10
 99 630 99 630 132.5 711.5 c 128,-1,11
 166 793 166 793 224.5 853.5 c 0,12,13
 338.94 971.852 338.94 971.852 527 1012 c 1,14,-1
 527 1360 l 1,15,-1
 679 1360 l 1,16,-1
 679 1030 l 1,17,-1
 700 1031 l 1,18,19
 850.667 1031 850.667 1031 924 1021 c 1,20,-1
 924 843 l 1,21,22
 848.4 870 848.4 870 720.2 870 c 128,-1,23
 592 870 592 870 516 842 c 128,-1,24
 440 814 440 814 392 766.5 c 0,25,26
 300 675.458 300 675.458 300 528 c 0,27,28
 300 276.615 300 276.615 511 192.5 c 0,29,30
 585 163 585 163 718.833 163 c 128,-1,31
 852.667 163 852.667 163 932 197 c 1,32,-1
 932 18 l 1,0,1
EndSplineSet
EndChar

StartChar: sterling
Encoding: 163 163 185
Width: 1195
Flags: HW
LayerCount: 2
Fore
SplineSet
1029 1041 m 1,0,1
 936.375 1060 936.375 1060 830.188 1060 c 128,-1,2
 724 1060 724 1060 664.5 1031 c 128,-1,3
 605 1002 605 1002 574.5 954.5 c 0,4,5
 528 882.082 528 882.082 528 724 c 2,6,-1
 528 680 l 1,7,-1
 868 680 l 1,8,-1
 868 528 l 1,9,-1
 526 528 l 1,10,11
 512.099 355.623 512.099 355.623 414 233 c 0,12,13
 386 198 386 198 357 174 c 1,14,-1
 357 170 l 1,15,-1
 1060 170 l 1,16,-1
 1060 0 l 1,17,-1
 56 0 l 1,18,-1
 56 170 l 1,19,20
 174.241 170 174.241 170 250 254.5 c 0,21,22
 336 350.423 336 350.423 336 528 c 1,23,-1
 82 528 l 1,24,-1
 82 680 l 1,25,-1
 336 680 l 1,26,-1
 336 720 l 2,27,28
 336 1107.91 336 1107.91 633.5 1204 c 0,29,30
 714 1230 714 1230 800.5 1230 c 0,31,32
 946 1230 946 1230 1028 1220 c 1,33,-1
 1029 1041 l 1,0,1
EndSplineSet
EndChar

StartChar: Euro
Encoding: 8364 8364 186
Width: 1195
Flags: HW
LayerCount: 2
Fore
SplineSet
1142 14 m 1,0,1
 1050.33 -7.99999 1050.33 -7.99999 901.667 -8 c 128,-1,2
 753 -8 753 -8 650.5 14 c 128,-1,3
 548 36 548 36 463 81 c 0,4,5
 286.162 174.62 286.162 174.62 214 356 c 1,6,-1
 0 356 l 1,7,-1
 65 510 l 1,8,-1
 176 510 l 1,9,10
 170 558 170 558 170 601.5 c 128,-1,11
 170 645 170 645 173 680 c 1,12,-1
 0 680 l 1,13,-1
 65 833 l 1,14,-1
 204 833 l 1,15,16
 269.958 1026.99 269.958 1026.99 449 1132.5 c 0,17,18
 617.849 1232 617.849 1232 842 1232 c 0,19,20
 1007.71 1232 1007.71 1232 1102 1217 c 1,21,-1
 1102 1027 l 1,22,23
 1006 1057 1006 1057 841.5 1057 c 0,24,25
 514.926 1057 514.926 1057 405 833 c 1,26,-1
 994 833 l 1,27,-1
 928 680 l 1,28,-1
 362 680 l 1,29,30
 358 646 358 646 358 597.2 c 128,-1,31
 358 548.4 358 548.4 366 510 c 1,32,-1
 850 510 l 1,33,-1
 784 356 l 1,34,-1
 427 356 l 1,35,36
 551 170 551 170 868 170 c 0,37,38
 988.857 170 988.857 170 1057.43 186 c 128,-1,39
 1126 202 1126 202 1142 209 c 1,40,-1
 1142 14 l 1,0,1
EndSplineSet
EndChar

StartChar: yen
Encoding: 165 165 187
Width: 1195
Flags: HW
LayerCount: 2
Fore
SplineSet
122 324 m 1,0,-1
 499 324 l 1,1,-1
 499 486 l 1,2,-1
 122 486 l 1,3,-1
 122 640 l 1,4,-1
 499 640 l 1,5,-1
 -16 1232 l 1,6,-1
 207 1232 l 1,7,-1
 595 798 l 1,8,-1
 986 1232 l 1,9,-1
 1206 1232 l 1,10,-1
 691 640 l 1,11,-1
 1068 640 l 1,12,-1
 1068 486 l 1,13,-1
 691 486 l 1,14,-1
 691 324 l 1,15,-1
 1068 324 l 1,16,-1
 1068 170 l 1,17,-1
 691 170 l 1,18,-1
 691 0 l 1,19,-1
 499 0 l 1,20,-1
 499 170 l 1,21,-1
 122 170 l 1,22,-1
 122 324 l 1,0,-1
EndSplineSet
EndChar

StartChar: germandbls
Encoding: 223 223 188
Width: 1190
Flags: HW
LayerCount: 2
Fore
SplineSet
509 179 m 1,0,1
 625.846 148 625.846 148 708.423 148 c 128,-1,2
 791 148 791 148 835 163.5 c 128,-1,3
 879 179 879 179 902.5 202.5 c 0,4,5
 940 240 940 240 940 301 c 0,6,7
 940 403.077 940 403.077 812 472 c 2,8,-1
 723 520 l 1,9,10
 595.563 586.959 595.563 586.959 559.281 626.479 c 128,-1,11
 523 666 523 666 509.5 705 c 128,-1,12
 496 744 496 744 496 793.5 c 128,-1,13
 496 843 496 843 514 875 c 128,-1,14
 532 907 532 907 562 933.5 c 128,-1,15
 592 960 592 960 630.5 984.5 c 2,16,-1
 710 1037 l 2,17,18
 799.703 1096.8 799.703 1096.8 823.5 1147.5 c 0,19,20
 835 1172 835 1172 835 1196 c 128,-1,21
 835 1220 835 1220 826 1245 c 128,-1,22
 817 1270 817 1270 794 1292 c 0,23,24
 738.591 1345 738.591 1345 624 1345 c 0,25,26
 500.118 1345 500.118 1345 437 1287 c 0,27,28
 356 1212.57 356 1212.57 356 1033 c 2,29,-1
 356 0 l 1,30,-1
 156 0 l 1,31,-1
 156 1034 l 2,32,33
 156 1368.61 156 1368.61 414.5 1465 c 0,34,35
 503 1498 503 1498 616.5 1498 c 128,-1,36
 730 1498 730 1498 805 1473 c 128,-1,37
 880 1448 880 1448 928.5 1406.5 c 0,38,39
 1022 1326.49 1022 1326.49 1022 1202 c 0,40,41
 1022 1052.07 1022 1052.07 885 953.5 c 1,42,-1
 798 893 l 1,43,44
 752 863 752 863 724 841.5 c 128,-1,45
 696 820 696 820 696 801 c 128,-1,46
 696 782 696 782 699 771 c 128,-1,47
 702 760 702 760 711 749 c 0,48,49
 730.068 725.695 730.068 725.695 786 694 c 2,50,-1
 881 639 l 2,51,52
 1020.07 559.204 1020.07 559.204 1065.04 509.102 c 0,53,54
 1148 416.657 1148 416.657 1148 301 c 0,55,56
 1148 169.476 1148 169.476 1048.5 83.5 c 0,57,58
 933.348 -16 933.348 -16 717 -16 c 0,59,60
 637.25 -16 637.25 -16 509 2 c 1,61,-1
 509 179 l 1,0,1
EndSplineSet
EndChar

StartChar: eth
Encoding: 240 240 189
Width: 1198
Flags: HW
LayerCount: 2
Fore
SplineSet
856 1267 m 1,0,1
 1103 989.667 1103 989.667 1103 566 c 0,2,3
 1103 308.526 1103 308.526 963.5 147 c 0,4,5
 822.727 -16 822.727 -16 601 -16 c 0,6,7
 392.393 -16 392.393 -16 251 109 c 0,8,9
 100 242.493 100 242.493 100 458 c 0,10,11
 100 672.375 100 672.375 251 804.5 c 0,12,13
 388.714 925 388.714 925 583 925 c 0,14,15
 734.5 925 734.5 925 833.5 859 c 0,16,17
 871 834 871 834 897 797 c 1,18,-1
 901 797 l 1,19,20
 861.959 1022.37 861.959 1022.37 687 1195 c 1,21,-1
 418 1080 l 1,22,-1
 371 1224 l 1,23,-1
 555 1303 l 1,24,25
 443.15 1380.67 443.15 1380.67 293 1443 c 1,26,-1
 470 1530 l 1,27,28
 626.084 1467.13 626.084 1467.13 735 1380 c 1,29,-1
 1004 1495 l 1,30,-1
 1051 1350 l 1,31,-1
 856 1267 l 1,0,1
308 459.5 m 0,32,33
 308 399 308 399 325 341.5 c 128,-1,34
 342 284 342 284 377.5 239 c 0,35,36
 456.389 139 456.389 139 601 139 c 0,37,38
 752.01 139 752.01 139 835 248.5 c 0,39,40
 903 338.222 903 338.222 903 459 c 0,41,42
 903 585.41 903 585.41 824 671.5 c 0,43,44
 739.118 764 739.118 764 601 764 c 0,45,46
 458 764 458 764 380 673 c 0,47,48
 308 589 308 589 308 459.5 c 0,32,33
EndSplineSet
EndChar

StartChar: oe
Encoding: 339 339 190
Width: 1700
Flags: HW
LayerCount: 2
Fore
SplineSet
1304 -16 m 0,0,1
 1006.35 -16 1006.35 -16 881 170 c 1,2,3
 819 79 819 79 728 31.5 c 128,-1,4
 637 -16 637 -16 538 -16 c 128,-1,5
 439 -16 439 -16 355.5 20.5 c 128,-1,6
 272 57 272 57 209 125.5 c 0,7,8
 71 275.548 71 275.548 71 518 c 256,9,10
 71 761.504 71 761.504 209.5 912 c 0,11,12
 339.261 1053 339.261 1053 532 1053 c 0,13,14
 758.362 1053 758.362 1053 885 861 c 1,15,16
 1008.42 1048 1008.42 1048 1225 1048 c 0,17,18
 1420.52 1048 1420.52 1048 1528.5 916.5 c 0,19,20
 1628 795.327 1628 795.327 1628 587 c 2,21,-1
 1628 509 l 1,22,-1
 981 509 l 1,23,24
 981 225.1 981 225.1 1188 163 c 0,25,26
 1238 148 1238 148 1349.55 148 c 128,-1,27
 1461.09 148 1461.09 148 1571 179 c 1,28,-1
 1571 10 l 1,29,30
 1461.22 -16 1461.22 -16 1304 -16 c 0,0,1
413 170.5 m 0,31,32
 461 138 461 138 530.5 138 c 128,-1,33
 600 138 600 138 648.5 170.5 c 128,-1,34
 697 203 697 203 727 256.5 c 0,35,36
 785 359.933 785 359.933 785 518 c 256,37,38
 785 675.869 785 675.869 724.5 781 c 0,39,40
 656.594 899 656.594 899 532 899 c 0,41,42
 406.406 899 406.406 899 338.5 781 c 0,43,44
 279 677.607 279 677.607 279 518 c 256,45,46
 279 261.229 279 261.229 413 170.5 c 0,31,32
1428 656 m 1,47,48
 1428 814.048 1428 814.048 1311.5 873 c 0,49,50
 1270 894 1270 894 1214.5 894 c 128,-1,51
 1159 894 1159 894 1116 874 c 128,-1,52
 1073 854 1073 854 1043 821 c 0,53,54
 981 752.8 981 752.8 981 656 c 1,55,-1
 1428 656 l 1,47,48
EndSplineSet
EndChar

StartChar: ae
Encoding: 230 230 191
Width: 1703
Flags: HW
LayerCount: 2
Fore
SplineSet
1269 -15 m 0,0,1
 975.711 -15 975.711 -15 852 185 c 1,2,3
 787 85 787 85 690 35 c 128,-1,4
 593 -15 593 -15 446 -15 c 0,5,6
 320.981 -15 320.981 -15 218.5 58 c 0,7,8
 92 148.11 92 148.11 92 323 c 0,9,10
 92 497.608 92 497.608 267 584 c 0,11,12
 414.872 657 414.872 657 652 657 c 2,13,-1
 768 657 l 1,14,-1
 768 701 l 2,15,16
 768 786 768 786 705.5 837.5 c 128,-1,17
 643 889 643 889 509 889 c 0,18,19
 343.462 889 343.462 889 239.5 863.5 c 0,20,21
 213 857 213 857 188 852 c 1,22,-1
 188 1011 l 1,23,24
 336 1048 336 1048 532 1048 c 0,25,26
 804.5 1048 804.5 1048 892 908 c 1,27,28
 989.911 1008.88 989.911 1008.88 1135.5 1039 c 0,29,30
 1179 1048 1179 1048 1248 1048 c 128,-1,31
 1317 1048 1317 1048 1390 1016 c 128,-1,32
 1463 984 1463 984 1512 924.5 c 0,33,34
 1611 804.286 1611 804.286 1611 588 c 2,35,-1
 1611 510 l 1,36,-1
 956 510 l 1,37,38
 956 255.393 956 255.393 1115 178.5 c 0,39,40
 1176 149 1176 149 1311.05 149 c 128,-1,41
 1446.09 149 1446.09 149 1556 180 c 1,42,-1
 1556 11 l 1,43,44
 1446.22 -15 1446.22 -15 1269 -15 c 0,0,1
1411 657 m 1,45,46
 1411 824.403 1411 824.403 1298.5 877 c 0,47,48
 1260 895 1260 895 1207 895 c 256,49,50
 1103.21 895 1103.21 895 1028 822 c 0,51,52
 956 752.118 956 752.118 956 657 c 1,53,-1
 1411 657 l 1,45,46
861 871 m 2,54,-1
 862 873 l 2,55,56
 861 873 861 873 861 871 c 2,54,-1
318.5 414 m 128,-1,58
 292 378 292 378 292 324.5 c 128,-1,59
 292 271 292 271 309.5 236 c 128,-1,60
 327 201 327 201 355 179.5 c 0,61,62
 407.744 139 407.744 139 469.872 139 c 128,-1,63
 532 139 532 139 585.5 154.5 c 128,-1,64
 639 170 639 170 683.5 204 c 0,65,66
 785 281.551 785 281.551 785 426 c 2,67,-1
 785 509 l 1,68,-1
 652 509 l 2,69,70
 479.857 509 479.857 509 412.429 479.5 c 128,-1,57
 345 450 345 450 318.5 414 c 128,-1,58
EndSplineSet
EndChar

StartChar: Eth
Encoding: 208 208 192
Width: 1366
Flags: HW
LayerCount: 2
Fore
SplineSet
154 666 m 1,0,-1
 29 666 l 1,1,-1
 29 820 l 1,2,-1
 154 820 l 1,3,-1
 154 1391 l 1,4,-1
 492 1391 l 2,5,6
 834.468 1391 834.468 1391 1034.5 1222.5 c 0,7,8
 1250 1040.97 1250 1040.97 1250 694 c 256,9,10
 1250 346.824 1250 346.824 1039.5 167 c 0,11,12
 844.012 1.3313e-05 844.012 1.3313e-05 502 0 c 2,13,-1
 154 0 l 1,14,-1
 154 666 l 1,0,-1
1045 693 m 0,15,16
 1045 1230 1045 1230 479 1230 c 2,17,-1
 354 1230 l 1,18,-1
 354 820 l 1,19,-1
 709 820 l 1,20,-1
 709 666 l 1,21,-1
 354 666 l 1,22,-1
 354 160 l 1,23,-1
 490 160 l 2,24,25
 921.909 160 921.909 160 1015.5 472.5 c 0,26,27
 1045 571 1045 571 1045 693 c 0,15,16
EndSplineSet
EndChar

StartChar: Thorn
Encoding: 222 222 193
Width: 1195
Flags: HW
LayerCount: 2
Fore
SplineSet
170 1392 m 1,0,-1
 370 1392 l 1,1,-1
 370 1162 l 1,2,-1
 563 1162 l 2,3,4
 957.876 1162 957.876 1162 1071.5 927.5 c 0,5,6
 1113 841.851 1113 841.851 1113 723.926 c 128,-1,7
 1113 606 1113 606 1071 522 c 128,-1,8
 1029 438 1029 438 957.5 384 c 0,9,10
 819.796 280 819.796 280 589 280 c 2,11,-1
 368 280 l 1,12,-1
 370 0 l 1,13,-1
 170 0 l 1,14,-1
 170 1392 l 1,0,-1
550 440 m 2,15,16
 731 440 731 440 818 510 c 128,-1,17
 905 580 905 580 905 728 c 0,18,19
 905 924.812 905 924.812 722 982 c 0,20,21
 658 1002 658 1002 567 1002 c 2,22,-1
 368 1002 l 1,23,-1
 368 440 l 1,24,-1
 550 440 l 2,15,16
EndSplineSet
EndChar

StartChar: AE
Encoding: 198 198 194
Width: 1872
Flags: HW
LayerCount: 2
Fore
SplineSet
923 1392 m 1,0,-1
 1755 1392 l 1,1,-1
 1755 1218 l 1,2,-1
 1189 1218 l 1,3,-1
 1189 808 l 1,4,-1
 1585 808 l 1,5,-1
 1585 640 l 1,6,-1
 1189 640 l 1,7,-1
 1189 176 l 1,8,-1
 1755 176 l 1,9,-1
 1755 0 l 1,10,-1
 989 0 l 1,11,-1
 989 350 l 1,12,-1
 468 350 l 1,13,-1
 244 0 l 1,14,-1
 20 0 l 1,15,-1
 923 1392 l 1,0,-1
989 510 m 1,16,-1
 989 1165 l 1,17,-1
 570 510 l 1,18,-1
 989 510 l 1,16,-1
EndSplineSet
EndChar

StartChar: OE
Encoding: 338 338 195
Width: 1702
Flags: HW
LayerCount: 2
Fore
SplineSet
109 693.5 m 0,0,1
 109 857 109 857 165 986.5 c 128,-1,2
 221 1116 221 1116 320 1206 c 0,3,4
 524.6 1392 524.6 1392 851 1392 c 2,5,-1
 1617 1392 l 1,6,-1
 1617 1218 l 1,7,-1
 1051 1218 l 1,8,-1
 1051 808 l 1,9,-1
 1447 808 l 1,10,-1
 1447 640 l 1,11,-1
 1051 640 l 1,12,-1
 1051 176 l 1,13,-1
 1617 176 l 1,14,-1
 1617 0 l 1,15,-1
 851 0 l 2,16,17
 522.978 0 522.978 0 320 183.5 c 0,18,19
 109 374.253 109 374.253 109 693.5 c 0,0,1
309 695 m 256,20,21
 309 468.254 309 468.254 440 326.5 c 0,22,23
 586.476 168 586.476 168 851 168 c 1,24,-1
 851 1223 l 1,25,26
 572.4 1223 572.4 1223 430.5 1063.5 c 0,27,28
 309 926.93 309 926.93 309 695 c 256,20,21
EndSplineSet
EndChar

StartChar: approxequal
Encoding: 8776 8776 197
Width: 1194
Flags: HW
LayerCount: 2
Fore
SplineSet
116 729 m 1,0,1
 116 859.094 116 859.094 182 938.5 c 0,2,3
 249.74 1020 249.74 1020 362 1020 c 0,4,5
 428.714 1020 428.714 1020 481.357 998 c 128,-1,6
 534 976 534 976 569 957.5 c 2,7,-1
 701 888 l 1,8,9
 778.539 846 778.539 846 825.269 846 c 128,-1,10
 872 846 872 846 899.5 875.5 c 128,-1,11
 927 905 927 905 927 963 c 1,12,-1
 1079 963 l 1,13,14
 1079 788.923 1079 788.923 935.5 708.5 c 0,15,16
 890 683 890 683 833 672 c 1,17,18
 764.667 672 764.667 672 713.333 693 c 128,-1,19
 662 714 662 714 627.5 732 c 2,20,-1
 497.5 803 l 1,21,22
 422.25 846 422.25 846 372.625 846 c 0,23,24
 268 846 268 846 268 729 c 1,25,-1
 116 729 l 1,0,1
116 339 m 1,26,27
 116 469.094 116 469.094 182 548.5 c 0,28,29
 249.74 630 249.74 630 362 630 c 0,30,31
 428.714 630 428.714 630 481.357 608 c 128,-1,32
 534 586 534 586 569 567.5 c 2,33,-1
 701 498 l 1,34,35
 778.538 456 778.538 456 825.269 456 c 128,-1,36
 872 456 872 456 899.5 485.5 c 128,-1,37
 927 515 927 515 927 573 c 1,38,-1
 1079 573 l 1,39,40
 1079 398.923 1079 398.923 935.5 318.5 c 0,41,42
 890 293 890 293 833 282 c 1,43,44
 764.667 282 764.667 282 713.333 303 c 128,-1,45
 662 324 662 324 627.5 342 c 2,46,-1
 497.5 413 l 1,47,48
 422.25 456 422.25 456 372.625 456 c 0,49,50
 268 456 268 456 268 339 c 1,51,-1
 116 339 l 1,26,27
EndSplineSet
EndChar

StartChar: asciitilde
Encoding: 126 126 198
Width: 1195
Flags: HW
LayerCount: 2
Fore
SplineSet
20 551 m 1,0,1
 20 702.475 20 702.475 107 796 c 0,2,3
 188.86 884 188.86 884 316 884 c 0,4,5
 401.444 884 401.444 884 458.222 856 c 128,-1,6
 515 828 515 828 552.5 803.5 c 2,7,-1
 634 751 l 2,8,9
 662 733 662 733 690.5 711.5 c 128,-1,10
 719 690 719 690 749 672 c 0,11,12
 819 630 819 630 863.5 630 c 128,-1,13
 908 630 908 630 933 644 c 128,-1,14
 958 658 958 658 976 682.5 c 0,15,16
 1014 734.222 1014 734.222 1014 811 c 1,17,-1
 1174 811 l 1,18,19
 1174 657.938 1174 657.938 1087 565.5 c 0,20,21
 1004.65 478 1004.65 478 878 478 c 0,22,23
 795.378 478 795.378 478 733.189 507.5 c 128,-1,24
 671 537 671 537 633.5 561 c 2,25,-1
 485.5 659 l 1,26,27
 377.659 732 377.659 732 316 732 c 0,28,29
 256.571 732 256.571 732 218 679.5 c 0,30,31
 180 627.778 180 627.778 180 551 c 1,32,-1
 20 551 l 1,0,1
EndSplineSet
EndChar

StartChar: infinity
Encoding: 8734 8734 203
Width: 2054
Flags: HW
LayerCount: 2
Fore
SplineSet
705.5 289 m 128,-1,1
 644 262 644 262 567 262 c 128,-1,2
 490 262 490 262 428.5 285 c 128,-1,3
 367 308 367 308 322.5 345 c 128,-1,4
 278 382 278 382 250 429 c 128,-1,5
 222 476 222 476 205.5 523 c 0,6,7
 176 607.03 176 607.03 176 665.515 c 128,-1,8
 176 724 176 724 182.5 769.5 c 128,-1,9
 189 815 189 815 205.5 862 c 128,-1,10
 222 909 222 909 250 954 c 128,-1,11
 278 999 278 999 322.5 1034 c 0,12,13
 420.4 1111 420.4 1111 573 1111 c 0,14,15
 744.188 1111 744.188 1111 920.5 929 c 0,16,17
 967 881 967 881 1005 838 c 1,18,-1
 1005 839 l 1,19,-1
 1033 808 l 1,20,-1
 1141 928.5 l 1,21,22
 1310.33 1111 1310.33 1111 1481 1111 c 0,23,24
 1763.23 1111 1763.23 1111 1848 862 c 0,25,26
 1877 776.812 1877 776.812 1877 716.406 c 128,-1,27
 1877 656 1877 656 1870.5 612.5 c 128,-1,28
 1864 569 1864 569 1848 521.5 c 128,-1,29
 1832 474 1832 474 1803.5 428 c 128,-1,30
 1775 382 1775 382 1731 345 c 0,31,32
 1632.3 262 1632.3 262 1481 262 c 0,33,34
 1302.91 262 1302.91 262 1124.5 450 c 0,35,36
 1078 499 1078 499 1041 542 c 1,37,-1
 1022 563 l 1,38,39
 1017 557 1017 557 1011.5 551.5 c 128,-1,40
 1006 546 1006 546 985 521 c 128,-1,41
 964 496 964 496 919 447.5 c 128,-1,42
 874 399 874 399 820.5 357.5 c 128,-1,0
 767 316 767 316 705.5 289 c 128,-1,1
1176 649 m 1,43,44
 1361.5 437 1361.5 437 1481 437 c 0,45,46
 1627.57 437 1627.57 437 1673 596 c 0,47,48
 1687 645 1687 645 1687 674 c 128,-1,49
 1687 703 1687 703 1684 728 c 128,-1,50
 1681 753 1681 753 1673 781 c 128,-1,51
 1665 809 1665 809 1651 836.5 c 128,-1,52
 1637 864 1637 864 1614 886 c 0,53,54
 1561.73 936 1561.73 936 1481 936 c 0,55,56
 1382.67 936 1382.67 936 1237 798 c 0,57,58
 1199 762 1199 762 1171 729 c 2,59,-1
 1139 692 l 1,60,-1
 1176 649 l 1,43,44
495.5 451.5 m 128,-1,62
 528 437 528 437 570 437 c 128,-1,63
 612 437 612 437 655 457.5 c 128,-1,64
 698 478 698 478 740 509.5 c 0,65,66
 806.781 559.585 806.781 559.585 886 647 c 0,67,68
 894 655 894 655 900.5 663.5 c 128,-1,69
 907 672 907 672 914 680 c 1,70,-1
 872 729 l 1,71,72
 690.091 936 690.091 936 573 936 c 0,73,74
 424.364 936 424.364 936 380 783.5 c 0,75,76
 366 735.375 366 735.375 366 703.688 c 128,-1,77
 366 672 366 672 369 648 c 128,-1,78
 372 624 372 624 380 596 c 128,-1,79
 388 568 388 568 402.5 540 c 128,-1,80
 417 512 417 512 440 489 c 128,-1,61
 463 466 463 466 495.5 451.5 c 128,-1,62
EndSplineSet
EndChar

StartChar: Omega
Encoding: 937 937 204
AltUni2: 002126.ffffffff.0
Width: 1706
Flags: HW
LayerCount: 2
Fore
SplineSet
173 170 m 1,0,-1
 459 170 l 1,1,2
 282.484 333.194 282.484 333.194 226.5 560 c 0,3,4
 207 639 207 639 207 726 c 0,5,6
 207 1035.54 207 1035.54 404 1220.5 c 0,7,8
 587.728 1393 587.728 1393 853 1393 c 256,9,10
 1118.27 1393 1118.27 1393 1302 1220.5 c 0,11,12
 1499 1035.54 1499 1035.54 1499 726 c 0,13,14
 1499 403.906 1499 403.906 1246 170 c 1,15,-1
 1533 170 l 1,16,-1
 1533 0 l 1,17,-1
 968 0 l 1,18,-1
 968 92 l 1,19,20
 1234.13 315.209 1234.13 315.209 1290.5 562 c 0,21,22
 1309 643 1309 643 1309 736.5 c 128,-1,23
 1309 830 1309 830 1278.5 920.5 c 128,-1,24
 1248 1011 1248 1011 1189.5 1078.5 c 0,25,26
 1062.53 1225 1062.53 1225 853 1225 c 256,27,28
 643.467 1225 643.467 1225 516.5 1078.5 c 0,29,30
 397 940.615 397 940.615 397 727 c 0,31,32
 397 463.785 397 463.785 580 247 c 0,33,34
 645 170 645 170 738 92 c 1,35,-1
 738 0 l 1,36,-1
 173 0 l 1,37,-1
 173 170 l 1,0,-1
EndSplineSet
EndChar

StartChar: partialdiff
Encoding: 8706 8706 205
Width: 1194
Flags: HW
LayerCount: 2
Fore
SplineSet
247 1341 m 1,0,1
 365.75 1360 365.75 1360 488.375 1360 c 128,-1,2
 611 1360 611 1360 712 1325.5 c 128,-1,3
 813 1291 813 1291 882 1234.5 c 128,-1,4
 951 1178 951 1178 993 1105.5 c 128,-1,5
 1035 1033 1035 1033 1057.5 957.5 c 0,6,7
 1094 835.022 1094 835.022 1094 691.511 c 0,8,9
 1094 399.267 1094 399.267 1010 235 c 0,10,11
 949 117 949 117 841.5 50.5 c 128,-1,12
 734 -16 734 -16 614.5 -16 c 128,-1,13
 495 -16 495 -16 406.5 15.5 c 128,-1,14
 318 47 318 47 252 107.5 c 0,15,16
 109 238.583 109 238.583 109 458 c 0,17,18
 109 674.891 109 674.891 249.5 804.5 c 0,19,20
 380.126 925 380.126 925 576 925 c 0,21,22
 820.784 925 820.784 925 922 747 c 1,23,-1
 926 747 l 1,24,25
 926 924.167 926 924.167 824 1046 c 0,26,27
 703.442 1190 703.442 1190 470 1190 c 0,28,29
 410.636 1190 410.636 1190 336.818 1176 c 128,-1,30
 263 1162 263 1162 247 1157 c 1,31,-1
 247 1341 l 1,0,1
309 458.5 m 0,32,33
 309 398 309 398 327 340.5 c 128,-1,34
 345 283 345 283 381 238 c 0,35,36
 461 138 461 138 602 138 c 0,37,38
 752.621 138 752.621 138 831 247.5 c 0,39,40
 894 335.515 894 335.515 894 458 c 0,41,42
 894 596.462 894 596.462 815 678.5 c 0,43,44
 733.63 763 733.63 763 592 763 c 256,45,46
 455.417 763 455.417 763 378.5 672 c 0,47,48
 309 589.775 309 589.775 309 458.5 c 0,32,33
EndSplineSet
EndChar

StartChar: summation
Encoding: 8721 8721 206
Width: 1196
Flags: HW
LayerCount: 2
Fore
SplineSet
604 510 m 1,0,-1
 85 1246 l 1,1,-1
 85 1360 l 1,2,-1
 1104 1360 l 1,3,-1
 1104 1205 l 1,4,-1
 316 1205 l 1,5,-1
 810 510 l 1,6,-1
 316 -185 l 1,7,-1
 1104 -185 l 1,8,-1
 1104 -340 l 1,9,-1
 85 -340 l 1,10,-1
 85 -226 l 1,11,-1
 604 510 l 1,0,-1
EndSplineSet
EndChar

StartChar: product
Encoding: 8719 8719 207
Width: 1706
Flags: HW
LayerCount: 2
Fore
SplineSet
343 1224 m 1,0,-1
 203 1224 l 1,1,-1
 203 1392 l 1,2,-1
 1502 1392 l 1,3,-1
 1502 1224 l 1,4,-1
 1362 1224 l 1,5,-1
 1362 -340 l 1,6,-1
 1186 -340 l 1,7,-1
 1186 1224 l 1,8,-1
 519 1224 l 1,9,-1
 519 -340 l 1,10,-1
 343 -340 l 1,11,-1
 343 1224 l 1,0,-1
EndSplineSet
EndChar

StartChar: pi
Encoding: 960 960 208
Width: 1365
Flags: HW
LayerCount: 2
Fore
SplineSet
1225 0 m 1,0,1
 1165 -6 1165 -6 1153 -6 c 0,2,3
 967.646 -6 967.646 -6 896 120.5 c 0,4,5
 844 212.312 844 212.312 844 390 c 2,6,-1
 844 864 l 1,7,-1
 362 864 l 1,8,-1
 362 1 l 1,9,-1
 186 1 l 1,10,-1
 186 864 l 1,11,-1
 46 864 l 1,12,-1
 46 1032 l 1,13,-1
 1225 1032 l 1,14,-1
 1225 864 l 1,15,-1
 1020 864 l 1,16,-1
 1020 391 l 2,17,18
 1020 192.759 1020 192.759 1104 158 c 0,19,20
 1133 146 1133 146 1165.5 146 c 128,-1,21
 1198 146 1198 146 1225 154 c 1,22,-1
 1225 0 l 1,0,1
EndSplineSet
EndChar

StartChar: integral
Encoding: 8747 8747 209
Width: 852
Flags: HW
LayerCount: 2
Fore
SplineSet
79 -354 m 1,0,1
 119.8 -366 119.8 -366 170.4 -366 c 128,-1,2
 221 -366 221 -366 252.5 -354 c 128,-1,3
 284 -342 284 -342 302.5 -319 c 0,4,5
 335 -278.595 335 -278.595 335 -185 c 2,6,-1
 335 1137 l 2,7,8
 335 1249.82 335 1249.82 348.5 1298.91 c 128,-1,9
 362 1348 362 1348 383.5 1383 c 128,-1,10
 405 1418 405 1418 442.5 1444 c 0,11,12
 521.827 1499 521.827 1499 673 1499 c 0,13,14
 731.8 1499 731.8 1499 767 1491 c 1,15,-1
 767 1333 l 1,16,17
 723.8 1345 723.8 1345 673.4 1345 c 128,-1,18
 623 1345 623 1345 591.5 1333 c 128,-1,19
 560 1321 560 1321 541.5 1298 c 0,20,21
 509 1257.59 509 1257.59 509 1164 c 2,22,-1
 509 -158 l 2,23,24
 509 -270.818 509 -270.818 495.5 -319.909 c 128,-1,25
 482 -369 482 -369 460.5 -404 c 128,-1,26
 439 -439 439 -439 401.5 -465 c 0,27,28
 322.173 -520 322.173 -520 171 -520 c 0,29,30
 111 -520 111 -520 79 -512 c 1,31,-1
 79 -354 l 1,0,1
EndSplineSet
EndChar

StartChar: radical
Encoding: 8730 8730 210
Width: 1361
Flags: HW
LayerCount: 2
Fore
SplineSet
100 850 m 1,0,-1
 444 850 l 1,1,-1
 745 26 l 1,2,-1
 1198 1498 l 1,3,-1
 1381 1498 l 1,4,-1
 831 -203 l 1,5,-1
 662 -203 l 1,6,-1
 325 682 l 1,7,-1
 100 682 l 1,8,-1
 100 850 l 1,0,-1
EndSplineSet
EndChar

StartChar: Delta
Encoding: 916 916 211
AltUni2: 002206.ffffffff.0
Width: 1537
Flags: HW
LayerCount: 2
Fore
SplineSet
196 100 m 1,0,-1
 708 1392 l 1,1,-1
 828 1392 l 1,2,-1
 1340 100 l 1,3,-1
 1340 0 l 1,4,-1
 196 0 l 1,5,-1
 196 100 l 1,0,-1
1131 162 m 1,6,-1
 796 1019 l 1,7,-1
 768 1108 l 1,8,-1
 740 1019 l 1,9,-1
 404 162 l 1,10,-1
 1131 162 l 1,6,-1
EndSplineSet
EndChar

StartChar: lozenge
Encoding: 9674 9674 212
Width: 1196
Flags: HW
LayerCount: 2
Fore
SplineSet
88 680 m 1,0,-1
 538 1360 l 1,1,-1
 658 1360 l 1,2,-1
 1108 681 l 1,3,-1
 658 0 l 1,4,-1
 538 0 l 1,5,-1
 88 680 l 1,0,-1
898 681 m 1,6,-1
 598 1145 l 1,7,-1
 298 680 l 1,8,-1
 598 215 l 1,9,-1
 898 681 l 1,6,-1
EndSplineSet
EndChar

StartChar: hbar
Encoding: 295 295 213
Width: 1197
Flags: HW
LayerCount: 2
Fore
SplineSet
619 879 m 0,0,1
 470.78 879 470.78 879 355 778 c 1,2,-1
 355 0 l 1,3,-1
 155 0 l 1,4,-1
 155 1173 l 1,5,-1
 28 1173 l 1,6,-1
 28 1309 l 1,7,-1
 155 1309 l 1,8,-1
 155 1440 l 1,9,-1
 355 1440 l 1,10,-1
 355 1309 l 1,11,-1
 676 1309 l 1,12,-1
 676 1173 l 1,13,-1
 355 1173 l 1,14,-1
 355 924 l 1,15,16
 517.169 1051 517.169 1051 690 1051 c 0,17,18
 874.522 1051 874.522 1051 961 940.5 c 0,19,20
 1051 825.5 1051 825.5 1051 567 c 2,21,-1
 1051 0 l 1,22,-1
 851 0 l 1,23,-1
 851 567 l 2,24,25
 851 814.837 851 814.837 716 863.5 c 0,26,27
 673 879 673 879 619 879 c 0,0,1
EndSplineSet
EndChar

StartChar: kgreenlandic
Encoding: 312 312 214
Width: 1024
Flags: HW
LayerCount: 2
Fore
SplineSet
170 1033 m 1,0,-1
 370 1033 l 1,1,-1
 370 570 l 1,2,-1
 788 1032 l 1,3,-1
 1026 1032 l 1,4,-1
 581 564 l 1,5,-1
 1049 0 l 1,6,-1
 805 0 l 1,7,-1
 370 526 l 1,8,-1
 370 0 l 1,9,-1
 170 0 l 1,10,-1
 170 1033 l 1,0,-1
EndSplineSet
EndChar

StartChar: florin
Encoding: 402 402 215
Width: 1022
Flags: HW
LayerCount: 2
Fore
SplineSet
34 -157 m 1,0,1
 70 -169 70 -169 132.5 -169 c 128,-1,2
 195 -169 195 -169 231.5 -157 c 128,-1,3
 268 -145 268 -145 290 -121.5 c 0,4,5
 326.639 -82.3634 326.639 -82.3634 342 12 c 2,6,-1
 472 851 l 1,7,-1
 299 851 l 1,8,-1
 299 1005 l 1,9,-1
 496 1005 l 1,10,11
 503 1047 503 1047 509.5 1090 c 128,-1,12
 516 1133 516 1133 530 1172.5 c 128,-1,13
 544 1212 544 1212 568 1246 c 128,-1,14
 592 1280 592 1280 633 1305 c 0,15,16
 721.56 1359 721.56 1359 885 1359 c 0,17,18
 951.8 1359 951.8 1359 987 1351 c 1,19,-1
 987 1193 l 1,20,21
 951 1205 951 1205 888.5 1205 c 128,-1,22
 826 1205 826 1205 789.5 1192.5 c 128,-1,23
 753 1180 753 1180 730.5 1157 c 0,24,25
 694.13 1119.82 694.13 1119.82 676 1005 c 1,26,-1
 867 1005 l 1,27,-1
 867 851 l 1,28,-1
 652 851 l 1,29,-1
 512.5 -47.5 l 2,30,31
 497.972 -144.728 497.972 -144.728 464.486 -192.864 c 128,-1,32
 431 -241 431 -241 390 -267 c 0,33,34
 301.692 -323 301.692 -323 136 -323 c 0,35,36
 69.2 -323 69.2 -323 34 -315 c 1,37,-1
 34 -157 l 1,0,1
EndSplineSet
EndChar

StartChar: dagger
Encoding: 8224 8224 216
Width: 854
Flags: HW
LayerCount: 2
Fore
SplineSet
351 874 m 1,0,-1
 51 850 l 1,1,-1
 51 1018 l 1,2,-1
 351 994 l 1,3,-1
 351 1360 l 1,4,-1
 503 1360 l 1,5,-1
 503 994 l 1,6,-1
 803 1018 l 1,7,-1
 803 850 l 1,8,-1
 503 874 l 1,9,-1
 503 0 l 1,10,-1
 351 0 l 1,11,-1
 351 874 l 1,0,-1
EndSplineSet
EndChar

StartChar: degree
Encoding: 176 176 217
Width: 852
Flags: HW
LayerCount: 2
Fore
SplineSet
425 706 m 256,0,1
 287.573 706 287.573 706 191 801.5 c 0,2,3
 94 897.422 94 897.422 94 1033 c 256,4,5
 94 1168.58 94 1168.58 191 1264.5 c 0,6,7
 287.573 1360 287.573 1360 425 1360 c 256,8,9
 562.427 1360 562.427 1360 659 1264.5 c 0,10,11
 756 1168.58 756 1168.58 756 1033 c 256,12,13
 756 897.422 756 897.422 659 801.5 c 0,14,15
 562.427 706 562.427 706 425 706 c 256,0,1
425 850 m 256,16,17
 498 850 498 850 551.5 903.5 c 0,18,19
 604 956 604 956 604 1033 c 256,20,21
 604 1110 604 1110 551.5 1162.5 c 0,22,23
 498 1216 498 1216 425 1216 c 256,24,25
 352 1216 352 1216 298.5 1162.5 c 0,26,27
 246 1110 246 1110 246 1033 c 256,28,29
 246 956 246 956 298.5 903.5 c 0,30,31
 352 850 352 850 425 850 c 256,16,17
EndSplineSet
EndChar

StartChar: copyright
Encoding: 169 169 218
Width: 1869
Flags: HW
LayerCount: 2
Fore
SplineSet
136 567 m 256,0,1
 136 782.99 136 782.99 245 968.5 c 0,2,3
 407.895 1245.74 407.895 1245.74 722 1333.5 c 0,4,5
 824 1362 824 1362 934 1362 c 256,6,7
 1149.5 1362 1149.5 1362 1337 1253.5 c 0,8,9
 1518.12 1148.69 1518.12 1148.69 1624 968.5 c 0,10,11
 1733 782.99 1733 782.99 1733 567 c 256,12,13
 1733 350.462 1733 350.462 1624 166 c 0,14,15
 1460.55 -110.612 1460.55 -110.612 1146 -198.5 c 0,16,17
 1044 -227 1044 -227 934 -227 c 256,18,19
 718.505 -227 718.505 -227 531 -118.5 c 0,20,21
 351.86 -14.8405 351.86 -14.8405 245 166 c 0,22,23
 136 350.462 136 350.462 136 567 c 256,0,1
288 567 m 256,24,25
 288 297.574 288 297.574 477 107.5 c 0,26,27
 565 19 565 19 682.5 -32 c 128,-1,28
 800 -83 800 -83 911.5 -83 c 128,-1,29
 1023 -83 1023 -83 1106 -60 c 128,-1,30
 1189 -37 1189 -37 1260.5 5.5 c 128,-1,31
 1332 48 1332 48 1391 107.5 c 128,-1,32
 1450 167 1450 167 1492.5 239 c 0,33,34
 1581 388.929 1581 388.929 1581 567 c 256,35,36
 1581 835.89 1581 835.89 1391 1027.5 c 0,37,38
 1272.01 1147.5 1272.01 1147.5 1106 1194.5 c 0,39,40
 1023 1218 1023 1218 911.5 1218 c 128,-1,41
 800 1218 800 1218 682.5 1167 c 128,-1,42
 565 1116 565 1116 477 1027.5 c 128,-1,43
 389 939 389 939 338.5 820.5 c 128,-1,44
 288 702 288 702 288 567 c 256,24,25
1191 148 m 1,45,46
 1124.71 132 1124.71 132 1010.36 132 c 128,-1,47
 896 132 896 132 807.5 162 c 128,-1,48
 719 192 719 192 654.5 249.5 c 0,49,50
 517 372.078 517 372.078 517 582 c 0,51,52
 517 783.036 517 783.036 672.5 900.5 c 0,53,54
 809.514 1004 809.514 1004 1014 1004 c 0,55,56
 1090 1004 1090 1004 1180 994 c 1,57,-1
 1180 842 l 1,58,59
 1100 862 1100 862 1021 862 c 128,-1,60
 942 862 942 862 881 842.5 c 128,-1,61
 820 823 820 823 778.5 786.5 c 0,62,63
 694 712.181 694 712.181 694 582 c 0,64,65
 694 448.975 694 448.975 772.5 366.5 c 0,66,67
 856.735 278 856.735 278 1011 278 c 0,68,69
 1126 278 1126 278 1191 304 c 1,70,-1
 1191 148 l 1,45,46
EndSplineSet
EndChar

StartChar: daggerdbl
Encoding: 8225 8225 219
Width: 854
Flags: HW
LayerCount: 2
Fore
SplineSet
51 508 m 1,0,-1
 351 484 l 1,1,-1
 351 874 l 1,2,-1
 51 850 l 1,3,-1
 51 1018 l 1,4,-1
 351 994 l 1,5,-1
 351 1360 l 1,6,-1
 503 1360 l 1,7,-1
 503 994 l 1,8,-1
 803 1018 l 1,9,-1
 803 850 l 1,10,-1
 503 874 l 1,11,-1
 503 484 l 1,12,-1
 803 508 l 1,13,-1
 803 340 l 1,14,-1
 503 364 l 1,15,-1
 503 0 l 1,16,-1
 351 0 l 1,17,-1
 351 364 l 1,18,-1
 51 340 l 1,19,-1
 51 508 l 1,0,-1
EndSplineSet
EndChar

StartChar: section
Encoding: 167 167 220
Width: 1023
Flags: HW
LayerCount: 2
Fore
SplineSet
614 -198.5 m 128,-1,1
 530 -224 530 -224 421.7 -224 c 128,-1,2
 313.4 -224 313.4 -224 195 -208 c 1,3,-1
 195 -25 l 1,4,5
 326.429 -48 326.429 -48 416.714 -48 c 128,-1,6
 507 -48 507 -48 556 -34.5 c 128,-1,7
 605 -21 605 -21 630.5 0 c 0,8,9
 670 32.5294 670 32.5294 670 92.2647 c 0,10,11
 670 211.07 670 211.07 520 266 c 1,12,-1
 357 329 l 2,13,14
 210.977 384.832 210.977 384.832 145.5 453 c 0,15,16
 70 531.603 70 531.603 70 651 c 0,17,18
 70 790.379 70 790.379 235.5 890 c 0,19,20
 287 921 287 921 349 945 c 1,21,22
 255.398 997.508 255.398 997.508 221.199 1039.75 c 0,23,24
 158 1117.82 158 1117.82 158 1194.91 c 128,-1,25
 158 1272 158 1272 185 1329.5 c 128,-1,26
 212 1387 212 1387 267 1430 c 0,27,28
 387.233 1524 387.233 1524 603 1524 c 0,29,30
 703.4 1524 703.4 1524 825 1508 c 1,31,-1
 825 1325 l 1,32,33
 693.571 1348 693.571 1348 603.286 1348 c 128,-1,34
 513 1348 513 1348 464 1332.5 c 128,-1,35
 415 1317 415 1317 389.5 1294 c 0,36,37
 350 1258.37 350 1258.37 350 1199.69 c 0,38,39
 350 1091.86 350 1091.86 500 1034 c 2,40,-1
 663 971 l 2,41,42
 809.023 915.168 809.023 915.168 874.5 847 c 0,43,44
 950 768.397 950 768.397 950 649 c 0,45,46
 950 509.558 950 509.558 783 410 c 0,47,48
 731 379 731 379 669 356 c 1,49,50
 761.921 305.114 761.921 305.114 797.461 262.057 c 0,51,52
 862 183.865 862 183.865 862 105.933 c 128,-1,53
 862 28 862 28 835 -29.5 c 128,-1,54
 808 -87 808 -87 753 -130 c 128,-1,0
 698 -173 698 -173 614 -198.5 c 128,-1,1
487 452 m 1,55,56
 624.5 463 624.5 463 701 526 c 0,57,58
 766 579.529 766 579.529 766 649 c 0,59,60
 766 710.686 766 710.686 732.5 744.843 c 0,61,62
 664.989 813.678 664.989 813.678 529 849 c 1,63,64
 393.183 836.152 393.183 836.152 318 773.5 c 0,65,66
 254 720.167 254 720.167 254 651 c 0,67,68
 254 553.923 254 553.923 369.5 493 c 0,69,70
 415 469 415 469 487 452 c 1,55,56
EndSplineSet
EndChar

StartChar: thorn
Encoding: 254 254 221
Width: 1192
Flags: HW
LayerCount: 2
Fore
SplineSet
370 933 m 1,0,1
 478.923 1051 478.923 1051 645 1051 c 0,2,3
 804.286 1051 804.286 1051 921 946.5 c 0,4,5
 1070 813.093 1070 813.093 1070 541 c 0,6,7
 1070 266.497 1070 266.497 876.5 115.5 c 0,8,9
 709.267 -15 709.267 -15 462 -15 c 2,10,-1
 412 -15 l 2,11,12
 388 -15 388 -15 368 -14 c 1,13,-1
 368 -385 l 1,14,-1
 168 -385 l 1,15,-1
 168 1498 l 1,16,-1
 370 1498 l 1,17,-1
 370 933 l 1,0,1
368 147 m 1,18,19
 396 139 396 139 478 139 c 128,-1,20
 560 139 560 139 632 162 c 128,-1,21
 704 185 704 185 755 234 c 0,22,23
 862 336.804 862 336.804 862 541 c 0,24,25
 862 790.368 862 790.368 716.5 869.5 c 0,26,27
 665.935 897 665.935 897 611.468 897 c 128,-1,28
 557 897 557 897 517 883 c 128,-1,29
 477 869 477 869 447 848.5 c 0,30,31
 390.418 809.835 390.418 809.835 368 765 c 1,32,-1
 368 147 l 1,18,19
EndSplineSet
EndChar

StartChar: onesuperior
Encoding: 185 185 222
Width: 683
Flags: HW
LayerCount: 2
Fore
SplineSet
306 1133 m 1,0,-1
 55 960 l 1,1,-1
 55 1140 l 1,2,-1
 373 1368 l 1,3,-1
 477 1368 l 1,4,-1
 477 509 l 1,5,-1
 306 509 l 1,6,-1
 306 1133 l 1,0,-1
EndSplineSet
EndChar

StartChar: twosuperior
Encoding: 178 178 223
Width: 853
Flags: HW
LayerCount: 2
Fore
SplineSet
115 1350 m 1,0,1
 195.75 1369 195.75 1369 297.875 1369 c 128,-1,2
 400 1369 400 1369 460.5 1356 c 128,-1,3
 521 1343 521 1343 565 1320.5 c 128,-1,4
 609 1298 609 1298 637 1269 c 128,-1,5
 665 1240 665 1240 681 1208.5 c 0,6,7
 710 1151.41 710 1151.41 710 1078.7 c 128,-1,8
 710 1006 710 1006 651.5 926.5 c 128,-1,9
 593 847 593 847 482 749 c 2,10,-1
 395 672 l 1,11,-1
 395 664 l 1,12,-1
 749 664 l 1,13,-1
 749 510 l 1,14,-1
 94 510 l 1,15,-1
 94 602 l 1,16,-1
 253 728 l 2,17,18
 490.969 917.293 490.969 917.293 520 1016 c 0,19,20
 530 1050 530 1050 530 1081 c 128,-1,21
 530 1112 530 1112 519.5 1137.5 c 128,-1,22
 509 1163 509 1163 484.5 1182.5 c 0,23,24
 431.103 1225 431.103 1225 318 1225 c 0,25,26
 249.182 1225 249.182 1225 188.091 1211 c 128,-1,27
 127 1197 127 1197 115 1192 c 1,28,-1
 115 1350 l 1,0,1
EndSplineSet
EndChar

StartChar: threesuperior
Encoding: 179 179 224
Width: 853
Flags: HW
LayerCount: 2
Fore
SplineSet
546.5 531.5 m 0,0,1
 467 510 467 510 333.667 510 c 128,-1,2
 200.333 510 200.333 510 92 536 c 1,3,-1
 92 692 l 1,4,5
 216.857 654 216.857 654 342.429 654 c 0,6,7
 596 654 596 654 596 775 c 0,8,9
 596 843.696 596 843.696 527.5 870.5 c 0,10,11
 464.889 895 464.889 895 313 895 c 2,12,-1
 231 895 l 1,13,-1
 231 975 l 1,14,-1
 470 1215 l 1,15,-1
 100 1215 l 1,16,-1
 100 1360 l 1,17,-1
 740 1360 l 1,18,-1
 740 1280 l 1,19,-1
 467 1018 l 1,20,-1
 467 1015 l 1,21,22
 775 993.142 775 993.142 775 775 c 0,23,24
 775 593.296 775 593.296 546.5 531.5 c 0,0,1
EndSplineSet
EndChar

StartChar: Eng
Encoding: 330 330 225
Width: 1365
Flags: HW
LayerCount: 2
Fore
SplineSet
153 1392 m 1,0,-1
 297 1392 l 1,1,-1
 1024 365 l 1,2,-1
 1013 509 l 1,3,-1
 1013 1392 l 1,4,-1
 1211 1392 l 1,5,-1
 1211 -20 l 2,6,7
 1211 -291.263 1211 -291.263 1040.5 -381 c 0,8,9
 974 -416 974 -416 868 -416 c 0,10,11
 851 -416 851 -416 833 -414 c 2,12,-1
 796 -410 l 1,13,-1
 796 -256 l 1,14,15
 823 -264 823 -264 857 -264 c 128,-1,16
 891 -264 891 -264 921.5 -252 c 128,-1,17
 952 -240 952 -240 972 -211.5 c 0,18,19
 1011 -155.925 1011 -155.925 1011 -19 c 2,20,-1
 1011 80 l 1,21,-1
 461 853 l 1,22,-1
 340 1027 l 1,23,-1
 351 853 l 1,24,-1
 351 0 l 1,25,-1
 153 0 l 1,26,-1
 153 1392 l 1,0,-1
EndSplineSet
EndChar

StartChar: eng
Encoding: 331 331 226
Width: 1195
Flags: HW
LayerCount: 2
Fore
SplineSet
620 879 m 0,0,1
 471.78 879 471.78 879 356 778 c 1,2,-1
 356 0 l 1,3,-1
 156 0 l 1,4,-1
 156 1032 l 1,5,-1
 336 1032 l 1,6,-1
 354 923 l 1,7,8
 469.327 1015.82 469.327 1015.82 612 1043 c 0,9,10
 654 1051 654 1051 718 1051 c 128,-1,11
 782 1051 782 1051 849.5 1024.5 c 128,-1,12
 917 998 917 998 962 940.5 c 0,13,14
 1052 825.5 1052 825.5 1052 567 c 2,15,-1
 1052 0 l 1,16,-1
 1051 0 l 1,17,-1
 1051 -22 l 2,18,19
 1051 -293.263 1051 -293.263 880.5 -383 c 0,20,21
 814 -418 814 -418 708 -418 c 0,22,23
 691 -418 691 -418 673 -416 c 2,24,-1
 636 -412 l 1,25,-1
 636 -258 l 1,26,27
 663 -266 663 -266 697 -266 c 128,-1,28
 731 -266 731 -266 761.5 -254 c 128,-1,29
 792 -242 792 -242 812 -213.5 c 0,30,31
 851 -157.925 851 -157.925 851 -21 c 2,32,-1
 851 340 l 1,33,-1
 852 340 l 1,34,-1
 852 567 l 2,35,36
 852 814.837 852 814.837 717 863.5 c 0,37,38
 674 879 674 879 620 879 c 0,0,1
EndSplineSet
EndChar

StartChar: Hbar
Encoding: 294 294 227
Width: 1366
Flags: HW
LayerCount: 2
Fore
SplineSet
154 1032 m 1,0,-1
 16 1032 l 1,1,-1
 16 1176 l 1,2,-1
 154 1176 l 1,3,-1
 154 1392 l 1,4,-1
 354 1392 l 1,5,-1
 354 1176 l 1,6,-1
 1012 1176 l 1,7,-1
 1012 1392 l 1,8,-1
 1212 1392 l 1,9,-1
 1212 1176 l 1,10,-1
 1360 1176 l 1,11,-1
 1360 1032 l 1,12,-1
 1212 1032 l 1,13,-1
 1212 0 l 1,14,-1
 1012 0 l 1,15,-1
 1012 666 l 1,16,-1
 354 666 l 1,17,-1
 354 0 l 1,18,-1
 154 0 l 1,19,-1
 154 1032 l 1,0,-1
1012 842 m 1,20,-1
 1012 1032 l 1,21,-1
 354 1032 l 1,22,-1
 354 842 l 1,23,-1
 1012 842 l 1,20,-1
EndSplineSet
EndChar

StartChar: Dcroat
Encoding: 272 272 228
Width: 1366
Flags: HW
LayerCount: 2
Fore
SplineSet
154 680 m 1,0,-1
 29 680 l 1,1,-1
 29 824 l 1,2,-1
 154 824 l 1,3,-1
 154 1391 l 1,4,-1
 492 1391 l 2,5,6
 834.468 1391 834.468 1391 1034.5 1222.5 c 0,7,8
 1250 1040.97 1250 1040.97 1250 694 c 256,9,10
 1250 346.824 1250 346.824 1039.5 167 c 0,11,12
 844.012 1.3313e-05 844.012 1.3313e-05 502 0 c 2,13,-1
 154 0 l 1,14,-1
 154 680 l 1,0,-1
1045 693 m 0,15,16
 1045 1230 1045 1230 479 1230 c 2,17,-1
 354 1230 l 1,18,-1
 354 824 l 1,19,-1
 709 824 l 1,20,-1
 709 680 l 1,21,-1
 354 680 l 1,22,-1
 354 160 l 1,23,-1
 490 160 l 2,24,25
 921.909 160 921.909 160 1015.5 472.5 c 0,26,27
 1045 571 1045 571 1045 693 c 0,15,16
EndSplineSet
EndChar

StartChar: onequarter
Encoding: 188 188 229
Width: 854
Flags: HW
LayerCount: 2
Fore
SplineSet
392 510 m 1,0,-1
 598 510 l 1,1,-1
 279 -7 l 1,2,-1
 507 -7 l 1,3,-1
 507 170 l 1,4,-1
 679 170 l 1,5,-1
 679 -7 l 1,6,-1
 783 -7 l 1,7,-1
 783 -144 l 1,8,-1
 679 -144 l 1,9,-1
 679 -341 l 1,10,-1
 507 -341 l 1,11,-1
 507 -144 l 1,12,-1
 54 -144 l 1,13,-1
 54 -69 l 1,14,-1
 392 510 l 1,0,-1
414 1303 m 1,15,-1
 163 1130 l 1,16,-1
 163 1310 l 1,17,-1
 481 1538 l 1,18,-1
 585 1538 l 1,19,-1
 585 679 l 1,20,-1
 414 679 l 1,21,-1
 414 1303 l 1,15,-1
EndSplineSet
EndChar

StartChar: threequarters
Encoding: 190 190 231
Width: 854
Flags: HW
LayerCount: 2
Fore
SplineSet
552.5 700.5 m 0,0,1
 473 679 473 679 339.667 679 c 128,-1,2
 206.333 679 206.333 679 98 705 c 1,3,-1
 98 861 l 1,4,5
 222.857 823 222.857 823 348.429 823 c 0,6,7
 602 823 602 823 602 944 c 0,8,9
 602 1012.7 602 1012.7 533.5 1039.5 c 0,10,11
 470.889 1064 470.889 1064 319 1064 c 2,12,-1
 237 1064 l 1,13,-1
 237 1144 l 1,14,-1
 476 1384 l 1,15,-1
 106 1384 l 1,16,-1
 106 1529 l 1,17,-1
 746 1529 l 1,18,-1
 746 1449 l 1,19,-1
 473 1187 l 1,20,-1
 473 1184 l 1,21,22
 781 1162.14 781 1162.14 781 944 c 0,23,24
 781 762.296 781 762.296 552.5 700.5 c 0,0,1
392 510 m 1,25,-1
 598 510 l 1,26,-1
 279 -7 l 1,27,-1
 507 -7 l 1,28,-1
 507 170 l 1,29,-1
 679 170 l 1,30,-1
 679 -7 l 1,31,-1
 783 -7 l 1,32,-1
 783 -144 l 1,33,-1
 679 -144 l 1,34,-1
 679 -341 l 1,35,-1
 507 -341 l 1,36,-1
 507 -144 l 1,37,-1
 54 -144 l 1,38,-1
 54 -69 l 1,39,-1
 392 510 l 1,25,-1
EndSplineSet
EndChar

StartChar: registered
Encoding: 174 174 232
Width: 1869
Flags: HW
LayerCount: 2
Fore
SplineSet
136 567 m 256,0,1
 136 782.99 136 782.99 245 968.5 c 0,2,3
 407.895 1245.74 407.895 1245.74 722 1333.5 c 0,4,5
 824 1362 824 1362 934 1362 c 256,6,7
 1149.5 1362 1149.5 1362 1337 1253.5 c 0,8,9
 1518.12 1148.69 1518.12 1148.69 1624 968.5 c 0,10,11
 1733 782.99 1733 782.99 1733 567 c 256,12,13
 1733 350.462 1733 350.462 1624 166 c 0,14,15
 1460.55 -110.612 1460.55 -110.612 1146 -198.5 c 0,16,17
 1044 -227 1044 -227 934 -227 c 256,18,19
 718.505 -227 718.505 -227 531 -118.5 c 0,20,21
 351.86 -14.8405 351.86 -14.8405 245 166 c 0,22,23
 136 350.462 136 350.462 136 567 c 256,0,1
288 567 m 256,24,25
 288 297.574 288 297.574 477 107.5 c 0,26,27
 565 19 565 19 682.5 -32 c 128,-1,28
 800 -83 800 -83 911.5 -83 c 128,-1,29
 1023 -83 1023 -83 1106 -60 c 128,-1,30
 1189 -37 1189 -37 1260.5 5.5 c 128,-1,31
 1332 48 1332 48 1391 107.5 c 128,-1,32
 1450 167 1450 167 1492.5 239 c 0,33,34
 1581 388.929 1581 388.929 1581 567 c 256,35,36
 1581 835.89 1581 835.89 1391 1027.5 c 0,37,38
 1272.01 1147.5 1272.01 1147.5 1106 1194.5 c 0,39,40
 1023 1218 1023 1218 911.5 1218 c 128,-1,41
 800 1218 800 1218 682.5 1167 c 128,-1,42
 565 1116 565 1116 477 1027.5 c 128,-1,43
 389 939 389 939 338.5 820.5 c 128,-1,44
 288 702 288 702 288 567 c 256,24,25
1014 479 m 1,45,46
 1078.32 309 1078.32 309 1250 309 c 2,47,-1
 1274 309 l 2,48,49
 1289 309 1289 309 1299 311 c 1,50,-1
 1299 168 l 1,51,-1
 1265 168 l 2,52,53
 1018.36 168 1018.36 168 912 363 c 0,54,55
 882 418 882 418 867 475 c 1,56,-1
 774 475 l 1,57,-1
 774 170 l 1,58,-1
 625 170 l 1,59,-1
 625 1020 l 1,60,-1
 890 1020 l 2,61,62
 1106.97 1020 1106.97 1020 1204 934 c 0,63,64
 1283 863.977 1283 863.977 1283 748.489 c 0,65,66
 1283 510.416 1283 510.416 1014 479 c 1,45,46
1131 745 m 0,67,68
 1131 886 1131 886 890 886 c 2,69,-1
 774 886 l 1,70,-1
 774 605 l 1,71,-1
 890 605 l 2,72,73
 1010.65 605 1010.65 605 1053.32 626 c 128,-1,74
 1096 647 1096 647 1113.5 674 c 128,-1,75
 1131 701 1131 701 1131 745 c 0,67,68
EndSplineSet
EndChar

StartChar: asciicircum
Encoding: 94 94 233
Width: 1193
Flags: HW
LayerCount: 2
Fore
SplineSet
536 1392 m 1,0,-1
 656 1392 l 1,1,-1
 1159 340 l 1,2,-1
 942 340 l 1,3,-1
 624 1029 l 1,4,-1
 596 1118 l 1,5,-1
 568 1029 l 1,6,-1
 239 340 l 1,7,-1
 34 340 l 1,8,-1
 536 1392 l 1,0,-1
EndSplineSet
EndChar

StartChar: ogonek
Encoding: 731 731 234
Width: 680
Flags: HW
LayerCount: 2
Fore
SplineSet
548 -488 m 1,0,1
 493 -510 493 -510 416 -510 c 128,-1,2
 339 -510 339 -510 286 -488 c 128,-1,3
 233 -466 233 -466 201 -431.5 c 0,4,5
 142 -367.891 142 -367.891 142 -270 c 0,6,7
 142 -142.082 142 -142.082 272 -28 c 0,8,9
 321 15 321 15 396 56 c 1,10,-1
 521 34 l 1,11,-1
 559 10 l 1,12,13
 311 -110.457 311 -110.457 311 -242 c 0,14,15
 311 -324.44 311 -324.44 382 -350 c 0,16,17
 407 -359 407 -359 454.938 -359 c 128,-1,18
 502.875 -359 502.875 -359 548 -340 c 1,19,-1
 548 -488 l 1,0,1
EndSplineSet
EndChar

StartChar: underscore
Encoding: 95 95 235
Width: 1195
Flags: HW
LayerCount: 2
Fore
SplineSet
1205 -188 m 1,0,-1
 1205 -340 l 1,1,-1
 -10 -340 l 1,2,-1
 -10 -188 l 1,3,-1
 1205 -188 l 1,0,-1
EndSplineSet
EndChar

StartChar: caronvertical
Encoding: 65550 -1 236
Width: 517
Flags: HW
LayerCount: 2
Fore
SplineSet
59 1043 m 1,0,1
 153.107 1043 153.107 1043 166.5 1168 c 0,2,3
 171 1210 171 1210 171 1266 c 2,4,-1
 171 1435 l 1,5,-1
 343 1435 l 1,6,-1
 343 1268 l 2,7,8
 343 1068.41 343 1068.41 288.5 984.5 c 0,9,10
 224.526 886 224.526 886 59 886 c 1,11,-1
 59 1043 l 1,0,1
EndSplineSet
EndChar

StartChar: tbar
Encoding: 359 359 237
Width: 853
Flags: HW
LayerCount: 2
Fore
SplineSet
526 158 m 0,0,1
 559 146 559 146 614.1 146 c 128,-1,2
 669.2 146 669.2 146 698 162 c 1,3,-1
 698 2 l 1,4,5
 682.323 -3.22581 682.323 -3.22581 652.161 -4.11291 c 2,6,-1
 606 -5.5 l 2,7,8
 590 -6 590 -6 582 -6 c 0,9,10
 388.796 -6 388.796 -6 297 120.5 c 0,11,12
 223 222.476 223 222.476 223 390 c 2,13,-1
 223 531 l 1,14,-1
 74 531 l 1,15,-1
 74 667 l 1,16,-1
 223 667 l 1,17,-1
 223 879 l 1,18,-1
 75 879 l 1,19,-1
 75 973 l 1,20,-1
 223 1032 l 1,21,-1
 271 1288 l 1,22,-1
 423 1288 l 1,23,-1
 423 1032 l 1,24,-1
 703 1032 l 1,25,-1
 703 879 l 1,26,-1
 423 879 l 1,27,-1
 423 667 l 1,28,-1
 704 667 l 1,29,-1
 704 531 l 1,30,-1
 423 531 l 1,31,-1
 423 391 l 2,32,33
 423 195.455 423 195.455 526 158 c 0,0,1
EndSplineSet
EndChar

StartChar: Tbar
Encoding: 358 358 238
Width: 1195
Flags: HW
LayerCount: 2
Fore
SplineSet
495 680 m 1,0,-1
 234 680 l 1,1,-1
 234 824 l 1,2,-1
 495 824 l 1,3,-1
 495 1216 l 1,4,-1
 76 1216 l 1,5,-1
 76 1392 l 1,6,-1
 1114 1392 l 1,7,-1
 1114 1216 l 1,8,-1
 695 1216 l 1,9,-1
 695 824 l 1,10,-1
 954 824 l 1,11,-1
 954 680 l 1,12,-1
 695 680 l 1,13,-1
 695 0 l 1,14,-1
 495 0 l 1,15,-1
 495 680 l 1,0,-1
EndSplineSet
EndChar

StartChar: lslash
Encoding: 322 322 239
Width: 683
Flags: HW
LayerCount: 2
Fore
SplineSet
198 705 m 1,0,-1
 18 587 l 1,1,-1
 18 759 l 1,2,-1
 198 877 l 1,3,-1
 198 1488 l 1,4,-1
 398 1488 l 1,5,-1
 398 1009 l 1,6,-1
 584 1131 l 1,7,-1
 584 958 l 1,8,-1
 398 836 l 1,9,-1
 398 391 l 2,10,11
 398 193.213 398 193.213 487.5 158 c 0,12,13
 518 146 518 146 552 146 c 128,-1,14
 586 146 586 146 613 154 c 1,15,-1
 613 0 l 1,16,-1
 576 -4 l 2,17,18
 558 -6 558 -6 541 -6 c 0,19,20
 349.08 -6 349.08 -6 264 120.5 c 0,21,22
 198 218.632 198 218.632 198 390 c 2,23,-1
 198 705 l 1,0,-1
EndSplineSet
EndChar

StartChar: oslash
Encoding: 248 248 240
Width: 1194
Flags: HW
LayerCount: 2
Fore
SplineSet
578.714 -16 m 0,0,1
 456.429 -16 456.429 -16 333 56 c 1,2,-1
 203 -104 l 1,3,-1
 76 0 l 1,4,-1
 208 163 l 1,5,6
 88 306.571 88 306.571 88 518 c 0,7,8
 88 761.366 88 761.366 243 912 c 0,9,10
 388.087 1053 388.087 1053 602 1053 c 0,11,12
 748.405 1053 748.405 1053 868 978 c 1,13,-1
 996 1136 l 1,14,-1
 1123 1032 l 1,15,-1
 991 868 l 1,16,17
 1103 725.846 1103 725.846 1103 518 c 0,18,19
 1103 275.406 1103 275.406 952 125.5 c 0,20,21
 809.467 -16 809.467 -16 578.714 -16 c 0,0,1
296 518 m 256,22,23
 296 262.397 296 262.397 460 170.5 c 0,24,25
 518 138 518 138 599 138 c 128,-1,26
 680 138 680 138 736 170.5 c 128,-1,27
 792 203 792 203 827.5 256.5 c 0,28,29
 895 358.225 895 358.225 895 518 c 256,30,31
 895 771.928 895 771.928 733.5 866.5 c 0,32,33
 678 899 678 899 600 899 c 128,-1,34
 522 899 522 899 464.5 866.5 c 128,-1,35
 407 834 407 834 369.5 781 c 0,36,37
 296 677.12 296 677.12 296 518 c 256,22,23
EndSplineSet
EndChar

StartChar: Lslash
Encoding: 321 321 241
Width: 1026
Flags: HW
LayerCount: 2
Fore
SplineSet
154 555 m 1,0,-1
 24 479 l 1,1,-1
 24 647 l 1,2,-1
 154 723 l 1,3,-1
 154 1392 l 1,4,-1
 354 1392 l 1,5,-1
 354 841 l 1,6,-1
 680 1032 l 1,7,-1
 680 863 l 1,8,-1
 354 672 l 1,9,-1
 354 176 l 1,10,-1
 950 176 l 1,11,-1
 950 0 l 1,12,-1
 154 0 l 1,13,-1
 154 555 l 1,0,-1
EndSplineSet
EndChar

StartChar: Oslash
Encoding: 216 216 242
Width: 1536
Flags: HW
LayerCount: 2
Fore
SplineSet
769 -16 m 0,0,1
 549.364 -16 549.364 -16 385 97 c 1,2,-1
 224 -112 l 1,3,-1
 94 -12 l 1,4,-1
 264 209 l 1,5,6
 109 397.067 109 397.067 109 694 c 0,7,8
 109 1016.84 109 1016.84 294.5 1214 c 0,9,10
 477.027 1408 477.027 1408 769 1408 c 0,11,12
 964.711 1408 964.711 1408 1116 1316 c 1,13,-1
 1259 1504 l 1,14,-1
 1389 1404 l 1,15,-1
 1244 1213 l 1,16,17
 1427 1015.28 1427 1015.28 1427 694 c 256,18,19
 1427 371.132 1427 371.132 1243 175.5 c 0,20,21
 1062.89 -16 1062.89 -16 769 -16 c 0,0,1
309 695 m 256,22,23
 309 467.496 309 467.496 420.5 318.5 c 0,24,25
 545.099 152 545.099 152 769 152 c 256,26,27
 993.053 152 993.053 152 1117 318 c 0,28,29
 1227 465.321 1227 465.321 1227 693 c 256,30,31
 1227 922.714 1227 922.714 1117 1072 c 0,32,33
 993.211 1240 993.211 1240 769 1240 c 256,34,35
 544.395 1240 544.395 1240 419.5 1072 c 0,36,37
 309 923.363 309 923.363 309 695 c 256,22,23
EndSplineSet
EndChar

StartChar: trademark
Encoding: 8482 8482 243
Width: 1877
Flags: HW
LayerCount: 2
Fore
SplineSet
932 1361 m 1,0,-1
 1036 1361 l 1,1,-1
 1331 991 l 1,2,-1
 1627 1361 l 1,3,-1
 1731 1361 l 1,4,-1
 1731 510 l 1,5,-1
 1559 510 l 1,6,-1
 1559 1044 l 1,7,-1
 1498 964 l 1,8,-1
 1331 774 l 1,9,-1
 1165 964 l 1,10,-1
 1104 1044 l 1,11,-1
 1104 510 l 1,12,-1
 932 510 l 1,13,-1
 932 1361 l 1,0,-1
393 1208 m 1,14,-1
 145 1208 l 1,15,-1
 145 1360 l 1,16,-1
 813 1360 l 1,17,-1
 813 1208 l 1,18,-1
 564 1208 l 1,19,-1
 564 510 l 1,20,-1
 393 510 l 1,21,-1
 393 1208 l 1,14,-1
EndSplineSet
EndChar

StartChar: ff
Encoding: 64256 64256 244
Width: 1366
Flags: HW
LayerCount: 2
Fore
SplineSet
1316 1334 m 1,0,1
 1280 1346 1280 1346 1217.5 1346 c 128,-1,2
 1155 1346 1155 1346 1117.5 1334 c 128,-1,3
 1080 1322 1080 1322 1058.5 1299 c 0,4,5
 1020 1257.81 1020 1257.81 1020 1165 c 2,6,-1
 1020 1032 l 1,7,-1
 1270 1032 l 1,8,-1
 1270 879 l 1,9,-1
 1020 879 l 1,10,-1
 1020 0 l 1,11,-1
 820 0 l 1,12,-1
 820 879 l 1,13,-1
 380 879 l 1,14,-1
 380 0 l 1,15,-1
 180 0 l 1,16,-1
 180 879 l 1,17,-1
 56 879 l 1,18,-1
 56 973 l 1,19,-1
 179 1033 l 1,20,-1
 180 1138 l 1,21,22
 180 1365.21 180 1365.21 313.5 1445 c 0,23,24
 405.519 1500 405.519 1500 574 1500 c 0,25,26
 640.8 1500 640.8 1500 676 1492 c 1,27,-1
 676 1334 l 1,28,29
 640 1346 640 1346 577.5 1346 c 128,-1,30
 515 1346 515 1346 477.5 1334 c 128,-1,31
 440 1322 440 1322 418.5 1299 c 0,32,33
 380 1257.81 380 1257.81 380 1165 c 2,34,-1
 380 1032 l 1,35,-1
 820 1033 l 1,36,-1
 820 1138 l 2,37,38
 820 1243.29 820 1243.29 838.5 1296.14 c 128,-1,39
 857 1349 857 1349 883 1384 c 128,-1,40
 909 1419 909 1419 953 1445 c 0,41,42
 1046.08 1500 1046.08 1500 1214 1500 c 0,43,44
 1280.8 1500 1280.8 1500 1316 1492 c 1,45,-1
 1316 1334 l 1,0,1
EndSplineSet
EndChar

StartChar: fi
Encoding: 64257 64257 245
Width: 1195
Flags: HW
LayerCount: 2
Fore
SplineSet
666 1334 m 1,0,1
 630 1346 630 1346 567.5 1346 c 128,-1,2
 505 1346 505 1346 467.5 1334 c 128,-1,3
 430 1322 430 1322 408.5 1299 c 0,4,5
 370 1257.81 370 1257.81 370 1165 c 2,6,-1
 370 1032 l 1,7,-1
 1020 1032 l 1,8,-1
 1020 0 l 1,9,-1
 820 0 l 1,10,-1
 820 879 l 1,11,-1
 370 879 l 1,12,-1
 370 0 l 1,13,-1
 170 0 l 1,14,-1
 170 879 l 1,15,-1
 46 879 l 1,16,-1
 46 973 l 1,17,-1
 169 1033 l 1,18,-1
 170 1138 l 1,19,20
 170 1365.21 170 1365.21 303.5 1445 c 0,21,22
 395.519 1500 395.519 1500 564 1500 c 0,23,24
 630.8 1500 630.8 1500 666 1492 c 1,25,-1
 666 1334 l 1,0,1
1014.5 1244.5 m 128,-1,27
 977 1214 977 1214 921 1214 c 128,-1,28
 865 1214 865 1214 828.5 1244.5 c 128,-1,29
 792 1275 792 1275 792 1332.5 c 128,-1,30
 792 1390 792 1390 828.5 1420 c 128,-1,31
 865 1450 865 1450 921 1450 c 128,-1,32
 977 1450 977 1450 1014.5 1420 c 128,-1,33
 1052 1390 1052 1390 1052 1332.5 c 128,-1,26
 1052 1275 1052 1275 1014.5 1244.5 c 128,-1,27
EndSplineSet
EndChar

StartChar: fl
Encoding: 64258 64258 246
Width: 1363
Flags: HW
LayerCount: 2
Fore
SplineSet
850 1325 m 1,0,1
 735.667 1346 735.667 1346 655.833 1346 c 128,-1,2
 576 1346 576 1346 524 1334.5 c 128,-1,3
 472 1323 472 1323 437.5 1295.5 c 0,4,5
 370 1241.7 370 1241.7 370 1109 c 2,6,-1
 370 1032 l 1,7,-1
 620 1032 l 1,8,-1
 620 879 l 1,9,-1
 370 879 l 1,10,-1
 370 0 l 1,11,-1
 170 0 l 1,12,-1
 170 879 l 1,13,-1
 46 879 l 1,14,-1
 46 973 l 1,15,-1
 170 1033 l 1,16,-1
 170 1106 l 2,17,18
 170 1285 170 1285 255 1377.5 c 0,19,20
 367.568 1500 367.568 1500 647 1500 c 0,21,22
 824.615 1500 824.615 1500 1001.5 1468.5 c 2,23,-1
 1049 1460 l 1,24,-1
 1049 1458 l 1,25,-1
 1050 1458 l 1,26,-1
 1050 391 l 2,27,28
 1050 193.213 1050 193.213 1139.5 158 c 0,29,30
 1170 146 1170 146 1204 146 c 128,-1,31
 1238 146 1238 146 1265 154 c 1,32,-1
 1265 0 l 1,33,-1
 1228 -4 l 2,34,35
 1210 -6 1210 -6 1193 -6 c 0,36,37
 1001.08 -6 1001.08 -6 916 120.5 c 0,38,39
 850 218.632 850 218.632 850 390 c 2,40,-1
 850 1325 l 1,0,1
EndSplineSet
EndChar

StartChar: grave.cap
Encoding: 65551 -1 247
Width: 681
Flags: HW
LayerCount: 2
Fore
SplineSet
97 1897 m 1,0,-1
 331 1897 l 1,1,-1
 563 1530 l 1,2,-1
 385 1530 l 1,3,-1
 97 1897 l 1,0,-1
EndSplineSet
EndChar

StartChar: dcroat
Encoding: 273 273 248
Width: 1194
Flags: HW
LayerCount: 2
Fore
SplineSet
137.5 318 m 128,-1,1
 118 395 118 395 118 519 c 128,-1,2
 118 643 118 643 171.5 748 c 128,-1,3
 225 853 225 853 311.5 920.5 c 0,4,5
 478.733 1051 478.733 1051 726 1051 c 2,6,-1
 776.5 1051 l 2,7,8
 800 1051 800 1051 822 1050 c 1,9,-1
 819 1175 l 1,10,-1
 503 1175 l 1,11,-1
 503 1311 l 1,12,-1
 819 1311 l 1,13,-1
 819 1440 l 1,14,-1
 1018 1440 l 1,15,-1
 1018 1311 l 1,16,-1
 1159 1311 l 1,17,-1
 1159 1175 l 1,18,-1
 1018 1175 l 1,19,-1
 1018 0 l 1,20,-1
 838 0 l 1,21,-1
 831 119 l 1,22,23
 771 39 771 39 647.5 0 c 0,24,25
 600 -15 600 -15 550.5 -15 c 128,-1,26
 501 -15 501 -15 453 -5 c 128,-1,27
 405 5 405 5 357.5 28 c 128,-1,28
 310 51 310 51 267 89.5 c 128,-1,29
 224 128 224 128 190.5 184.5 c 128,-1,0
 157 241 157 241 137.5 318 c 128,-1,1
818 889 m 1,30,31
 754 897 754 897 690.5 897 c 128,-1,32
 627 897 627 897 555 874 c 128,-1,33
 483 851 483 851 432 802 c 0,34,35
 326 700.157 326 700.157 326 495 c 0,36,37
 326 300.667 326 300.667 417 208.5 c 0,38,39
 485.62 139 485.62 139 583 139 c 0,40,41
 707.667 139 707.667 139 789 230.5 c 0,42,43
 809 253 809 253 818 271 c 1,44,-1
 818 889 l 1,30,31
EndSplineSet
EndChar

StartChar: lcaron
Encoding: 318 318 290
Width: 853
Flags: HW
LayerCount: 2
Fore
SplineSet
510 1043 m 1,0,1
 604.107 1043 604.107 1043 617.5 1168 c 0,2,3
 622 1210 622 1210 622 1266 c 2,4,-1
 622 1435 l 1,5,-1
 794 1435 l 1,6,-1
 794 1268 l 2,7,8
 794 1068.41 794 1068.41 739.5 984.5 c 0,9,10
 675.526 886 675.526 886 510 886 c 1,11,-1
 510 1043 l 1,0,1
198 1488 m 1,12,-1
 398 1488 l 1,13,-1
 398 391 l 2,14,15
 398 193.213 398 193.213 487.5 158 c 0,16,17
 518 146 518 146 552 146 c 128,-1,18
 586 146 586 146 613 154 c 1,19,-1
 613 0 l 1,20,-1
 576 -4 l 2,21,22
 558 -6 558 -6 541 -6 c 0,23,24
 349.08 -6 349.08 -6 264 120.5 c 0,25,26
 198 218.632 198 218.632 198 390 c 2,27,-1
 198 1488 l 1,12,-1
EndSplineSet
EndChar

StartChar: Lcaron
Encoding: 317 317 291
Width: 1026
Flags: HW
LayerCount: 2
Fore
SplineSet
510 1043 m 1,0,1
 604.107 1043 604.107 1043 617.5 1168 c 0,2,3
 622 1210 622 1210 622 1266 c 2,4,-1
 622 1435 l 1,5,-1
 794 1435 l 1,6,-1
 794 1268 l 2,7,8
 794 1068.41 794 1068.41 739.5 984.5 c 0,9,10
 675.526 886 675.526 886 510 886 c 1,11,-1
 510 1043 l 1,0,1
154 1392 m 1,12,-1
 354 1392 l 1,13,-1
 354 176 l 1,14,-1
 950 176 l 1,15,-1
 950 0 l 1,16,-1
 154 0 l 1,17,-1
 154 1392 l 1,12,-1
EndSplineSet
EndChar

StartChar: tcaron
Encoding: 357 357 292
Width: 853
Flags: HW
LayerCount: 2
Fore
SplineSet
511 1308 m 1,0,1
 605.107 1308 605.107 1308 618.5 1433 c 0,2,3
 623 1475 623 1475 623 1531 c 2,4,-1
 623 1700 l 1,5,-1
 795 1700 l 1,6,-1
 795 1533 l 2,7,8
 795 1333.41 795 1333.41 740.5 1249.5 c 0,9,10
 676.526 1151 676.526 1151 511 1151 c 1,11,-1
 511 1308 l 1,0,1
526 158 m 0,12,13
 559 146 559 146 626.1 146 c 128,-1,14
 693.2 146 693.2 146 738 162 c 1,15,-1
 738 2 l 1,16,17
 717.048 -3.2381 717.048 -3.2381 676.524 -4.11905 c 2,18,-1
 614.5 -5.5 l 2,19,20
 593 -6 593 -6 582 -6 c 0,21,22
 388.796 -6 388.796 -6 297 120.5 c 0,23,24
 223 222.476 223 222.476 223 390 c 2,25,-1
 223 879 l 1,26,-1
 75 879 l 1,27,-1
 75 973 l 1,28,-1
 223 1032 l 1,29,-1
 271 1288 l 1,30,-1
 423 1288 l 1,31,-1
 423 1032 l 1,32,-1
 743 1032 l 1,33,-1
 743 879 l 1,34,-1
 423 879 l 1,35,-1
 423 391 l 2,36,37
 423 195.455 423 195.455 526 158 c 0,12,13
EndSplineSet
EndChar

StartChar: ccedilla
Encoding: 231 231 341
Width: 1022
Flags: HW
LayerCount: 2
Fore
SplineSet
717 -275 m 0,0,1
 717 -219 717 -219 605 -219 c 2,2,-1
 485 -219 l 1,3,-1
 485 5 l 1,4,5
 308.638 49.0905 308.638 49.0905 209.5 184 c 0,6,7
 109 320.763 109 320.763 109 528 c 0,8,9
 109 776.65 109 776.65 289.5 919.5 c 0,10,11
 451.868 1048 451.868 1048 688 1048 c 0,12,13
 833.714 1048 833.714 1048 888 1038 c 1,14,-1
 888 860 l 1,15,16
 804 887 804 887 696.5 887 c 128,-1,17
 589 887 589 887 518 857.5 c 128,-1,18
 447 828 447 828 402.5 778.5 c 0,19,20
 317 683.393 317 683.393 317 528 c 0,21,22
 317 265.57 317 265.57 505.5 179 c 0,23,24
 573 148 573 148 637 148 c 128,-1,25
 701 148 701 148 735.5 151 c 128,-1,26
 770 154 770 154 801 159 c 0,27,28
 867.276 169.69 867.276 169.69 896 182 c 1,29,-1
 896 3 l 1,30,31
 835.833 -16 835.833 -16 668 -16 c 1,32,-1
 629 -15 l 1,33,-1
 629 -91 l 1,34,-1
 663 -91 l 2,35,36
 818.412 -91 818.412 -91 865 -190 c 0,37,38
 881 -224 881 -224 881 -274 c 128,-1,39
 881 -324 881 -324 856 -368.5 c 128,-1,40
 831 -413 831 -413 788.5 -444 c 0,41,42
 699.387 -509 699.387 -509 570 -509 c 0,43,44
 502.6 -509 502.6 -509 469 -501 c 1,45,-1
 469 -362 l 1,46,47
 514 -371 514 -371 556 -371 c 0,48,49
 717 -371 717 -371 717 -275 c 0,0,1
EndSplineSet
EndChar

StartChar: Ccedilla
Encoding: 199 199 342
Width: 1195
Flags: HW
LayerCount: 2
Fore
SplineSet
864 -275 m 0,0,1
 864 -219 864 -219 752 -219 c 2,2,-1
 632 -219 l 1,3,-1
 632 8 l 1,4,5
 247.178 87.5087 247.178 87.5087 131 442 c 0,6,7
 92 561 92 561 92 694.5 c 128,-1,8
 92 828 92 828 120.5 925.5 c 128,-1,9
 149 1023 149 1023 199 1100 c 128,-1,10
 249 1177 249 1177 318.5 1233.5 c 128,-1,11
 388 1290 388 1290 470.5 1327.5 c 0,12,13
 634.4 1402 634.4 1402 812.7 1402 c 128,-1,14
 991 1402 991 1402 1068 1388 c 1,15,-1
 1068 1197 l 1,16,17
 997.6 1219 997.6 1219 851.3 1219 c 128,-1,18
 705 1219 705 1219 603 1183 c 128,-1,19
 501 1147 501 1147 433.5 1080.5 c 0,20,21
 300 948.978 300 948.978 300 710 c 0,22,23
 300 469.366 300 469.366 432 328.5 c 0,24,25
 574.902 176 574.902 176 843 176 c 0,26,27
 1000 176 1000 176 1100 200 c 1,28,-1
 1100 8 l 1,29,30
 1001 -10 1001 -10 900.5 -10 c 128,-1,31
 800 -10 800 -10 776 -8 c 1,32,-1
 776 -91 l 1,33,-1
 810 -91 l 2,34,35
 965.412 -91 965.412 -91 1012 -190 c 0,36,37
 1028 -224 1028 -224 1028 -274 c 128,-1,38
 1028 -324 1028 -324 1003 -368.5 c 128,-1,39
 978 -413 978 -413 935.5 -444 c 0,40,41
 846.387 -509 846.387 -509 717 -509 c 0,42,43
 649.6 -509 649.6 -509 616 -501 c 1,44,-1
 616 -362 l 1,45,46
 661 -371 661 -371 703 -371 c 0,47,48
 864 -371 864 -371 864 -275 c 0,0,1
EndSplineSet
EndChar

StartChar: scedilla
Encoding: 351 351 344
Width: 1024
Flags: HW
LayerCount: 2
Fore
SplineSet
363 -15 m 1,0,1
 264.599 -12.8608 264.599 -12.8608 155 2 c 1,2,-1
 155 179 l 1,3,4
 285.2 148 285.2 148 419 148 c 0,5,6
 687 148 687 148 687 261 c 0,7,8
 687 303.552 687 303.552 666 325.276 c 0,9,10
 634.71 357.645 634.71 357.645 568 391 c 1,11,-1
 422 458 l 1,12,13
 279.543 529.229 279.543 529.229 237.771 571.614 c 0,14,15
 159 651.544 159 651.544 159 762 c 0,16,17
 159 885.661 159 885.661 274.5 964 c 0,18,19
 398.346 1048 398.346 1048 622 1048 c 0,20,21
 734.8 1048 734.8 1048 850 1032 c 1,22,-1
 850 861 l 1,23,24
 723.5 884 723.5 884 630.25 884 c 128,-1,25
 537 884 537 884 485.5 872 c 128,-1,26
 434 860 434 860 408 842 c 0,27,28
 367 813.615 367 813.615 367 769.308 c 128,-1,29
 367 725 367 725 395.5 697.5 c 128,-1,30
 424 670 424 670 485 638 c 1,31,-1
 632 567 l 1,32,33
 776.451 492.367 776.451 492.367 817.226 452.183 c 0,34,35
 895 375.536 895 375.536 895 261 c 0,36,37
 895 152.091 895 152.091 794.5 79 c 0,38,39
 688.12 1.63268 688.12 1.63268 507 -12 c 1,40,-1
 507 -91 l 1,41,-1
 541 -91 l 2,42,43
 696.412 -91 696.412 -91 743 -190 c 0,44,45
 759 -224 759 -224 759 -274 c 128,-1,46
 759 -324 759 -324 734 -368.5 c 128,-1,47
 709 -413 709 -413 666.5 -444 c 0,48,49
 577.387 -509 577.387 -509 448 -509 c 0,50,51
 380.6 -509 380.6 -509 347 -501 c 1,52,-1
 347 -362 l 1,53,54
 392 -371 392 -371 434 -371 c 0,55,56
 595 -371 595 -371 595 -275 c 0,57,58
 595 -219 595 -219 483 -219 c 2,59,-1
 363 -219 l 1,60,-1
 363 -15 l 1,0,1
EndSplineSet
EndChar

StartChar: ldot
Encoding: 320 320 362
Width: 856
Flags: HW
LayerCount: 2
Fore
SplineSet
760 682 m 128,-1,1
 724 653 724 653 671 653 c 128,-1,2
 618 653 618 653 583.5 682 c 128,-1,3
 549 711 549 711 549 766 c 128,-1,4
 549 821 549 821 583.5 849 c 128,-1,5
 618 877 618 877 671 877 c 128,-1,6
 724 877 724 877 760 849 c 128,-1,7
 796 821 796 821 796 766 c 128,-1,0
 796 711 796 711 760 682 c 128,-1,1
198 1488 m 1,8,-1
 398 1488 l 1,9,-1
 398 391 l 2,10,11
 398 193.213 398 193.213 487.5 158 c 0,12,13
 518 146 518 146 552 146 c 128,-1,14
 586 146 586 146 613 154 c 1,15,-1
 613 0 l 1,16,-1
 576 -4 l 2,17,18
 558 -6 558 -6 541 -6 c 0,19,20
 349.08 -6 349.08 -6 264 120.5 c 0,21,22
 198 218.632 198 218.632 198 390 c 2,23,-1
 198 1488 l 1,8,-1
EndSplineSet
EndChar

StartChar: Ldot
Encoding: 319 319 363
Width: 1026
Flags: HW
LayerCount: 2
Fore
SplineSet
729.5 679 m 128,-1,1
 695 708 695 708 695 763 c 128,-1,2
 695 818 695 818 729.5 846 c 128,-1,3
 764 874 764 874 817 874 c 128,-1,4
 870 874 870 874 906 846 c 128,-1,5
 942 818 942 818 942 763 c 128,-1,6
 942 708 942 708 906 679 c 128,-1,7
 870 650 870 650 817 650 c 128,-1,0
 764 650 764 650 729.5 679 c 128,-1,1
154 1392 m 1,8,-1
 354 1392 l 1,9,-1
 354 176 l 1,10,-1
 950 176 l 1,11,-1
 950 0 l 1,12,-1
 154 0 l 1,13,-1
 154 1392 l 1,8,-1
EndSplineSet
EndChar

StartChar: cedilla.cap
Encoding: 65552 -1 397
Width: 1021
Flags: HW
LayerCount: 2
Fore
SplineSet
510 -381 m 1,0,1
 734 -381 734 -381 734 -271 c 0,2,3
 734 -235 734 -235 704 -221 c 128,-1,4
 674 -207 674 -207 614 -207 c 2,5,-1
 510 -207 l 1,6,-1
 510 84 l 1,7,-1
 638 84 l 1,8,-1
 638 -95 l 1,9,-1
 654 -95 l 2,10,11
 878 -95 878 -95 878 -271 c 0,12,13
 878 -441.061 878 -441.061 656 -492.5 c 0,14,15
 584.789 -509 584.789 -509 510 -509 c 1,16,-1
 510 -381 l 1,0,1
EndSplineSet
EndChar

StartChar: commaaccent.cap
Encoding: 65553 -1 398
Width: 510
Flags: HW
LayerCount: 2
Fore
SplineSet
340 -103 m 1,0,-1
 340 -217 l 2,1,2
 340 -388.348 340 -388.348 274.5 -451 c 0,3,4
 212.818 -510 212.818 -510 51 -510 c 1,5,-1
 51 -377 l 1,6,7
 110.432 -377 110.432 -377 132.216 -351 c 0,8,9
 170 -305.903 170 -305.903 170 -217 c 2,10,-1
 170 -103 l 1,11,-1
 340 -103 l 1,0,-1
EndSplineSet
EndChar

StartChar: dcaron
Encoding: 271 271 400
Width: 1365
Flags: HW
LayerCount: 2
Fore
SplineSet
1139 1043 m 1,0,1
 1233.11 1043 1233.11 1043 1246.5 1168 c 0,2,3
 1251 1210 1251 1210 1251 1266 c 2,4,-1
 1251 1435 l 1,5,-1
 1423 1435 l 1,6,-1
 1423 1268 l 2,7,8
 1423 1068.41 1423 1068.41 1368.5 984.5 c 0,9,10
 1304.53 886 1304.53 886 1139 886 c 1,11,-1
 1139 1043 l 1,0,1
506.5 1017 m 128,-1,13
 615 1048 615 1048 696 1048 c 128,-1,14
 777 1048 777 1048 821 1044 c 1,15,-1
 821 1488 l 1,16,-1
 1020 1488 l 1,17,-1
 1020 0 l 1,18,-1
 841 0 l 1,19,-1
 833 119 l 1,20,21
 772.082 37.7755 772.082 37.7755 648 -1 c 0,22,23
 600 -16 600 -16 550.5 -16 c 128,-1,24
 501 -16 501 -16 453 -6 c 128,-1,25
 405 4 405 4 357.5 27.5 c 128,-1,26
 310 51 310 51 267 89.5 c 128,-1,27
 224 128 224 128 190.5 184.5 c 0,28,29
 118 306.776 118 306.776 118 474.888 c 128,-1,30
 118 643 118 643 171.5 747.5 c 128,-1,31
 225 852 225 852 311.5 919 c 128,-1,12
 398 986 398 986 506.5 1017 c 128,-1,13
353.5 676.5 m 128,-1,33
 326 601 326 601 326 493.5 c 128,-1,34
 326 386 326 386 352 316.5 c 128,-1,35
 378 247 378 247 417 207.5 c 0,36,37
 485.62 138 485.62 138 583 138 c 0,38,39
 708.5 138 708.5 138 790.5 230 c 0,40,41
 811 253 811 253 820 271 c 1,42,-1
 820 886 l 1,43,-1
 799.5 888.5 l 2,44,45
 753.667 894 753.667 894 690.333 894 c 128,-1,46
 627 894 627 894 555 871.5 c 128,-1,47
 483 849 483 849 432 800.5 c 128,-1,32
 381 752 381 752 353.5 676.5 c 128,-1,33
EndSplineSet
EndChar

StartChar: eogonek
Encoding: 281 281 402
Width: 1025
Flags: HW
LayerCount: 2
Fore
SplineSet
634 -16 m 1,0,1
 71 -14.0246 71 -14.0246 71 537 c 0,2,3
 71 775.462 71 775.462 227.5 918.5 c 0,4,5
 369.188 1048 369.188 1048 550 1048 c 0,6,7
 747.382 1048 747.382 1048 857.5 916.5 c 0,8,9
 961 792.903 961 792.903 961 587 c 2,10,-1
 961 509 l 1,11,-1
 279 509 l 1,12,13
 279 226 279 226 510 163 c 0,14,15
 565 148 565 148 679.545 148 c 128,-1,16
 794.091 148 794.091 148 904 179 c 1,17,-1
 904 10 l 1,18,19
 903 10 903 10 866.5 -7.5 c 128,-1,20
 830 -25 830 -25 782 -57.5 c 128,-1,21
 734 -90 734 -90 705.5 -121.5 c 0,22,23
 654 -178.421 654 -178.421 654 -235.211 c 128,-1,24
 654 -292 654 -292 687.5 -325.5 c 128,-1,25
 721 -359 721 -359 783.438 -359 c 128,-1,26
 845.875 -359 845.875 -359 891 -340 c 1,27,-1
 891 -488 l 1,28,29
 836 -510 836 -510 759 -510 c 128,-1,30
 682 -510 682 -510 629 -488 c 128,-1,31
 576 -466 576 -466 544 -431.5 c 0,32,33
 485 -367.891 485 -367.891 485 -270 c 0,34,35
 485 -130.349 485 -130.349 634 -16 c 1,0,1
761 656 m 1,36,37
 761 751.855 761 751.855 707.5 818 c 0,38,39
 646.029 894 646.029 894 537 894 c 0,40,41
 422.394 894 422.394 894 350.5 821 c 0,42,43
 284 753.477 284 753.477 284 656 c 1,44,-1
 761 656 l 1,36,37
EndSplineSet
EndChar

StartChar: aogonek
Encoding: 261 261 403
Width: 1194
Flags: HW
LayerCount: 2
Fore
SplineSet
1018 -488 m 1,0,1
 963 -510 963 -510 886 -510 c 128,-1,2
 809 -510 809 -510 756 -488 c 128,-1,3
 703 -466 703 -466 671 -431.5 c 0,4,5
 612 -367.891 612 -367.891 612 -270 c 0,6,7
 612 -152.5 612 -152.5 732 -44.5 c 0,8,9
 777 -4 777 -4 846 35 c 1,10,-1
 841 119 l 1,11,12
 780.69 38.5862 780.69 38.5862 658.5 0 c 0,13,14
 611 -15 611 -15 561.5 -15 c 128,-1,15
 512 -15 512 -15 464 -5 c 128,-1,16
 416 5 416 5 368.5 28 c 128,-1,17
 321 51 321 51 278 89.5 c 128,-1,18
 235 128 235 128 201.5 184.5 c 0,19,20
 129 306.776 129 306.776 129 474.888 c 128,-1,21
 129 643 129 643 182.5 747.5 c 128,-1,22
 236 852 236 852 322.5 919 c 0,23,24
 489.045 1048 489.045 1048 737 1048 c 0,25,26
 865.833 1048 865.833 1048 931.917 1041.5 c 2,27,-1
 1029 1032 l 1,28,-1
 1029 0 l 1,29,30
 781 -109.829 781 -109.829 781 -242 c 0,31,32
 781 -292 781 -292 814.5 -325.5 c 128,-1,33
 848 -359 848 -359 910.438 -359 c 128,-1,34
 972.875 -359 972.875 -359 1018 -340 c 1,35,-1
 1018 -488 l 1,0,1
829 885 m 1,36,37
 765 893 765 893 701.5 893 c 128,-1,38
 638 893 638 893 566 870.5 c 128,-1,39
 494 848 494 848 443 800 c 0,40,41
 337 700.235 337 700.235 337 495 c 0,42,43
 337 300.667 337 300.667 428 208.5 c 0,44,45
 496.62 139 496.62 139 594 139 c 0,46,47
 718.667 139 718.667 139 800 230.5 c 0,48,49
 820 253 820 253 829 271 c 1,50,-1
 829 885 l 1,36,37
EndSplineSet
EndChar

StartChar: Aogonek
Encoding: 260 260 404
Width: 1365
Flags: HW
LayerCount: 2
Fore
SplineSet
920 -270 m 0,0,1
 920 -99.5902 920 -99.5902 1120 25 c 1,2,-1
 989 350 l 1,3,-1
 371 350 l 1,4,-1
 231 0 l 1,5,-1
 27 0 l 1,6,-1
 614 1392 l 1,7,-1
 751 1392 l 1,8,-1
 1338 0 l 1,9,10
 1089 -110.271 1089 -110.271 1089 -242 c 0,11,12
 1089 -292 1089 -292 1122.5 -325.5 c 128,-1,13
 1156 -359 1156 -359 1218.44 -359 c 128,-1,14
 1280.88 -359 1280.88 -359 1326 -340 c 1,15,-1
 1326 -488 l 1,16,17
 1271 -510 1271 -510 1194 -510 c 128,-1,18
 1117 -510 1117 -510 1064 -488 c 128,-1,19
 1011 -466 1011 -466 979 -431.5 c 0,20,21
 920 -367.891 920 -367.891 920 -270 c 0,0,1
925 510 m 1,22,-1
 681 1120 l 1,23,-1
 436 510 l 1,24,-1
 925 510 l 1,22,-1
EndSplineSet
EndChar

StartChar: Eogonek
Encoding: 280 280 405
Width: 1195
Flags: HW
LayerCount: 2
Fore
SplineSet
634 -270 m 0,0,1
 634 -119 634 -119 804 0 c 1,2,-1
 154 0 l 1,3,-1
 154 1392 l 1,4,-1
 1053 1392 l 1,5,-1
 1053 1218 l 1,6,-1
 354 1218 l 1,7,-1
 354 808 l 1,8,-1
 883 808 l 1,9,-1
 883 640 l 1,10,-1
 354 640 l 1,11,-1
 354 176 l 1,12,-1
 1053 176 l 1,13,-1
 1053 0 l 1,14,15
 803 -110.714 803 -110.714 803 -242 c 0,16,17
 803 -292 803 -292 836.5 -325.5 c 128,-1,18
 870 -359 870 -359 932.438 -359 c 128,-1,19
 994.875 -359 994.875 -359 1040 -340 c 1,20,-1
 1040 -488 l 1,21,22
 985 -510 985 -510 908 -510 c 128,-1,23
 831 -510 831 -510 778 -488 c 128,-1,24
 725 -466 725 -466 693 -431.5 c 0,25,26
 634 -367.891 634 -367.891 634 -270 c 0,0,1
EndSplineSet
EndChar

StartChar: iogonek
Encoding: 303 303 406
Width: 513
Flags: HW
LayerCount: 2
Fore
SplineSet
350.5 1244.5 m 128,-1,1
 313 1214 313 1214 257 1214 c 128,-1,2
 201 1214 201 1214 164.5 1244.5 c 128,-1,3
 128 1275 128 1275 128 1332.5 c 128,-1,4
 128 1390 128 1390 164.5 1420 c 128,-1,5
 201 1450 201 1450 257 1450 c 128,-1,6
 313 1450 313 1450 350.5 1420 c 128,-1,7
 388 1390 388 1390 388 1332.5 c 128,-1,0
 388 1275 388 1275 350.5 1244.5 c 128,-1,1
-59 -270 m 0,8,9
 -59 -106.548 -59 -106.548 154 24 c 1,10,-1
 154 1032 l 1,11,-1
 354 1032 l 1,12,-1
 354 0 l 1,13,14
 110 -108.057 110 -108.057 110 -242 c 0,15,16
 110 -292 110 -292 143.5 -325.5 c 128,-1,17
 177 -359 177 -359 239.438 -359 c 128,-1,18
 301.875 -359 301.875 -359 347 -340 c 1,19,-1
 347 -488 l 1,20,21
 292 -510 292 -510 215 -510 c 128,-1,22
 138 -510 138 -510 85 -488 c 128,-1,23
 32 -466 32 -466 0 -431.5 c 0,24,25
 -59 -367.891 -59 -367.891 -59 -270 c 0,8,9
EndSplineSet
EndChar

StartChar: Iogonek
Encoding: 302 302 407
Width: 512
Flags: HW
LayerCount: 2
Fore
SplineSet
345 -488 m 1,0,1
 290 -510 290 -510 213 -510 c 128,-1,2
 136 -510 136 -510 83 -488 c 128,-1,3
 30 -466 30 -466 -2 -431.5 c 0,4,5
 -61 -367.891 -61 -367.891 -61 -270 c 0,6,7
 -61 -151 -61 -151 51 -47 c 0,8,9
 93 -8 93 -8 156 28 c 1,10,-1
 156 1392 l 1,11,-1
 356 1392 l 1,12,-1
 356 0 l 1,13,14
 108 -109.829 108 -109.829 108 -242 c 0,15,16
 108 -324.44 108 -324.44 179 -350 c 0,17,18
 204 -359 204 -359 251.938 -359 c 128,-1,19
 299.875 -359 299.875 -359 345 -340 c 1,20,-1
 345 -488 l 1,0,1
EndSplineSet
EndChar

StartChar: uogonek
Encoding: 371 371 408
Width: 1195
Flags: HW
LayerCount: 2
Fore
SplineSet
1015 -498 m 1,0,1
 960 -520 960 -520 883 -520 c 128,-1,2
 806 -520 806 -520 753 -498 c 128,-1,3
 700 -476 700 -476 668 -441.5 c 0,4,5
 609 -377.891 609 -377.891 609 -280 c 0,6,7
 609 -157.167 609 -157.167 729 -46.5 c 0,8,9
 774 -5 774 -5 842 34 c 1,10,-1
 830 109 l 1,11,12
 682.273 -16 682.273 -16 503 -16 c 0,13,14
 313.188 -16 313.188 -16 233.5 89 c 0,15,16
 152 196.388 152 196.388 152 458 c 2,17,-1
 152 1032 l 1,18,-1
 352 1032 l 1,19,-1
 352 468 l 2,20,21
 352 283.222 352 283.222 405 215.5 c 0,22,23
 451.565 156 451.565 156 584.354 156 c 128,-1,24
 717.143 156 717.143 156 828 253 c 1,25,-1
 828 1032 l 1,26,-1
 1028 1032 l 1,27,-1
 1028 0 l 1,28,-1
 1026 0 l 1,29,30
 778 -120.457 778 -120.457 778 -252 c 0,31,32
 778 -334.44 778 -334.44 849 -360 c 0,33,34
 874 -369 874 -369 921.938 -369 c 128,-1,35
 969.875 -369 969.875 -369 1015 -350 c 1,36,-1
 1015 -498 l 1,0,1
EndSplineSet
EndChar

StartChar: Uogonek
Encoding: 370 370 409
Width: 1365
Flags: HW
LayerCount: 2
Fore
SplineSet
739 -14 m 1,0,1
 711 -16 711 -16 683 -16 c 0,2,3
 306.202 -16 306.202 -16 193.5 295 c 0,4,5
 154 404 154 404 154 559 c 2,6,-1
 154 1392 l 1,7,-1
 354 1392 l 1,8,-1
 354 559 l 2,9,10
 354 156 354 156 683 156 c 256,11,12
 1011 156 1011 156 1011 559 c 2,13,-1
 1011 1392 l 1,14,-1
 1211 1392 l 1,15,-1
 1211 559 l 2,16,17
 1211 223.787 1211 223.787 1020 80 c 1,18,19
 902.327 -15.4702 902.327 -15.4702 860.164 -71.2351 c 0,20,21
 783 -173.29 783 -173.29 783 -253 c 0,22,23
 783 -324.44 783 -324.44 854 -350 c 0,24,25
 879 -359 879 -359 926.938 -359 c 128,-1,26
 974.875 -359 974.875 -359 1020 -340 c 1,27,-1
 1020 -488 l 1,28,29
 965 -510 965 -510 888 -510 c 128,-1,30
 811 -510 811 -510 758 -488 c 128,-1,31
 705 -466 705 -466 673 -431.5 c 0,32,33
 614 -367.891 614 -367.891 614 -261.891 c 128,-1,34
 614 -155.892 614 -155.892 739 -14 c 1,0,1
EndSplineSet
EndChar

